<?xml version="1.0" encoding="utf-8"?>
<!-- Generator: Adobe Illustrator 27.9.0, SVG Export Plug-In . SVG Version: 6.00 Build 0)  -->
<svg version="1.1" id="Capa_1" xmlns="http://www.w3.org/2000/svg" xmlns:xlink="http://www.w3.org/1999/xlink" x="0px" y="0px"
	 viewBox="0 0 350 100.8" style="enable-background:new 0 0 350 100.8;" xml:space="preserve">
<style type="text/css">
	.st0{fill-rule:evenodd;clip-rule:evenodd;}
</style>
<g>
	<path class="st0" d="M26.03,29.63l-1.45,0.49l-1.42,1.42l-1.33,2.27l-1.16,3.03l-0.92,3.72l-0.6,4.32l-0.22,4.84l0.22,4.84
		l0.6,4.32l0.92,3.72l1.16,3.03l1.33,2.27l1.42,1.42l1.45,0.49l0,0l0,0l0,0l0,0l1.45-0.49l1.42-1.42l1.33-2.27l1.16-3.03l0.92-3.72
		l0.6-4.32l0.22-4.84l-0.22-4.84l-0.6-4.32l-0.92-3.72l-1.16-3.03l-1.33-2.27l-1.42-1.42L26.03,29.63 M26.03,71.82l-1.1-0.15
		l-1.06-0.44l-1.02-0.72l-0.96-0.99l-0.9-1.26l-0.84-1.51L19.39,65l0,0l0,0l0,0l0,0l-0.63-1.83l-0.54-1.98l-0.45-2.11l-0.35-2.22
		l-0.26-2.31L17,52.16l-0.05-2.44L17,47.27l0.16-2.39l0.26-2.31l0.35-2.22l0.45-2.11l0.54-1.98l0.63-1.83l0.76-1.76l0.84-1.51
		l0.9-1.26l0.96-0.99l1.02-0.72l1.06-0.44l1.1-0.15l1.1,0.15l1.06,0.44l1.02,0.72l0.96,0.99l0.9,1.26l0.84,1.51l0.76,1.76l0.63,1.83
		l0.54,1.98l0.45,2.11l0.35,2.22l0.26,2.31l0.16,2.39l0.05,2.44l-0.05,2.44l-0.16,2.39l-0.26,2.31l-0.35,2.22l-0.45,2.11l-0.54,1.98
		L32.67,65l0,0l0,0l0,0l0,0l-0.76,1.76l-0.84,1.51l-0.9,1.26l-0.96,0.99l-1.02,0.72l-1.06,0.44L26.03,71.82"/>
	<g>
		<polyline class="st0" points="291.85,86.51 292.21,87.81 343.42,87.81 343.06,86.51 291.85,86.51 		"/>
		<g>
			<path class="st0" d="M170.2,47.49l1.1-0.43l2.85-1.12l3.89-1.53l4.24-1.67l3.89-1.53l2.85-1.12l1.1-0.43l0,0l0,0l0,0l-0.49-1.01
				l-0.47-0.91l-0.46-0.81l-0.44-0.71l-0.43-0.61l-0.41-0.51l-0.4-0.41l0,0l0,0l0,0l-0.62-0.53l-0.65-0.47l-0.68-0.41l-0.71-0.35
				l-0.74-0.29l-0.78-0.22l-0.81-0.16l0,0l0,0l0,0l0,0l0,0l-0.81-0.1l-0.8-0.04l-0.79,0.02l-0.77,0.08l-0.76,0.14l-0.75,0.2
				l-0.73,0.26l0,0l0,0l0,0l0,0l0,0l-1.08,0.49l-1,0.59l-0.92,0.69l-0.84,0.79l-0.76,0.89l-0.68,0.99l-0.61,1.09l0,0l0,0l0,0l0,0
				l-0.5,1.17l-0.36,1.21l-0.22,1.26l-0.08,1.31l0.06,1.36l0.2,1.4L170.2,47.49 M171.19,49.99l1.04,2.41l1.17,2.17l1.31,1.94
				l1.44,1.71l1.57,1.48l1.71,1.25l1.84,1.02l0,0l0,0l0,0l0,0l1.9,0.79l1.89,0.56l1.87,0.33l1.86,0.09l1.85-0.14l1.83-0.37l1.82-0.6
				l1.17-0.51l1.09-0.58l1.01-0.65l0.93-0.72l0.85-0.79l0.77-0.86l0.69-0.93l0,0l0,0l0,0l0,0l0.61-1.02l0.52-1.12l0.43-1.23
				l0.34-1.34l0.25-1.45l0.16-1.56l0.07-1.66l0,0l0,0l0,0l0,0l0.1,0.02l0.26,0.04l0.35,0.06l0.38,0.06l0.35,0.06l0.26,0.04l0.1,0.02
				l0,0l0,0l0,0l0,0l0,0l0,0l0.3,1.81l0.13,1.82l-0.04,1.84l-0.21,1.86l-0.38,1.88l-0.55,1.89l-0.72,1.91l0,0l0,0l0,0l0,0l0,0l0,0
				l-0.9,1.84l-1.08,1.68l-1.25,1.52l-1.43,1.36l-1.6,1.2l-1.78,1.04l-1.95,0.88l-2.21,0.74l-2.21,0.48l-2.21,0.22l-2.21-0.05
				l-2.21-0.31l-2.2-0.57l-2.2-0.83l0,0l0,0l0,0l0,0l-2.12-1.08l-1.96-1.33l-1.79-1.57l-1.63-1.82l-1.46-2.06l-1.3-2.31L166.68,58
				l0,0l0,0l0,0l0,0l-0.99-2.85l-0.68-2.76l-0.38-2.67l-0.08-2.58l0.22-2.49l0.53-2.39l0.83-2.3l0,0l0,0l0,0l1.08-2.16l1.29-1.98
				l1.5-1.79l1.71-1.61l1.92-1.42l2.13-1.24l2.34-1.06l2.05-0.7l2.02-0.48l1.98-0.26l1.94-0.04L188,27.4l1.87,0.4l1.84,0.62l0,0l0,0
				l0,0l1.75,0.83l1.61,1.02l1.47,1.22l1.32,1.41l1.18,1.61l1.04,1.8l0.9,2l0,0l0,0l0,0l0,0l0,0l0,0l-1.65,0.65l-4.25,1.67
				l-5.81,2.29l-6.33,2.49l-5.81,2.29l-4.25,1.67L171.19,49.99"/>
			<polyline class="st0" points="64.25,12.62 64.25,14.06 64.25,17.76 64.25,22.82 64.25,28.33 64.25,33.39 64.25,37.09 
				64.25,38.53 64.25,38.53 64.25,38.53 64.25,38.53 64.25,38.53 65.05,38.53 67.11,38.53 69.92,38.53 72.98,38.53 75.8,38.53 
				77.85,38.53 78.65,38.53 78.65,38.53 78.65,38.53 78.65,38.53 78.65,38.53 80.18,38.49 81.55,38.39 82.78,38.22 83.84,37.98 
				84.76,37.67 85.53,37.29 86.14,36.84 86.14,36.84 86.14,36.84 86.14,36.84 86.14,36.84 86.82,36.13 87.4,35.29 87.89,34.31 
				88.29,33.19 88.6,31.94 88.82,30.54 88.95,29.01 89.05,29.01 89.3,29.01 89.65,29.01 90.03,29.01 90.38,29.01 90.64,29.01 
				90.74,29.01 90.74,29.01 90.74,29.01 90.74,29.01 90.74,29.01 90.74,30.27 90.74,33.53 90.74,37.99 90.74,42.84 90.74,47.3 
				90.74,50.55 90.74,51.82 90.74,51.82 90.74,51.82 90.74,51.82 90.74,51.82 90.64,51.82 90.38,51.82 90.03,51.82 89.65,51.82 
				89.3,51.82 89.05,51.82 88.95,51.82 88.95,51.82 88.95,51.82 88.95,51.82 88.95,51.82 88.75,50.52 88.56,49.36 88.37,48.35 
				88.17,47.47 87.98,46.73 87.79,46.14 87.59,45.68 87.59,45.68 87.59,45.68 87.59,45.68 87.59,45.68 87.32,45.21 87,44.77 
				86.64,44.36 86.24,43.98 85.78,43.64 85.29,43.32 84.74,43.03 84.74,43.03 84.74,43.03 84.74,43.03 84.74,43.03 84.13,42.77 
				83.43,42.55 82.65,42.37 81.78,42.23 80.83,42.14 79.78,42.08 78.65,42.06 77.85,42.06 75.8,42.06 72.98,42.06 69.92,42.06 
				67.11,42.06 65.05,42.06 64.25,42.06 64.25,42.06 64.25,42.06 64.25,42.06 64.25,42.06 64.25,43.25 64.25,46.34 64.25,50.56 
				64.25,55.16 64.25,59.38 64.25,62.47 64.25,63.66 64.25,63.66 64.25,63.66 64.25,63.66 64.25,63.66 64.26,64.84 64.28,65.87 
				64.32,66.76 64.38,67.52 64.45,68.14 64.54,68.62 64.64,68.96 64.64,68.96 64.64,68.96 64.64,68.96 64.64,68.96 64.76,69.22 
				64.91,69.46 65.08,69.69 65.27,69.9 65.49,70.1 65.73,70.29 65.99,70.45 65.99,70.45 65.99,70.45 65.99,70.45 65.99,70.45 
				66.3,70.6 66.68,70.73 67.14,70.83 67.66,70.91 68.26,70.96 68.93,71 69.66,71.01 69.66,71.01 69.66,71.01 69.66,71.01 
				69.66,71.01 70.28,71.01 71.87,71.01 74.04,71.01 76.4,71.01 78.58,71.01 80.16,71.01 80.78,71.01 80.78,71.01 80.78,71.01 
				80.78,71.01 80.78,71.01 82.3,70.99 83.71,70.95 84.98,70.87 86.14,70.76 87.16,70.61 88.07,70.44 88.85,70.23 88.85,70.23 
				88.85,70.23 88.85,70.23 88.85,70.23 89.56,69.98 90.27,69.67 90.97,69.29 91.66,68.86 92.34,68.36 93.02,67.81 93.68,67.19 
				93.68,67.19 93.68,67.19 93.68,67.19 93.68,67.19 94.54,66.27 95.41,65.23 96.28,64.06 97.15,62.77 98.04,61.36 98.93,59.82 
				99.82,58.15 99.82,58.15 99.82,58.15 99.82,58.15 99.82,58.15 99.93,58.15 100.21,58.15 100.58,58.15 101,58.15 101.37,58.15 
				101.65,58.15 101.76,58.15 101.76,58.15 101.76,58.15 101.76,58.15 101.76,58.15 101.44,59.06 100.63,61.41 99.53,64.62 
				98.33,68.12 97.22,71.33 96.41,73.67 96.1,74.58 96.1,74.58 96.1,74.58 96.1,74.58 96.1,74.58 93.3,74.58 86.09,74.58 
				76.22,74.58 65.47,74.58 55.61,74.58 48.39,74.58 45.6,74.58 45.6,74.58 45.6,74.58 45.6,74.58 45.6,74.58 45.6,74.48 
				45.6,74.23 45.6,73.88 45.6,73.5 45.6,73.15 45.6,72.9 45.6,72.8 45.6,72.8 45.6,72.8 45.6,72.8 45.6,72.8 45.72,72.8 
				46.05,72.8 46.51,72.8 47,72.8 47.45,72.8 47.78,72.8 47.91,72.8 47.91,72.8 47.91,72.8 47.91,72.8 47.91,72.8 48.57,72.77 
				49.22,72.71 49.86,72.59 50.49,72.43 51.11,72.23 51.71,71.98 52.31,71.68 52.31,71.68 52.31,71.68 52.31,71.68 52.31,71.68 
				52.73,71.45 53.12,71.18 53.46,70.88 53.76,70.55 54.02,70.19 54.24,69.79 54.41,69.37 54.41,69.37 54.41,69.37 54.41,69.37 
				54.41,69.37 54.56,68.86 54.69,68.22 54.79,67.45 54.87,66.54 54.92,65.5 54.96,64.33 54.97,63.03 54.97,63.03 54.97,63.03 
				54.97,63.03 54.97,63.03 54.97,60.67 54.97,54.59 54.97,46.27 54.97,37.21 54.97,28.89 54.97,22.81 54.97,20.45 54.97,20.45 
				54.97,20.45 54.97,20.45 54.97,20.45 54.94,18.77 54.87,17.28 54.74,15.99 54.56,14.89 54.33,13.99 54.05,13.28 53.71,12.77 
				53.71,12.77 53.71,12.77 53.71,12.77 53.71,12.77 53.17,12.26 52.53,11.82 51.79,11.47 50.97,11.19 50.04,10.99 49.02,10.87 
				47.91,10.83 47.78,10.83 47.45,10.83 47,10.83 46.51,10.83 46.05,10.83 45.72,10.83 45.6,10.83 45.6,10.73 45.6,10.48 
				45.6,10.13 45.6,9.75 45.6,9.4 45.6,9.15 45.6,9.05 48.39,9.05 55.61,9.05 65.47,9.05 76.22,9.05 86.09,9.05 93.3,9.05 
				96.1,9.05 96.1,9.05 96.1,9.05 96.1,9.05 96.1,9.05 96.14,9.84 96.24,11.89 96.38,14.7 96.54,17.75 96.68,20.55 96.78,22.6 
				96.82,23.4 96.82,23.4 96.82,23.4 96.82,23.4 96.82,23.4 96.72,23.4 96.45,23.4 96.08,23.4 95.68,23.4 95.31,23.4 95.05,23.4 
				94.94,23.4 94.94,23.4 94.94,23.4 94.94,23.4 94.94,23.4 94.65,21.99 94.34,20.71 94.03,19.56 93.71,18.55 93.38,17.67 
				93.04,16.91 92.69,16.29 92.69,16.29 92.69,16.29 92.69,16.29 92.69,16.29 92.32,15.76 91.89,15.27 91.42,14.81 90.9,14.39 
				90.33,14 89.71,13.66 89.05,13.35 89.05,13.35 89.05,13.35 89.05,13.35 89.05,13.35 88.43,13.15 87.7,12.99 86.84,12.86 
				85.87,12.76 84.78,12.68 83.56,12.64 82.23,12.62 82.23,12.62 82.23,12.62 82.23,12.62 82.23,12.62 81.24,12.62 78.67,12.62 
				75.15,12.62 71.33,12.62 67.81,12.62 65.25,12.62 64.25,12.62 			"/>
			<polyline class="st0" points="99.08,25.28 99.83,25.28 101.74,25.28 104.35,25.28 107.2,25.28 109.81,25.28 111.72,25.28 
				112.47,25.28 112.47,25.28 112.47,25.28 112.47,25.28 112.47,25.28 114.13,27.33 118.44,32.61 124.33,39.84 130.74,47.71 
				136.63,54.93 140.93,60.21 142.6,62.26 142.6,62.26 142.6,62.26 142.6,62.26 142.6,62.26 142.6,60.69 142.6,56.62 142.6,51.07 
				142.6,45.02 142.6,39.47 142.6,35.41 142.6,33.83 142.6,33.83 142.6,33.83 142.6,33.83 142.6,33.83 142.58,32.6 142.52,31.51 
				142.42,30.56 142.27,29.75 142.08,29.08 141.85,28.55 141.58,28.16 141.58,28.16 141.58,28.16 141.58,28.16 141.58,28.16 
				141.17,27.75 140.69,27.41 140.15,27.13 139.54,26.91 138.87,26.76 138.13,26.67 137.33,26.64 137.33,26.64 137.33,26.64 
				137.33,26.64 137.33,26.64 137.24,26.64 136.99,26.64 136.66,26.64 136.29,26.64 135.96,26.64 135.71,26.64 135.62,26.64 
				135.62,26.64 135.62,26.64 135.62,26.64 135.62,26.64 135.62,26.56 135.62,26.37 135.62,26.1 135.62,25.82 135.62,25.55 
				135.62,25.36 135.62,25.28 135.62,25.28 135.62,25.28 135.62,25.28 135.62,25.28 136.57,25.28 139.02,25.28 142.37,25.28 
				146.03,25.28 149.38,25.28 151.83,25.28 152.78,25.28 152.78,25.28 152.78,25.28 152.78,25.28 152.78,25.28 152.78,25.36 
				152.78,25.55 152.78,25.82 152.78,26.1 152.78,26.37 152.78,26.56 152.78,26.64 152.78,26.64 152.78,26.64 152.78,26.64 
				152.78,26.64 152.68,26.64 152.44,26.64 152.1,26.64 151.72,26.64 151.38,26.64 151.14,26.64 151.04,26.64 151.04,26.64 
				151.04,26.64 151.04,26.64 151.04,26.64 150.18,26.67 149.4,26.79 148.69,26.98 148.06,27.25 147.5,27.6 147.01,28.02 
				146.61,28.52 146.61,28.52 146.61,28.52 146.61,28.52 146.61,28.52 146.39,28.92 146.21,29.43 146.07,30.07 145.95,30.83 
				145.87,31.71 145.82,32.71 145.8,33.83 145.8,33.83 145.8,33.83 145.8,33.83 145.8,33.83 145.8,36.13 145.8,42.07 145.8,50.19 
				145.8,59.03 145.8,67.15 145.8,73.08 145.8,75.39 145.8,75.39 145.8,75.39 145.8,75.39 145.8,75.39 145.8,75.39 145.73,75.39 
				145.54,75.39 145.29,75.39 145.01,75.39 144.75,75.39 144.57,75.39 144.49,75.39 144.49,75.39 144.49,75.39 144.49,75.39 
				144.49,75.39 144.49,75.39 142.69,73.19 138.05,67.51 131.7,59.76 124.78,51.31 118.43,43.56 113.79,37.89 111.99,35.69 
				111.99,35.69 111.99,37.37 111.99,41.7 111.99,47.63 111.99,54.09 111.99,60.02 111.99,64.36 111.99,66.04 111.99,66.04 
				112.01,67.27 112.07,68.36 112.17,69.31 112.31,70.12 112.49,70.79 112.71,71.32 112.97,71.71 112.97,71.71 112.97,71.71 
				112.97,71.71 112.97,71.71 113.4,72.12 113.89,72.46 114.43,72.74 115.04,72.96 115.71,73.12 116.44,73.21 117.22,73.24 
				117.22,73.24 117.22,73.24 117.22,73.24 117.22,73.24 117.32,73.24 117.57,73.24 117.91,73.24 118.28,73.24 118.63,73.24 
				118.88,73.24 118.97,73.24 118.97,73.24 118.97,73.24 118.97,73.24 118.97,73.24 118.97,73.32 118.97,73.51 118.97,73.77 
				118.97,74.06 118.97,74.32 118.97,74.51 118.97,74.58 118.97,74.58 118.97,74.58 118.97,74.58 118.97,74.58 118.02,74.58 
				115.57,74.58 112.22,74.58 108.57,74.58 105.22,74.58 102.77,74.58 101.82,74.58 101.82,74.58 101.82,74.58 101.82,74.58 
				101.82,74.58 101.82,74.51 101.82,74.32 101.82,74.06 101.82,73.77 101.82,73.51 101.82,73.32 101.82,73.24 101.82,73.24 
				101.82,73.24 101.82,73.24 101.82,73.24 101.91,73.24 102.15,73.24 102.49,73.24 102.85,73.24 103.18,73.24 103.43,73.24 
				103.52,73.24 103.52,73.24 103.52,73.24 103.52,73.24 103.52,73.24 104.39,73.2 105.18,73.09 105.89,72.89 106.53,72.62 
				107.09,72.28 107.58,71.85 108,71.35 108,71.35 108,71.35 108,71.35 108,71.35 108.21,70.96 108.39,70.44 108.53,69.81 
				108.65,69.05 108.73,68.17 108.78,67.17 108.79,66.04 108.79,66.04 108.79,66.04 108.79,66.04 108.79,66.04 108.79,64.14 
				108.79,59.25 108.79,52.55 108.79,45.25 108.79,38.56 108.79,33.66 108.79,31.76 108.79,31.76 108.79,31.76 108.79,31.76 
				108.79,31.76 108.2,31.08 107.65,30.46 107.14,29.92 106.68,29.45 106.26,29.05 105.88,28.71 105.54,28.45 105.54,28.45 
				105.54,28.45 105.54,28.45 105.54,28.45 105.2,28.22 104.82,28 104.4,27.79 103.93,27.57 103.43,27.36 102.88,27.16 
				102.29,26.96 102.29,26.96 102.29,26.96 102.29,26.96 102.29,26.96 101.96,26.87 101.59,26.8 101.18,26.74 100.72,26.69 
				100.22,26.66 99.67,26.64 99.08,26.64 99.08,26.64 99.08,26.64 99.08,26.64 99.08,26.64 99.08,26.56 99.08,26.37 99.08,26.1 
				99.08,25.82 99.08,25.55 99.08,25.36 99.08,25.28 			"/>
			<path class="st0" d="M217.01,49.25h0.19h0.19h0.18h0.17h0.16h0.16h0.15l0,0l0,0l0,0l0,0l0,0l0,0h0.14h0.13h0.13h0.12h0.11h0.11
				h0.1l0,0l0,0l0,0l0,0l0,0l0,0l1.94-0.06l1.8-0.19l1.66-0.31l1.52-0.44l1.38-0.56l1.24-0.69l1.09-0.81l0,0l0,0l0,0l0,0l0,0l0,0
				l0.95-0.91l0.8-0.97l0.66-1.04l0.51-1.11l0.37-1.18l0.22-1.25l0.07-1.32l0,0l0,0l0,0l0,0l0,0l0,0l-0.06-1.28l-0.18-1.21
				l-0.3-1.14l-0.41-1.07l-0.53-1l-0.65-0.93l-0.77-0.86l0,0l0,0l0,0l0,0l0,0l0,0l-0.86-0.77l-0.94-0.65l-1.01-0.5l-1.09-0.41
				l-1.17-0.29l-1.25-0.18l-1.32-0.06l0,0l0,0l0,0l0,0l0,0l0,0l-0.63,0.01l-0.69,0.04l-0.75,0.07l-0.82,0.1l-0.88,0.13L218,28.56
				l-1,0.19l0,0l0,0l0,0l0,0v1.14v2.93v4v4.36v4v2.93L217.01,49.25 M252.01,74.58h-0.73h-1.88h-2.57h-2.8h-2.57h-1.88h-0.73l0,0l0,0
				l0,0l0,0l0,0l0,0l-0.92-1.28l-2.38-3.29l-3.26-4.5l-3.55-4.91l-3.26-4.5l-2.38-3.29l-0.92-1.28l0,0l0,0l0,0l0,0l0,0l0,0
				l-0.51,0.02l-0.49,0.02l-0.46,0.01l-0.43,0.01l-0.4,0.01h-0.37h-0.35l0,0l0,0l0,0l0,0l0,0l0,0h-0.14h-0.14h-0.14h-0.14h-0.15
				h-0.15l-0.15-0.01l0,0l0,0l0,0l0,0l0,0l0,0L218,51.58l-0.16-0.01l-0.16-0.01l-0.16-0.01l-0.16-0.01l-0.16-0.01l-0.17-0.01l0,0
				l0,0l0,0l0,0l0,0l0,0v0.79v2.05v2.8v3.05v2.8v2.05v0.79l0,0l0,0l0,0l0,0l0,0l0,0l0.02,1.26l0.06,1.11l0.1,0.97l0.15,0.83
				l0.19,0.68l0.23,0.54l0.27,0.39l0,0l0,0l0,0l0,0l0.42,0.42l0.48,0.36l0.54,0.29l0.59,0.23l0.65,0.16l0.7,0.1l0.76,0.03l0,0l0,0
				l0,0l0,0l0,0l0,0h0.11h0.28h0.38h0.41h0.38h0.28h0.11l0,0l0,0l0,0l0,0v0.07v0.19v0.26v0.29v0.26v0.19v0.07l0,0l0,0l0,0l0,0l0,0
				l0,0h-1.17h-3.02h-4.13h-4.5h-4.13h-3.02H203l0,0l0,0l0,0l0,0v-0.07v-0.19v-0.26v-0.29v-0.26v-0.19v-0.07l0,0l0,0l0,0l0,0l0,0
				l0,0h0.1h0.26h0.36h0.39h0.36h0.26h0.1l0,0l0,0l0,0l0,0l0,0l0,0l0.86-0.04l0.78-0.12l0.71-0.21l0.64-0.29l0.57-0.37l0.49-0.46
				l0.42-0.54l0,0l0,0l0,0l0,0l0,0l0,0l0.2-0.39l0.17-0.51l0.14-0.64l0.11-0.76L210,68l0.05-1.02l0.02-1.14l0,0l0,0l0,0l0,0l0,0l0,0
				v-1.76v-4.55v-6.22v-6.78v-6.22v-4.55V34l0,0l0,0l0,0l0,0l0,0l0,0l-0.02-1.26l-0.06-1.11l-0.1-0.97l-0.15-0.83l-0.19-0.68
				l-0.23-0.54l-0.27-0.39l0,0l0,0l0,0l0,0l-0.43-0.42l-0.49-0.36l-0.55-0.29l-0.6-0.23l-0.66-0.16l-0.72-0.1l-0.77-0.03l0,0l0,0
				l0,0l0,0h-0.1h-0.26h-0.36h-0.39h-0.36h-0.26H203l0,0l0,0l0,0l0,0v-0.07v-0.19v-0.26v-0.29v-0.26v-0.19V25.3l0,0l0,0l0,0l0,0
				h0.99h2.57h3.51h3.82h3.51h2.57h0.99l0,0l0,0l0,0l0,0l2.16,0.02l1.99,0.07l1.82,0.12l1.65,0.16l1.49,0.21l1.32,0.26l1.15,0.3l0,0
				l0,0l0,0l0,0l0,0l0,0l1.04,0.37l1,0.44l0.95,0.52l0.9,0.6l0.86,0.68l0.81,0.76l0.77,0.84l0,0l0,0l0,0l0,0l0,0l0,0l0.69,0.9
				l0.58,0.95l0.48,1l0.37,1.05l0.27,1.1l0.16,1.14l0.05,1.19l0,0l0,0l0,0l0,0l0,0l0,0l-0.06,1.27l-0.18,1.22l-0.3,1.17l-0.42,1.13
				l-0.54,1.08l-0.66,1.03l-0.79,0.98l0,0l0,0l0,0l0,0l0,0l0,0l-0.91,0.92l-1.05,0.84l-1.18,0.76l-1.31,0.68l-1.44,0.6l-1.63,0.5
				l-1.71,0.44l0,0l0,0l0,0l0,0l0.56,0.78l1.45,2.02l1.99,2.76l2.17,3.01l1.99,2.76l1.45,2.02l0.56,0.78l0,0l0,0l0,0l0,0l0,0l0,0
				l0.98,1.33l0.94,1.19l0.9,1.06l0.86,0.93l0.82,0.79l0.78,0.66l0.74,0.52l0,0l0,0l0,0l0,0l0,0l0,0l0.75,0.43l0.81,0.39l0.87,0.34
				l0.93,0.29l1,0.24l1.06,0.2l1.12,0.15l0,0l0,0l0,0l0,0l0,0l0,0v0.07v0.19v0.26v0.29v0.26v0.19L252.01,74.58"/>
			<polyline class="st0" points="290.36,24.16 290.43,25.02 290.61,27.24 290.86,30.28 291.13,33.6 291.37,36.64 291.55,38.86 
				291.62,39.72 291.62,39.72 291.62,39.72 291.62,39.72 291.62,39.72 291.62,39.72 291.62,39.72 291.55,39.72 291.37,39.72 
				291.13,39.72 290.86,39.72 290.61,39.72 290.43,39.72 290.36,39.72 290.36,39.72 290.36,39.72 290.36,39.72 290.36,39.72 
				290.36,39.72 290.36,39.72 289.78,38.12 289.16,36.63 288.5,35.26 287.78,34.01 287.03,32.88 286.22,31.86 285.37,30.96 
				285.37,30.96 285.37,30.96 285.37,30.96 285.37,30.96 285.37,30.96 285.37,30.96 284.07,29.83 282.66,28.88 281.14,28.1 
				279.53,27.49 277.81,27.05 275.99,26.79 274.07,26.7 274.07,26.7 274.07,26.7 274.07,26.7 274.07,26.7 271.47,26.86 
				269.05,27.31 266.82,28.07 264.78,29.14 262.91,30.51 261.24,32.18 259.74,34.15 259.74,34.15 259.74,34.15 259.74,34.15 
				259.74,34.15 259.74,34.15 259.74,34.15 258.65,36 257.73,37.95 256.98,39.99 256.39,42.13 255.97,44.37 255.72,46.71 
				255.64,49.14 255.64,49.14 255.64,49.14 255.64,49.14 255.64,49.14 255.64,49.14 255.64,49.14 255.69,51.13 255.86,53.07 
				256.14,54.96 256.53,56.79 257.03,58.58 257.64,60.32 258.36,62 258.36,62 258.36,62 258.36,62 258.36,62 258.36,62 258.36,62 
				259.18,63.6 260.06,65.08 261.01,66.42 262.03,67.64 263.12,68.73 264.28,69.69 265.51,70.53 265.51,70.53 265.51,70.53 
				265.51,70.53 265.51,70.53 266.77,71.25 268.05,71.86 269.33,72.36 270.63,72.74 271.94,73.02 273.25,73.19 274.58,73.24 
				274.58,73.24 274.58,73.24 274.58,73.24 274.58,73.24 274.58,73.24 274.58,73.24 275.35,73.23 276.12,73.18 276.88,73.11 
				277.63,73.01 278.38,72.89 279.12,72.73 279.85,72.55 279.85,72.55 279.85,72.55 279.85,72.55 279.85,72.55 279.85,72.55 
				279.85,72.55 280.57,72.34 281.29,72.1 282,71.84 282.7,71.54 283.39,71.23 284.08,70.88 284.76,70.51 284.76,70.51 
				284.76,70.51 284.76,70.51 284.76,70.51 284.76,70.51 284.76,70.51 284.76,69.72 284.76,67.69 284.76,64.9 284.76,61.87 
				284.76,59.09 284.76,57.05 284.76,56.26 284.76,56.26 284.76,56.26 284.76,56.26 284.76,56.26 284.76,56.26 284.76,56.26 
				284.75,55.25 284.71,54.35 284.65,53.55 284.57,52.86 284.47,52.27 284.34,51.79 284.19,51.41 284.19,51.41 284.19,51.41 
				284.19,51.41 284.19,51.41 284.19,51.41 284.19,51.41 284.02,51.09 283.82,50.8 283.59,50.53 283.34,50.28 283.07,50.05 
				282.77,49.84 282.45,49.66 282.45,49.66 282.45,49.66 282.45,49.66 282.45,49.66 282.45,49.66 282.45,49.66 282.07,49.5 
				281.62,49.37 281.1,49.26 280.51,49.17 279.84,49.11 279.1,49.07 278.28,49.06 278.28,49.06 278.28,49.06 278.28,49.06 
				278.28,49.06 278.28,48.98 278.28,48.79 278.28,48.52 278.28,48.23 278.28,47.96 278.28,47.76 278.28,47.68 278.28,47.68 
				278.28,47.68 278.28,47.68 278.28,47.68 279.34,47.68 282.07,47.68 285.79,47.68 289.86,47.68 293.58,47.68 296.31,47.68 
				297.37,47.68 297.37,47.68 297.37,47.68 297.37,47.68 297.37,47.68 297.37,47.76 297.37,47.96 297.37,48.23 297.37,48.52 
				297.37,48.79 297.37,48.98 297.37,49.06 297.37,49.06 297.37,49.06 297.37,49.06 297.37,49.06 297.32,49.06 297.19,49.06 
				297.01,49.06 296.82,49.06 296.64,49.06 296.51,49.06 296.46,49.06 296.46,49.06 296.46,49.06 296.46,49.06 296.46,49.06 
				295.69,49.1 294.99,49.21 294.36,49.41 293.8,49.68 293.32,50.03 292.91,50.45 292.57,50.95 292.57,50.95 292.57,50.95 
				292.57,50.95 292.57,50.95 292.38,51.39 292.22,51.93 292.08,52.59 291.98,53.34 291.91,54.21 291.86,55.18 291.85,56.26 
				291.85,56.26 291.85,56.26 291.85,56.26 291.85,56.26 291.85,56.26 291.85,56.26 291.85,57.1 291.85,59.25 291.85,62.2 
				291.85,65.41 291.85,68.36 291.85,70.52 291.85,71.35 291.85,71.35 291.85,71.35 291.85,71.35 291.85,71.35 291.85,71.35 
				291.85,71.35 290.65,71.97 289.46,72.54 288.28,73.06 287.1,73.53 285.93,73.96 284.76,74.33 283.59,74.65 283.59,74.65 
				283.59,74.65 283.59,74.65 283.59,74.65 283.59,74.65 283.59,74.65 282.41,74.93 281.19,75.17 279.93,75.37 278.64,75.52 
				277.31,75.63 275.94,75.69 274.54,75.71 274.54,75.71 274.54,75.71 274.54,75.71 274.54,75.71 274.54,75.71 274.54,75.71 
				270.6,75.53 266.94,74.97 263.55,74.03 260.45,72.72 257.63,71.04 255.09,68.98 252.84,66.55 252.84,66.55 252.84,66.55 
				252.84,66.55 252.84,66.55 251.36,64.55 250.11,62.45 249.09,60.28 248.29,58.01 247.72,55.66 247.38,53.22 247.27,50.7 
				247.27,50.7 247.27,50.7 247.27,50.7 247.27,50.7 247.27,50.7 247.27,50.7 247.33,48.85 247.53,47.03 247.84,45.22 248.29,43.44 
				248.87,41.68 249.57,39.94 250.4,38.23 250.4,38.23 250.4,38.23 250.4,38.23 250.4,38.23 250.4,38.23 250.4,38.23 251.52,36.27 
				252.75,34.45 254.09,32.75 255.54,31.2 257.1,29.77 258.78,28.48 260.57,27.32 260.57,27.32 260.57,27.32 260.57,27.32 
				260.57,27.32 260.57,27.32 260.57,27.32 262.16,26.48 263.83,25.77 265.58,25.19 267.41,24.74 269.32,24.42 271.31,24.22 
				273.37,24.16 273.37,24.16 273.37,24.16 273.37,24.16 273.37,24.16 273.37,24.16 273.37,24.16 274.13,24.17 274.87,24.19 
				275.59,24.24 276.29,24.3 276.97,24.38 277.63,24.48 278.27,24.6 278.27,24.6 278.27,24.6 278.27,24.6 278.27,24.6 278.27,24.6 
				278.27,24.6 278.93,24.74 279.67,24.93 280.49,25.16 281.38,25.44 282.34,25.76 283.39,26.12 284.5,26.52 284.5,26.52 
				284.5,26.52 284.5,26.52 284.5,26.52 284.5,26.52 284.5,26.52 285.05,26.72 285.55,26.9 286,27.04 286.39,27.15 286.72,27.23 
				287,27.27 287.23,27.29 287.23,27.29 287.23,27.29 287.23,27.29 287.23,27.29 287.42,27.28 287.6,27.24 287.78,27.17 
				287.95,27.08 288.11,26.96 288.26,26.82 288.41,26.65 288.41,26.65 288.41,26.65 288.41,26.65 288.41,26.65 288.41,26.65 
				288.41,26.65 288.54,26.44 288.66,26.19 288.76,25.88 288.85,25.53 288.92,25.12 288.97,24.66 289.01,24.16 289.01,24.16 
				289.01,24.16 289.01,24.16 289.01,24.16 289.08,24.16 289.27,24.16 289.54,24.16 289.83,24.16 290.09,24.16 290.28,24.16 
				290.36,24.16 			"/>
			<polyline class="st0" points="329.81,25.28 330.76,25.28 333.22,25.28 336.58,25.28 340.23,25.28 343.59,25.28 346.05,25.28 
				347,25.28 347,25.28 347,25.28 347,25.28 347,25.28 347,25.36 347,25.55 347,25.82 347,26.1 347,26.37 347,26.56 347,26.64 
				347,26.64 347,26.64 347,26.64 347,26.64 346.95,26.64 346.81,26.64 346.63,26.64 346.43,26.64 346.24,26.64 346.11,26.64 
				346.05,26.64 346.05,26.64 346.05,26.64 346.05,26.64 346.05,26.64 345.77,26.65 345.44,26.7 345.09,26.79 344.69,26.91 
				344.26,27.06 343.79,27.25 343.29,27.47 342.78,27.72 342.28,28.01 341.8,28.32 341.32,28.66 340.87,29.04 340.42,29.44 
				339.99,29.87 339.99,29.87 339.99,29.87 339.99,29.87 339.99,29.87 339.55,30.36 339.08,30.92 338.58,31.57 338.06,32.3 
				337.5,33.1 336.92,33.99 336.32,34.96 336.32,34.96 336.32,34.96 336.32,34.96 336.32,34.96 335.66,35.99 333.96,38.67 
				331.64,42.33 329.11,46.31 326.78,49.97 325.09,52.64 324.43,53.68 324.43,53.68 324.43,53.68 324.43,53.68 324.43,53.68 
				324.43,54.37 324.43,56.13 324.43,58.55 324.43,61.18 324.43,63.59 324.43,65.36 324.43,66.04 324.45,67.27 324.51,68.36 
				324.61,69.31 324.76,70.12 324.94,70.79 325.17,71.32 325.44,71.71 325.44,71.71 325.44,71.71 325.44,71.71 325.44,71.71 
				325.87,72.12 326.36,72.46 326.92,72.74 327.54,72.96 328.23,73.12 328.99,73.21 329.81,73.24 329.81,73.24 329.81,73.24 
				329.81,73.24 329.81,73.24 329.9,73.24 330.13,73.24 330.44,73.24 330.78,73.24 331.09,73.24 331.32,73.24 331.41,73.24 
				331.41,73.24 331.41,73.24 331.41,73.24 331.41,73.24 331.41,73.32 331.41,73.51 331.41,73.77 331.41,74.06 331.41,74.32 
				331.41,74.51 331.41,74.58 331.41,74.58 331.41,74.58 331.41,74.58 331.41,74.58 331.41,74.58 331.41,74.58 330.25,74.58 
				327.25,74.58 323.16,74.58 318.71,74.58 314.61,74.58 311.62,74.58 310.46,74.58 310.46,74.58 310.46,74.58 310.46,74.58 
				310.46,74.58 310.46,74.58 310.46,74.58 310.46,74.51 310.46,74.32 310.46,74.06 310.46,73.77 310.46,73.51 310.46,73.32 
				310.46,73.24 310.46,73.24 310.46,73.24 310.46,73.24 310.46,73.24 310.56,73.24 310.81,73.24 311.15,73.24 311.52,73.24 
				311.86,73.24 312.11,73.24 312.21,73.24 312.21,73.24 312.21,73.24 312.21,73.24 312.21,73.24 313.07,73.2 313.85,73.09 
				314.56,72.89 315.19,72.62 315.75,72.28 316.24,71.85 316.65,71.35 316.65,71.35 316.65,71.35 316.65,71.35 316.65,71.35 
				316.86,70.96 317.04,70.44 317.19,69.81 317.3,69.05 317.38,68.17 317.43,67.17 317.45,66.04 317.45,65.4 317.45,63.73 
				317.45,61.45 317.45,58.97 317.45,56.69 317.45,55.02 317.45,54.37 316.7,53.23 314.76,50.28 312.12,46.24 309.24,41.85 
				306.6,37.81 304.67,34.86 303.92,33.72 303.92,33.72 303.92,33.72 303.92,33.72 303.92,33.72 303.27,32.74 302.68,31.87 
				302.15,31.11 301.68,30.46 301.28,29.92 300.94,29.5 300.67,29.18 300.67,29.18 300.67,29.18 300.67,29.18 300.67,29.18 
				300.39,28.91 300.03,28.63 299.6,28.33 299.09,28.02 298.51,27.69 297.85,27.35 297.12,27 297.12,27 297.12,27 297.12,27 
				297.12,27 296.9,26.9 296.65,26.82 296.38,26.75 296.08,26.7 295.75,26.66 295.4,26.64 295.02,26.64 295.02,26.64 295.02,26.64 
				295.02,26.64 295.02,26.64 295.02,26.64 295.02,26.64 295.02,26.56 295.02,26.37 295.02,26.1 295.02,25.82 295.02,25.55 
				295.02,25.36 295.02,25.28 295.02,25.28 295.02,25.28 295.02,25.28 295.02,25.28 295.02,25.28 295.02,25.28 296.18,25.28 
				299.2,25.28 303.32,25.28 307.8,25.28 311.92,25.28 314.94,25.28 316.1,25.28 316.1,25.28 316.1,25.28 316.1,25.28 316.1,25.28 
				316.1,25.36 316.1,25.55 316.1,25.82 316.1,26.1 316.1,26.37 316.1,26.56 316.1,26.64 316.1,26.64 316.1,26.64 316.1,26.64 
				316.1,26.64 316.04,26.64 315.89,26.64 315.67,26.64 315.44,26.64 315.23,26.64 315.07,26.64 315.01,26.64 315.01,26.64 
				315.01,26.64 315.01,26.64 315.01,26.64 314.53,26.65 314.06,26.7 313.6,26.78 313.15,26.9 312.71,27.04 312.28,27.22 
				311.87,27.44 311.87,27.44 311.87,27.44 311.87,27.44 311.87,27.44 311.48,27.68 311.16,27.96 310.9,28.27 310.69,28.61 
				310.55,28.98 310.46,29.39 310.43,29.83 310.43,29.83 310.43,29.83 310.43,29.83 310.43,29.83 310.48,30.25 310.61,30.75 
				310.84,31.34 311.15,32.02 311.56,32.78 312.06,33.63 312.65,34.56 312.65,34.56 312.65,34.56 312.65,34.56 312.65,34.56 
				313.22,35.44 314.69,37.71 316.7,40.81 318.89,44.19 320.9,47.3 322.37,49.57 322.94,50.45 322.94,50.45 322.94,50.45 
				322.94,50.45 322.94,50.45 323.47,49.61 324.85,47.43 326.74,44.47 328.8,41.23 330.69,38.26 332.07,36.09 332.6,35.25 
				332.6,35.25 332.6,35.25 332.6,35.25 332.6,35.25 333.18,34.31 333.67,33.44 334.07,32.64 334.39,31.91 334.61,31.26 
				334.74,30.67 334.79,30.16 334.79,30.16 334.79,30.16 334.79,30.16 334.79,30.16 334.77,29.87 334.74,29.6 334.69,29.33 
				334.61,29.07 334.52,28.82 334.4,28.57 334.26,28.34 334.26,28.34 334.26,28.34 334.26,28.34 334.26,28.34 334.1,28.12 
				333.92,27.91 333.72,27.72 333.51,27.54 333.27,27.38 333.02,27.22 332.75,27.09 332.75,27.09 332.75,27.09 332.75,27.09 
				332.75,27.09 332.45,26.97 332.11,26.87 331.73,26.78 331.31,26.72 330.85,26.67 330.35,26.64 329.81,26.64 329.81,26.64 
				329.81,26.64 329.81,26.64 329.81,26.64 329.81,26.56 329.81,26.37 329.81,26.1 329.81,25.82 329.81,25.55 329.81,25.36 
				329.81,25.28 			"/>
			<polyline class="st0" points="188.3,23.7 188.3,23.7 188.3,23.69 188.3,23.68 188.31,23.67 188.31,23.67 188.31,23.66 
				188.31,23.65 188.14,22.95 187.69,21.16 187.07,18.71 186.4,16.03 185.79,13.58 185.34,11.79 185.16,11.09 185.16,11.09 
				185.16,11.09 185.16,11.09 185.16,11.09 184.99,11.79 184.54,13.58 183.93,16.03 183.26,18.71 182.64,21.16 182.19,22.95 
				182.02,23.65 182.02,23.65 182.02,23.65 182.02,23.65 182.02,23.65 182.02,23.66 182.02,23.67 182.02,23.67 182.03,23.68 
				182.03,23.69 182.03,23.7 182.03,23.7 182.03,23.7 182.03,23.7 182.03,23.7 182.03,23.7 182.03,23.7 182.38,23.7 183.28,23.7 
				184.5,23.7 185.83,23.7 187.06,23.7 187.95,23.7 188.3,23.7 			"/>
			<polyline class="st0" points="169.56,30.34 169.55,30.33 169.55,30.32 169.54,30.31 169.54,30.31 169.53,30.3 169.53,30.29 
				169.53,30.29 169.53,30.29 169.53,30.29 169.53,30.29 169.53,30.29 168.89,29.95 167.25,29.1 165.01,27.92 162.57,26.65 
				160.33,25.48 158.69,24.62 158.06,24.29 158.06,24.29 158.06,24.29 158.06,24.29 158.06,24.29 158.46,24.88 159.5,26.41 
				160.92,28.5 162.47,30.77 163.9,32.86 164.94,34.39 165.34,34.99 165.34,34.99 165.34,34.99 165.34,34.99 165.34,34.99 
				165.34,34.99 165.35,34.99 165.36,35 165.37,35 165.38,35 165.38,35.01 165.39,35.01 165.39,35.01 165.39,35.01 165.39,35.01 
				165.39,35.01 165.62,34.75 166.21,34.09 167.03,33.17 167.92,32.18 168.73,31.27 169.33,30.6 169.56,30.34 			"/>
			<polyline class="st0" points="161.56,46.27 161.55,46.27 161.54,46.26 161.54,46.26 161.53,46.26 161.52,46.26 161.51,46.25 
				161.5,46.25 161.5,46.25 161.5,46.25 161.5,46.25 161.5,46.25 160.81,46.43 159.01,46.88 156.56,47.5 153.89,48.17 151.44,48.78 
				149.65,49.23 148.95,49.41 148.95,49.41 148.95,49.41 148.95,49.41 148.95,49.41 149.65,49.58 151.44,50.03 153.89,50.64 
				156.57,51.31 159.02,51.93 160.81,52.38 161.51,52.55 161.51,52.55 161.51,52.55 161.51,52.55 161.51,52.55 161.52,52.55 
				161.52,52.55 161.53,52.54 161.54,52.54 161.55,52.54 161.56,52.53 161.57,52.53 161.57,52.53 161.57,52.53 161.57,52.53 
				161.57,52.53 161.57,52.18 161.56,51.29 161.56,50.07 161.56,48.73 161.56,47.51 161.56,46.61 161.56,46.27 			"/>
			<polyline class="st0" points="164.84,65.62 164.83,65.62 164.82,65.62 164.81,65.63 164.81,65.63 164.8,65.64 164.79,65.64 
				164.78,65.65 164.78,65.65 164.78,65.65 164.78,65.65 164.78,65.65 164.39,66.24 163.36,67.78 161.96,69.88 160.43,72.17 
				159.03,74.28 158,75.81 157.61,76.41 157.61,76.41 157.61,76.41 157.61,76.41 157.61,76.41 157.61,76.41 158.24,76.07 
				159.87,75.2 162.1,74.01 164.52,72.71 166.75,71.52 168.38,70.65 169.01,70.31 169.01,70.31 169.01,70.31 169.01,70.31 
				169.01,70.31 169.02,70.3 169.02,70.29 169.03,70.29 169.03,70.28 169.04,70.27 169.04,70.26 169.04,70.26 169.04,70.26 
				169.04,70.26 169.04,70.26 169.04,70.26 168.81,70 168.21,69.34 167.39,68.43 166.49,67.44 165.67,66.54 165.07,65.87 
				164.84,65.62 			"/>
			<path class="st0" d="M26.13,27.82l-1.75,0.1l-1.65,0.29l-1.55,0.48l-1.44,0.67l-1.34,0.86l-1.24,1.05l-1.14,1.24l-1.26,1.77
				l-1.06,1.99l-0.87,2.21l-0.68,2.43l-0.48,2.65l-0.29,2.87l-0.1,3.09l0.1,3.18l0.3,2.96l0.5,2.74l0.7,2.53l0.9,2.31l1.1,2.09
				l1.31,1.88l1.13,1.25l1.23,1.06l1.33,0.87l1.42,0.67l1.52,0.48l1.62,0.29l1.72,0.1l0,0l0,0l0,0l0,0L28,71.82l1.75-0.32l1.65-0.53
				l1.56-0.74l1.47-0.95l1.37-1.16l1.28-1.37l0,0l0,0l0,0l0,0l1.14-1.6l0.97-1.84l0.79-2.08l0.61-2.32l0.44-2.57l0.26-2.81
				l0.09-3.05l0,0l0,0l0,0l0,0l-0.1-3.32l-0.29-3.07l-0.48-2.82l-0.68-2.57l-0.87-2.32l-1.06-2.07l-1.26-1.82l-1.15-1.25l-1.27-1.06
				l-1.38-0.87l-1.5-0.67l-1.62-0.48l-1.74-0.29L26.13,27.82 M26.78,25.29l2.56,0.14l2.46,0.43l2.36,0.71l2.26,0.99l2.16,1.28
				l2.06,1.56l1.96,1.84l1.78,2.05l1.5,2.19l1.23,2.33l0.96,2.48l0.68,2.62l0.41,2.76l0.14,2.9l-0.14,2.98l-0.41,2.83l-0.69,2.69
				l-0.96,2.54L45.86,63l-1.52,2.24l-1.79,2.09l0,0l0,0l0,0l0,0l-1.99,1.87l-2.1,1.59l-2.22,1.3l-2.33,1.01l-2.45,0.72l-2.57,0.43
				l-2.68,0.14l0,0l0,0l0,0l0,0l-2.71-0.14l-2.58-0.42l-2.45-0.7l-2.33-0.98l-2.2-1.27l-2.08-1.55L9.94,67.5l0,0l0,0l0,0l0,0
				l-1.75-2.05l-1.48-2.22L5.5,60.84L4.56,58.3l-0.67-2.71l-0.4-2.88l-0.13-3.04l0.16-3.11l0.47-2.94l0.78-2.77l1.09-2.61l1.4-2.44
				l1.71-2.27l2.02-2.1l1.94-1.63l2.05-1.38l2.15-1.13l2.26-0.88l2.37-0.63l2.47-0.38L26.78,25.29"/>
			<path class="st0" d="M26.65,29.63l-2.74,0.53l-2.51,1.5l-2.22,2.36l-1.85,3.09l-1.41,3.71l-0.9,4.2l-0.32,4.57l0.32,4.57l0.9,4.2
				l1.41,3.71l1.85,3.09l2.22,2.36l2.51,1.5l2.74,0.53l0,0l0,0l0,0l0,0l2.74-0.53l2.51-1.5l2.22-2.36l1.85-3.09l1.41-3.71l0.9-4.2
				l0.32-4.57l-0.32-4.57l-0.9-4.2l-1.41-3.71l-1.85-3.09l-2.22-2.36l-2.51-1.5L26.65,29.63 M26.65,71.56l-1.61-0.14L23.47,71
				l-1.52-0.69l-1.45-0.96l-1.37-1.22l-1.28-1.47l-1.18-1.71l0,0l0,0l0,0l0,0l-1.02-1.84l-0.87-1.99L14.04,59l-0.57-2.23l-0.41-2.32
				l-0.25-2.4l-0.08-2.46l0.08-2.46l0.25-2.4l0.41-2.32l0.57-2.23l0.73-2.12l0.87-1.99l1.02-1.84l1.18-1.71l1.28-1.47l1.37-1.22
				l1.45-0.96l1.52-0.7l1.57-0.42l1.61-0.14l1.62,0.14l1.57,0.42l1.52,0.7l1.45,0.96l1.37,1.22l1.28,1.47l1.18,1.71l1.02,1.84
				l0.87,1.99l0.73,2.12l0.57,2.23l0.41,2.32l0.25,2.4l0.09,2.46l-0.09,2.46l-0.25,2.4l-0.41,2.32L39.26,59l-0.73,2.12l-0.87,1.99
				l-1.02,1.84l0,0l0,0l0,0l0,0l-1.18,1.71l-1.28,1.47l-1.37,1.22l-1.45,0.96L29.84,71l-1.57,0.42L26.65,71.56"/>
		</g>
		<polyline class="st0" points="3.38,86.65 3,87.84 54.36,87.84 54.74,86.65 3.38,86.65 		"/>
		<polyline class="st0" points="65.26,86.09 65.13,86.09 64.8,86.09 64.33,86.09 63.83,86.09 63.37,86.09 63.04,86.09 62.91,86.09 
			62.91,86.09 62.91,86.09 62.91,86.09 62.91,86.09 62.73,86.08 62.57,86.04 62.44,85.98 62.33,85.89 62.25,85.78 62.19,85.64 
			62.18,85.47 62.18,85.47 62.18,85.47 62.18,85.47 62.18,85.47 62.19,85.3 62.25,85.16 62.33,85.05 62.44,84.96 62.57,84.9 
			62.73,84.86 62.91,84.85 62.91,84.85 62.91,84.85 62.91,84.85 62.91,84.85 63.05,84.85 63.42,84.85 63.92,84.85 64.46,84.85 
			64.97,84.85 65.33,84.85 65.48,84.85 65.48,84.85 65.48,84.85 65.48,84.85 65.48,84.85 65.78,84.85 66.03,84.89 66.24,84.96 
			66.4,85.08 66.51,85.25 66.58,85.5 66.6,85.83 66.6,85.83 66.6,85.83 66.6,85.83 66.6,85.83 66.6,86.16 66.6,87.01 66.6,88.17 
			66.6,89.44 66.6,90.6 66.6,91.45 66.6,91.78 66.6,91.78 66.6,91.78 66.6,91.78 66.6,91.78 66.57,92.11 66.46,92.36 66.29,92.53 
			66.06,92.65 65.76,92.71 65.4,92.75 64.99,92.75 64.99,92.75 64.99,92.75 64.99,92.75 64.99,92.75 63.41,92.62 61.93,92.23 
			60.59,91.58 59.46,90.67 58.59,89.5 58.03,88.09 57.83,86.43 57.92,85.42 58.19,84.52 58.62,83.74 59.21,83.09 59.95,82.61 
			60.82,82.31 61.83,82.2 61.83,82.2 61.83,82.2 61.83,82.2 61.83,82.2 62.03,82.2 62.56,82.2 63.29,82.2 64.09,82.2 64.81,82.2 
			65.35,82.2 65.55,82.2 65.55,82.2 65.55,82.2 65.55,82.2 65.55,82.2 65.73,82.21 65.88,82.25 66.02,82.31 66.13,82.4 66.21,82.51 
			66.26,82.66 66.28,82.82 66.28,82.82 66.28,82.82 66.28,82.82 66.28,82.82 66.26,82.99 66.21,83.13 66.13,83.25 66.02,83.34 
			65.88,83.4 65.73,83.44 65.55,83.45 65.55,83.45 65.55,83.45 65.55,83.45 65.55,83.45 65.36,83.45 64.86,83.45 64.19,83.45 
			63.45,83.45 62.77,83.45 62.28,83.45 62.08,83.45 62.08,83.45 62.08,83.45 62.08,83.45 62.08,83.45 61.43,83.51 60.84,83.69 
			60.33,83.99 59.9,84.42 59.59,84.98 59.39,85.67 59.32,86.5 59.32,86.5 59.32,86.5 59.32,86.5 59.32,86.5 59.49,87.85 
			59.97,88.98 60.71,89.9 61.66,90.6 62.77,91.11 63.99,91.41 65.26,91.51 65.26,91.51 65.26,91.51 65.26,91.51 65.26,91.51 
			65.26,91.21 65.26,90.43 65.26,89.38 65.26,88.22 65.26,87.17 65.26,86.39 65.26,86.09 		"/>
		<polyline class="st0" points="69.9,83.45 69.9,83.52 69.9,83.72 69.9,84 69.9,84.3 69.9,84.57 69.9,84.77 69.9,84.85 69.9,84.85 
			69.9,84.85 69.9,84.85 69.9,84.85 70.15,84.85 70.8,84.85 71.69,84.85 72.66,84.85 73.56,84.85 74.21,84.85 74.46,84.85 
			74.46,84.85 74.46,84.85 74.46,84.85 74.46,84.85 74.67,84.86 74.84,84.91 74.97,84.98 75.07,85.07 75.14,85.19 75.18,85.32 
			75.19,85.47 75.19,85.47 75.19,85.47 75.19,85.47 75.19,85.47 75.18,85.62 75.14,85.75 75.07,85.87 74.97,85.96 74.84,86.03 
			74.67,86.08 74.46,86.09 74.46,86.09 74.46,86.09 74.46,86.09 74.46,86.09 74.21,86.09 73.56,86.09 72.66,86.09 71.69,86.09 
			70.8,86.09 70.15,86.09 69.9,86.09 69.9,86.09 69.9,86.09 69.9,86.09 69.9,86.09 69.9,86.39 69.9,87.15 69.9,88.19 69.9,89.32 
			69.9,90.36 69.9,91.12 69.9,91.41 69.9,91.41 69.9,91.41 69.9,91.41 69.9,91.41 70.16,91.41 70.83,91.41 71.75,91.41 72.76,91.41 
			73.68,91.41 74.35,91.41 74.61,91.41 74.61,91.41 74.61,91.41 74.61,91.41 74.61,91.41 74.79,91.43 74.94,91.46 75.08,91.53 
			75.19,91.61 75.27,91.73 75.32,91.87 75.34,92.04 75.34,92.04 75.34,92.04 75.34,92.04 75.34,92.04 75.32,92.21 75.27,92.35 
			75.19,92.46 75.08,92.55 74.94,92.61 74.79,92.65 74.61,92.66 74.61,92.66 74.61,92.66 74.61,92.66 74.61,92.66 74.32,92.66 
			73.55,92.66 72.51,92.66 71.37,92.66 70.32,92.66 69.56,92.66 69.26,92.66 69.26,92.66 69.26,92.66 69.26,92.66 69.26,92.66 
			69.07,92.65 68.91,92.62 68.79,92.55 68.69,92.46 68.62,92.33 68.57,92.17 68.56,91.96 68.56,91.96 68.56,91.96 68.56,91.96 
			68.56,91.96 68.56,91.46 68.56,90.16 68.56,88.38 68.56,86.45 68.56,84.67 68.56,83.37 68.56,82.87 68.56,82.87 68.56,82.87 
			68.56,82.87 68.56,82.87 68.57,82.68 68.6,82.53 68.66,82.41 68.75,82.32 68.86,82.25 69.01,82.21 69.18,82.2 69.18,82.2 
			69.18,82.2 69.18,82.2 69.18,82.2 69.48,82.2 70.26,82.2 71.32,82.2 72.48,82.2 73.54,82.2 74.31,82.2 74.61,82.2 74.61,82.2 
			74.61,82.2 74.61,82.2 74.61,82.2 74.79,82.21 74.94,82.25 75.08,82.31 75.19,82.4 75.27,82.51 75.32,82.66 75.34,82.82 
			75.34,82.82 75.34,82.82 75.34,82.82 75.34,82.82 75.32,82.99 75.27,83.13 75.19,83.25 75.08,83.34 74.94,83.4 74.79,83.44 
			74.61,83.45 74.61,83.45 74.61,83.45 74.61,83.45 74.61,83.45 74.35,83.45 73.68,83.45 72.76,83.45 71.75,83.45 70.83,83.45 
			70.16,83.45 69.9,83.45 		"/>
		<polyline class="st0" points="82.76,86.73 82.36,86.66 81.97,86.58 81.59,86.48 81.21,86.36 80.82,86.2 80.43,86 80.02,85.76 
			80.02,85.76 80.02,85.76 80.02,85.76 80.02,85.76 79.7,85.53 79.41,85.3 79.15,85.06 78.92,84.81 78.71,84.56 78.51,84.3 
			78.32,84.02 78.32,84.02 78.32,84.02 78.32,84.02 78.32,84.02 78.32,84.02 78.31,84.02 78.31,84.02 78.3,84.02 78.3,84.02 
			78.29,84.02 78.29,84.02 78.29,84.02 78.29,84.02 78.29,84.02 78.29,84.02 78.29,84.46 78.29,85.59 78.29,87.13 78.29,88.81 
			78.29,90.35 78.29,91.48 78.29,91.92 78.29,91.92 78.29,91.92 78.29,91.92 78.29,91.92 78.28,92.11 78.24,92.28 78.17,92.43 
			78.08,92.54 77.95,92.63 77.8,92.69 77.62,92.71 77.62,92.71 77.62,92.71 77.62,92.71 77.62,92.71 77.44,92.69 77.29,92.63 
			77.17,92.54 77.07,92.43 77,92.28 76.96,92.11 76.95,91.92 76.95,91.92 76.95,91.92 76.95,91.92 76.95,91.92 76.95,91.42 
			76.95,90.14 76.95,88.39 76.95,86.48 76.95,84.72 76.95,83.44 76.95,82.95 76.95,82.95 76.95,82.95 76.95,82.95 76.95,82.95 
			76.97,82.74 77.02,82.57 77.1,82.42 77.21,82.31 77.36,82.22 77.54,82.17 77.76,82.15 77.76,82.15 77.76,82.15 77.76,82.15 
			77.76,82.15 78.01,82.21 78.28,82.36 78.55,82.58 78.83,82.87 79.13,83.18 79.44,83.51 79.75,83.84 79.75,83.84 79.75,83.84 
			79.75,83.84 79.75,83.84 80.17,84.24 80.59,84.59 81.01,84.89 81.43,85.13 81.87,85.31 82.31,85.43 82.76,85.48 82.76,85.48 
			82.76,85.48 82.76,85.48 82.76,85.48 82.76,85.34 82.76,84.98 82.76,84.49 82.76,83.94 82.76,83.45 82.76,83.09 82.76,82.95 
			82.76,82.95 82.76,82.95 82.76,82.95 82.76,82.95 82.77,82.75 82.81,82.58 82.88,82.44 82.97,82.32 83.1,82.23 83.25,82.17 
			83.43,82.15 83.43,82.15 83.43,82.15 83.43,82.15 83.43,82.15 83.61,82.17 83.76,82.23 83.88,82.32 83.98,82.44 84.05,82.58 
			84.09,82.75 84.1,82.95 84.1,82.95 84.1,82.95 84.1,82.95 84.1,82.95 84.1,83.44 84.1,84.72 84.1,86.48 84.1,88.39 84.1,90.14 
			84.1,91.42 84.1,91.92 84.1,91.92 84.1,91.92 84.1,91.92 84.1,91.92 84.09,92.11 84.05,92.28 83.98,92.43 83.88,92.54 
			83.76,92.63 83.61,92.69 83.43,92.71 83.43,92.71 83.43,92.71 83.43,92.71 83.43,92.71 83.25,92.69 83.1,92.63 82.97,92.54 
			82.88,92.43 82.81,92.28 82.77,92.11 82.76,91.92 82.76,91.92 82.76,91.92 82.76,91.92 82.76,91.92 82.76,91.63 82.76,90.89 
			82.76,89.88 82.76,88.77 82.76,87.76 82.76,87.02 82.76,86.73 		"/>
		<polyline class="st0" points="87.64,83.45 87.64,83.52 87.64,83.72 87.64,84 87.64,84.3 87.64,84.57 87.64,84.77 87.64,84.85 
			87.64,84.85 87.64,84.85 87.64,84.85 87.64,84.85 87.89,84.85 88.54,84.85 89.44,84.85 90.41,84.85 91.3,84.85 91.95,84.85 
			92.2,84.85 92.2,84.85 92.2,84.85 92.2,84.85 92.2,84.85 92.41,84.86 92.58,84.91 92.71,84.98 92.81,85.07 92.88,85.19 
			92.92,85.32 92.93,85.47 92.93,85.47 92.93,85.47 92.93,85.47 92.93,85.47 92.92,85.62 92.88,85.75 92.81,85.87 92.71,85.96 
			92.58,86.03 92.41,86.08 92.2,86.09 92.2,86.09 92.2,86.09 92.2,86.09 92.2,86.09 91.95,86.09 91.3,86.09 90.41,86.09 
			89.44,86.09 88.54,86.09 87.89,86.09 87.64,86.09 87.64,86.09 87.64,86.09 87.64,86.09 87.64,86.09 87.64,86.39 87.64,87.15 
			87.64,88.19 87.64,89.32 87.64,90.36 87.64,91.12 87.64,91.41 87.64,91.41 87.64,91.41 87.64,91.41 87.64,91.41 87.9,91.41 
			88.57,91.41 89.49,91.41 90.5,91.41 91.42,91.41 92.09,91.41 92.35,91.41 92.35,91.41 92.35,91.41 92.35,91.41 92.35,91.41 
			92.53,91.43 92.68,91.46 92.82,91.53 92.93,91.61 93.01,91.73 93.07,91.87 93.08,92.04 93.08,92.04 93.08,92.04 93.08,92.04 
			93.08,92.04 93.07,92.21 93.01,92.35 92.93,92.46 92.82,92.55 92.68,92.61 92.53,92.65 92.35,92.66 92.35,92.66 92.35,92.66 
			92.35,92.66 92.35,92.66 92.06,92.66 91.29,92.66 90.25,92.66 89.11,92.66 88.06,92.66 87.3,92.66 87,92.66 87,92.66 87,92.66 
			87,92.66 87,92.66 86.81,92.65 86.66,92.62 86.53,92.55 86.43,92.46 86.36,92.33 86.32,92.17 86.3,91.96 86.3,91.96 86.3,91.96 
			86.3,91.96 86.3,91.96 86.3,91.46 86.3,90.16 86.3,88.38 86.3,86.45 86.3,84.67 86.3,83.37 86.3,82.87 86.3,82.87 86.3,82.87 
			86.3,82.87 86.3,82.87 86.31,82.68 86.35,82.53 86.4,82.41 86.49,82.32 86.6,82.25 86.75,82.21 86.93,82.2 86.93,82.2 86.93,82.2 
			86.93,82.2 86.93,82.2 87.23,82.2 88,82.2 89.06,82.2 90.22,82.2 91.28,82.2 92.05,82.2 92.35,82.2 92.35,82.2 92.35,82.2 
			92.35,82.2 92.35,82.2 92.53,82.21 92.68,82.25 92.82,82.31 92.93,82.4 93.01,82.51 93.07,82.66 93.08,82.82 93.08,82.82 
			93.08,82.82 93.08,82.82 93.08,82.82 93.07,82.99 93.01,83.13 92.93,83.25 92.82,83.34 92.68,83.4 92.53,83.44 92.35,83.45 
			92.35,83.45 92.35,83.45 92.35,83.45 92.35,83.45 92.09,83.45 91.42,83.45 90.5,83.45 89.49,83.45 88.57,83.45 87.9,83.45 
			87.64,83.45 		"/>
		<path class="st0" d="M96.12,84.86l0.71,0.03l0.64,0.07l0.58,0.12l0.53,0.15l0.49,0.19l0.46,0.21l0.44,0.23l0,0l0,0l0,0l0,0
			l0.2-0.16l0.2-0.18l0.19-0.19l0.17-0.21l0.14-0.23l0.09-0.25l0.03-0.27l0,0l0,0l0,0l0,0l-0.04-0.31l-0.12-0.23l-0.18-0.17
			l-0.22-0.12l-0.25-0.07l-0.27-0.04l-0.28-0.01l0,0l0,0l0,0l0,0h-0.2h-0.51h-0.69h-0.75h-0.69h-0.51h-0.2l0,0l0,0l0,0l0,0v0.08v0.2
			v0.28v0.3v0.28v0.2v0.1 M94.78,82.81l0.01-0.14l0.04-0.13l0.07-0.11l0.09-0.09l0.1-0.07l0.12-0.05l0.13-0.02l0,0l0,0l0,0l0,0h0.26
			h0.68h0.93h1.01h0.93h0.68h0.26l0,0l0,0l0,0l0,0l0.62,0.05l0.53,0.15l0.43,0.24l0.34,0.32l0.24,0.39l0.15,0.44l0.05,0.49l0,0l0,0
			l0,0l0,0l-0.04,0.45l-0.11,0.39l-0.17,0.34l-0.23,0.31l-0.27,0.29l-0.31,0.28l-0.33,0.29l0,0l0,0l0,0l0,0l0.52,0.61l0.48,0.69
			l0.42,0.76l0.35,0.8l0.27,0.82l0.17,0.82l0.06,0.8l0,0l0,0l0,0l0,0l-0.01,0.2l-0.04,0.17l-0.06,0.14l-0.09,0.11l-0.12,0.08
			l-0.15,0.05l-0.18,0.02l0,0l0,0l0,0l0,0l-0.22-0.03l-0.16-0.09l-0.11-0.14l-0.08-0.19l-0.06-0.22l-0.05-0.25l-0.06-0.27l0,0l0,0
			l0,0l0,0l-0.38-1.43l-0.46-1.17l-0.59-0.93l-0.75-0.72l-0.94-0.53l-1.17-0.36l-1.44-0.21l0,0l0,0l0,0l0,0v0.32v0.82v1.13v1.23
			v1.13v0.82v0.32l0,0l0,0l0,0l0,0l-0.01,0.19l-0.04,0.17L96,92.43l-0.09,0.12l-0.12,0.09l-0.15,0.06l-0.18,0.02l0,0l0,0l0,0l0,0
			l-0.18-0.02l-0.15-0.06L95,92.54l-0.09-0.12l-0.07-0.15L94.8,92.1l-0.01-0.19l0,0l0,0l0,0l0,0v-0.5v-1.3v-1.78v-1.94v-1.78v-1.3
			v-0.5"/>
		<path class="st0" d="M111.05,88.05l-0.16-0.57l-0.26-0.66l-0.34-0.71l-0.39-0.72l-0.41-0.69l-0.4-0.62l-0.37-0.51l0,0l0,0l0,0l0,0
			l-0.28,0.37l-0.26,0.39l-0.23,0.41l-0.21,0.42l-0.19,0.44l-0.18,0.45l-0.16,0.46l0,0l0,0l0,0l0,0l0.6,0.05l0.58,0.11l0.57,0.17
			l0.55,0.23l0.53,0.28l0.51,0.34l0.49,0.4l0,0l0,0l0,0l0.01-0.01l0.01-0.01L111.05,88.05L111.05,88.05L111.05,88.05 M105.59,92.19
			l-0.02,0.12l-0.05,0.11l-0.07,0.1l-0.09,0.08l-0.11,0.06l-0.13,0.04l-0.15,0.01l0,0l0,0l0,0l0,0l-0.19-0.01l-0.16-0.04l-0.14-0.06
			l-0.11-0.09l-0.08-0.12l-0.04-0.15l-0.01-0.18l0,0l0,0l0,0l0,0l0.24-1.71l0.48-1.87l0.65-1.88l0.77-1.74l0.83-1.43l0.83-0.97
			l0.77-0.36l0,0l0.63,0.36l0.77,0.97l0.84,1.43l0.82,1.74l0.72,1.88l0.53,1.87l0.27,1.71l0,0l0,0l0,0l0,0l-0.01,0.18l-0.04,0.15
			l-0.08,0.12l-0.11,0.09l-0.14,0.06l-0.16,0.04l-0.19,0.01l0,0l0,0l0,0l0,0l-0.2-0.02l-0.16-0.06l-0.13-0.13l-0.11-0.21l-0.11-0.31
			l-0.11-0.43l-0.14-0.57l0,0l0,0l0,0l0,0l-0.38-1l-0.58-0.78l-0.73-0.59l-0.83-0.43l-0.87-0.28l-0.86-0.16l-0.8-0.07l0,0
			l-0.23,0.62l-0.2,0.63l-0.18,0.65l-0.15,0.65l-0.13,0.66l-0.1,0.66L105.59,92.19"/>
		<polyline class="st0" points="119.64,83.45 119.02,83.46 118.34,83.52 117.66,83.69 117.03,84.02 116.51,84.56 116.15,85.36 
			116.02,86.47 116.02,86.47 116.02,86.47 116.02,86.47 116.02,86.47 116.19,87.77 116.65,88.9 117.38,89.83 118.35,90.57 
			119.5,91.1 120.82,91.42 122.26,91.51 122.26,91.51 122.26,91.51 122.26,91.51 122.26,91.51 122.26,91.51 122.4,91.52 
			122.53,91.56 122.64,91.62 122.73,91.7 122.79,91.8 122.84,91.93 122.85,92.07 122.85,92.07 122.85,92.07 122.85,92.07 
			122.85,92.07 122.85,92.07 122.8,92.32 122.64,92.5 122.41,92.63 122.1,92.7 121.75,92.74 121.35,92.75 120.93,92.75 
			120.93,92.75 120.93,92.75 120.93,92.75 120.93,92.75 119.57,92.6 118.27,92.15 117.07,91.43 116.05,90.47 115.24,89.29 
			114.72,87.91 114.53,86.35 114.53,86.35 114.53,86.35 114.53,86.35 114.53,86.35 114.65,85.25 114.97,84.31 115.46,83.55 
			116.1,82.96 116.85,82.54 117.67,82.28 118.53,82.2 118.53,82.2 118.53,82.2 118.53,82.2 118.53,82.2 118.71,82.2 119.17,82.2 
			119.81,82.2 120.5,82.2 121.13,82.2 121.59,82.2 121.77,82.2 121.77,82.2 121.77,82.2 121.77,82.2 121.77,82.2 121.77,82.2 
			121.94,82.21 122.1,82.25 122.24,82.31 122.35,82.4 122.43,82.51 122.48,82.66 122.5,82.82 122.5,82.82 122.5,82.82 122.5,82.82 
			122.48,82.99 122.43,83.13 122.35,83.25 122.24,83.34 122.1,83.4 121.94,83.44 121.77,83.45 121.77,83.45 121.77,83.45 
			121.77,83.45 121.77,83.45 121.77,83.45 121.65,83.45 121.35,83.45 120.93,83.45 120.48,83.45 120.06,83.45 119.76,83.45 
			119.64,83.45 		"/>
		<polyline class="st0" points="124.22,82.95 124.23,82.75 124.27,82.58 124.34,82.44 124.43,82.32 124.55,82.23 124.7,82.17 
			124.89,82.15 124.89,82.15 124.89,82.15 124.89,82.15 124.89,82.15 124.89,82.15 125.07,82.17 125.22,82.23 125.34,82.32 
			125.43,82.44 125.5,82.58 125.54,82.75 125.55,82.95 125.55,82.95 125.55,82.95 125.55,82.95 125.55,82.95 125.55,82.95 
			125.55,83.44 125.55,84.72 125.55,86.48 125.55,88.39 125.55,90.14 125.55,91.42 125.55,91.92 125.55,91.92 125.55,91.92 
			125.55,91.92 125.55,91.92 125.54,92.11 125.5,92.28 125.43,92.43 125.34,92.54 125.22,92.63 125.07,92.69 124.89,92.71 
			124.89,92.71 124.89,92.71 124.89,92.71 124.89,92.71 124.89,92.71 124.7,92.69 124.55,92.63 124.43,92.54 124.34,92.43 
			124.27,92.28 124.23,92.11 124.22,91.92 124.22,91.92 124.22,91.92 124.22,91.92 124.22,91.92 124.22,91.92 124.22,91.42 
			124.22,90.14 124.22,88.39 124.22,86.48 124.22,84.72 124.22,83.44 124.22,82.95 		"/>
		<path class="st0" d="M135.44,87.43l-0.08-0.91l-0.23-0.85l-0.38-0.76l-0.51-0.64l-0.63-0.49l-0.73-0.32l-0.83-0.11l0,0l0,0l0,0
			l0,0l-0.82,0.11l-0.73,0.32l-0.62,0.49l-0.5,0.64L129,85.68l-0.23,0.85l-0.08,0.91l0,0l0,0l0,0l0,0l0,0l0.08,0.91L129,89.2
			l0.38,0.76l0.5,0.64l0.62,0.49l0.73,0.32l0.82,0.11l0,0l0,0l0,0l0,0l0.83-0.11l0.73-0.32l0.63-0.49l0.51-0.64l0.38-0.76l0.23-0.85
			L135.44,87.43 M127.2,87.4l0.12-1.18l0.36-1.1l0.56-0.98l0.74-0.83l0.9-0.64l1.03-0.41l1.14-0.14l0,0l0,0l0,0l0,0l1.14,0.14
			l1.04,0.41l0.9,0.64l0.75,0.83l0.57,0.98l0.36,1.1l0.13,1.18l0,0l0,0l0,0l0,0l-0.13,1.25l-0.36,1.14l-0.57,0.99l-0.75,0.82
			l-0.91,0.62l-1.04,0.39l-1.14,0.14l0,0l0,0l0,0l0,0l-1.14-0.14l-1.03-0.39l-0.9-0.62l-0.74-0.82l-0.56-0.99l-0.36-1.14L127.2,87.4
			"/>
		<polyline class="st0" points="144.42,86.73 144.02,86.66 143.63,86.58 143.25,86.48 142.87,86.36 142.48,86.2 142.09,86 
			141.68,85.76 141.68,85.76 141.68,85.76 141.68,85.76 141.68,85.76 141.68,85.76 141.36,85.53 141.07,85.3 140.81,85.06 
			140.58,84.81 140.37,84.56 140.17,84.3 139.98,84.02 139.98,84.02 139.98,84.02 139.98,84.02 139.98,84.02 139.98,84.02 
			139.98,84.02 139.98,84.02 139.97,84.02 139.96,84.02 139.96,84.02 139.95,84.02 139.95,84.02 139.95,84.02 139.95,84.02 
			139.95,84.02 139.95,84.02 139.95,84.02 139.95,84.46 139.95,85.59 139.95,87.13 139.95,88.81 139.95,90.35 139.95,91.48 
			139.95,91.92 139.95,91.92 139.95,91.92 139.95,91.92 139.95,91.92 139.94,92.11 139.9,92.28 139.83,92.43 139.74,92.54 
			139.61,92.63 139.46,92.69 139.28,92.71 139.28,92.71 139.28,92.71 139.28,92.71 139.28,92.71 139.1,92.69 138.95,92.63 
			138.83,92.54 138.73,92.43 138.67,92.28 138.63,92.11 138.61,91.92 138.61,91.92 138.61,91.92 138.61,91.92 138.61,91.92 
			138.61,91.42 138.61,90.14 138.61,88.39 138.61,86.48 138.61,84.72 138.61,83.44 138.61,82.95 138.61,82.95 138.61,82.95 
			138.61,82.95 138.61,82.95 138.61,82.95 138.63,82.74 138.68,82.57 138.76,82.42 138.87,82.31 139.02,82.22 139.2,82.17 
			139.42,82.15 139.42,82.15 139.42,82.15 139.42,82.15 139.42,82.15 139.42,82.15 139.67,82.21 139.94,82.36 140.21,82.58 
			140.5,82.87 140.79,83.18 141.1,83.51 141.41,83.84 141.41,83.84 141.41,83.84 141.41,83.84 141.41,83.84 141.41,83.84 
			141.83,84.24 142.25,84.59 142.67,84.89 143.1,85.13 143.53,85.31 143.97,85.43 144.42,85.48 144.42,85.48 144.42,85.48 
			144.42,85.48 144.42,85.34 144.42,84.98 144.42,84.49 144.42,83.94 144.42,83.45 144.42,83.09 144.42,82.95 144.42,82.95 
			144.42,82.95 144.42,82.95 144.43,82.75 144.47,82.58 144.54,82.44 144.64,82.32 144.76,82.23 144.91,82.17 145.09,82.15 
			145.09,82.15 145.09,82.15 145.09,82.15 145.09,82.15 145.09,82.15 145.27,82.17 145.42,82.23 145.55,82.32 145.64,82.44 
			145.71,82.58 145.75,82.75 145.76,82.95 145.76,82.95 145.76,82.95 145.76,82.95 145.76,83.44 145.76,84.72 145.76,86.48 
			145.76,88.39 145.76,90.14 145.76,91.42 145.76,91.92 145.76,91.92 145.76,91.92 145.76,91.92 145.76,91.92 145.75,92.11 
			145.71,92.28 145.64,92.43 145.55,92.54 145.42,92.63 145.27,92.69 145.09,92.71 145.09,92.71 145.09,92.71 145.09,92.71 
			145.09,92.71 144.91,92.69 144.76,92.63 144.64,92.54 144.54,92.43 144.47,92.28 144.43,92.11 144.42,91.92 144.42,91.92 
			144.42,91.92 144.42,91.92 144.42,91.92 144.42,91.63 144.42,90.89 144.42,89.88 144.42,88.77 144.42,87.76 144.42,87.02 
			144.42,86.73 		"/>
		<polyline class="st0" points="158.18,82.2 158.35,82.21 158.51,82.25 158.65,82.31 158.76,82.4 158.84,82.51 158.89,82.66 
			158.91,82.82 158.91,82.82 158.91,82.82 158.91,82.82 158.91,82.82 158.91,82.82 158.89,82.99 158.84,83.13 158.76,83.25 
			158.65,83.34 158.51,83.4 158.35,83.44 158.18,83.45 158.18,83.45 158.18,83.45 158.18,83.45 158.18,83.45 158.18,83.45 
			157.99,83.45 157.5,83.45 156.84,83.45 156.11,83.45 155.45,83.45 154.96,83.45 154.77,83.45 154.77,83.45 154.77,83.45 
			154.77,83.45 154.55,83.45 154.3,83.47 154.05,83.52 153.83,83.61 153.64,83.76 153.51,83.97 153.47,84.27 153.47,84.27 
			153.47,84.27 153.47,84.27 153.47,84.27 153.47,84.27 153.84,84.86 154.81,85.14 156.13,85.29 157.58,85.53 158.9,86.05 
			159.87,87.06 160.25,88.75 160.25,88.75 160.25,88.75 160.25,88.75 160.25,88.75 160.15,89.66 159.87,90.49 159.42,91.22 
			158.8,91.82 158.03,92.27 157.11,92.56 156.07,92.66 156.07,92.66 156.07,92.66 156.07,92.66 156.07,92.66 156.07,92.66 
			155.88,92.66 155.4,92.66 154.75,92.66 154.04,92.66 153.38,92.66 152.91,92.66 152.72,92.66 152.72,92.66 152.72,92.66 
			152.72,92.66 152.72,92.66 152.72,92.66 152.55,92.65 152.39,92.61 152.25,92.55 152.14,92.46 152.06,92.35 152.01,92.21 
			151.99,92.04 151.99,92.04 151.99,92.04 151.99,92.04 151.99,92.04 151.99,92.04 152.01,91.87 152.06,91.73 152.14,91.61 
			152.25,91.53 152.39,91.46 152.55,91.43 152.72,91.41 152.72,91.41 152.72,91.41 152.72,91.41 152.72,91.41 152.72,91.41 
			152.88,91.41 153.31,91.41 153.88,91.41 154.51,91.41 155.09,91.41 155.51,91.41 155.67,91.41 155.67,91.41 155.67,91.41 
			155.67,91.41 155.67,91.41 155.67,91.41 156.53,91.35 157.25,91.18 157.83,90.89 158.27,90.5 158.58,90.02 158.76,89.44 
			158.82,88.78 158.82,88.78 158.82,88.78 158.82,88.78 158.82,88.78 158.44,87.57 157.47,86.93 156.15,86.63 154.71,86.46 
			153.38,86.16 152.41,85.51 152.04,84.28 152.04,84.28 152.04,84.28 152.04,84.28 152.04,84.28 152.1,83.73 152.28,83.27 
			152.56,82.88 152.92,82.58 153.35,82.37 153.83,82.24 154.35,82.2 154.35,82.2 154.35,82.2 154.35,82.2 154.35,82.2 154.35,82.2 
			154.56,82.2 155.11,82.2 155.86,82.2 156.67,82.2 157.42,82.2 157.97,82.2 158.18,82.2 		"/>
		<path class="st0" d="M169.63,87.43l-0.08-0.91l-0.23-0.85l-0.38-0.76l-0.51-0.64l-0.63-0.49l-0.73-0.32l-0.83-0.11l0,0l0,0l0,0
			l0,0l-0.82,0.11l-0.73,0.32l-0.62,0.49l-0.5,0.64l-0.38,0.76l-0.23,0.85l-0.08,0.91l0,0l0,0l0,0l0,0l0,0l0.08,0.91l0.23,0.85
			l0.38,0.76l0.5,0.64l0.62,0.49l0.73,0.32l0.82,0.11l0,0l0,0l0,0l0,0l0.83-0.11l0.73-0.32l0.63-0.49l0.51-0.64l0.38-0.76l0.23-0.85
			L169.63,87.43 M161.39,87.4l0.12-1.18l0.36-1.1l0.56-0.98l0.74-0.83l0.9-0.64l1.03-0.41l1.14-0.14l0,0l0,0l0,0l0,0l1.14,0.14
			l1.04,0.41l0.9,0.64l0.75,0.83l0.57,0.98l0.36,1.1l0.13,1.18l0,0l0,0l0,0l0,0L171,88.65l-0.36,1.14l-0.57,0.99l-0.75,0.82
			l-0.91,0.62l-1.04,0.39l-1.14,0.14l0,0l0,0l0,0l0,0l-1.14-0.14l-1.03-0.39l-0.9-0.62l-0.74-0.82l-0.56-0.99l-0.36-1.14
			L161.39,87.4"/>
		<polyline class="st0" points="177.79,91.41 177.96,91.43 178.12,91.46 178.26,91.53 178.37,91.61 178.45,91.73 178.5,91.87 
			178.52,92.04 178.52,92.04 178.52,92.04 178.52,92.04 178.52,92.04 178.52,92.04 178.5,92.21 178.45,92.35 178.37,92.46 
			178.26,92.55 178.12,92.61 177.96,92.65 177.79,92.66 177.79,92.66 177.79,92.66 177.79,92.66 177.79,92.66 177.79,92.66 
			177.55,92.66 176.95,92.66 176.11,92.66 175.21,92.66 174.38,92.66 173.77,92.66 173.53,92.66 173.53,92.66 173.53,92.66 
			173.53,92.66 173.53,92.66 173.53,92.66 173.37,92.64 173.24,92.59 173.13,92.51 173.06,92.39 173.01,92.25 172.98,92.09 
			172.97,91.9 172.97,91.9 172.97,91.9 172.97,91.9 172.97,91.9 172.97,91.9 172.97,91.41 172.97,90.13 172.97,88.38 172.97,86.47 
			172.97,84.72 172.97,83.44 172.97,82.95 172.97,82.95 172.97,82.95 172.97,82.95 172.97,82.95 172.97,82.95 172.98,82.76 
			173.02,82.59 173.08,82.44 173.17,82.32 173.29,82.23 173.44,82.17 173.64,82.15 173.64,82.15 173.64,82.15 173.64,82.15 
			173.64,82.15 173.64,82.15 173.83,82.17 173.99,82.23 174.11,82.32 174.2,82.44 174.26,82.59 174.3,82.76 174.31,82.95 
			174.31,82.95 174.31,82.95 174.31,82.95 174.31,82.95 174.31,82.95 174.31,83.41 174.31,84.62 174.31,86.28 174.31,88.08 
			174.31,89.74 174.31,90.95 174.31,91.41 174.31,91.41 174.31,91.41 174.31,91.41 174.31,91.41 174.31,91.41 174.5,91.41 
			175,91.41 175.68,91.41 176.42,91.41 177.1,91.41 177.6,91.41 177.79,91.41 		"/>
		<path class="st0" d="M185.77,88.05l-0.16-0.57l-0.26-0.66l-0.34-0.71l-0.39-0.72l-0.41-0.69l-0.4-0.62l-0.37-0.51l0,0l0,0l0,0l0,0
			l-0.28,0.37l-0.26,0.39l-0.23,0.41l-0.21,0.42l-0.19,0.44l-0.18,0.45l-0.16,0.46l0,0l0,0l0,0l0,0l0.6,0.05l0.58,0.11l0.57,0.17
			l0.55,0.23l0.53,0.28l0.51,0.34l0.49,0.4l0,0l0,0l0,0l0,0l0,0l0,0l0.01-0.01l0.01-0.01L185.77,88.05L185.77,88.05L185.77,88.05
			 M180.31,92.19l-0.02,0.12l-0.05,0.11l-0.07,0.1l-0.09,0.08l-0.11,0.06l-0.13,0.04l-0.15,0.01l0,0l0,0l0,0l0,0l-0.19-0.01
			l-0.16-0.04l-0.14-0.06l-0.11-0.09l-0.08-0.12l-0.04-0.15l-0.01-0.18l0,0l0,0l0,0l0,0l0.24-1.71l0.48-1.87l0.65-1.88l0.77-1.74
			l0.83-1.43l0.83-0.97l0.77-0.36l0,0l0,0l0,0l0,0l0.63,0.36l0.77,0.97l0.84,1.43l0.82,1.74l0.72,1.88l0.53,1.87l0.27,1.71l0,0l0,0
			l0,0l0,0l0,0l-0.01,0.18l-0.04,0.15L188,92.51l-0.11,0.09l-0.14,0.06l-0.16,0.04l-0.19,0.01l0,0l0,0l0,0l0,0l0,0l-0.2-0.02
			l-0.16-0.06l-0.13-0.13l-0.11-0.21l-0.11-0.31l-0.11-0.43l-0.14-0.57l0,0l0,0l0,0l-0.38-1l-0.58-0.78l-0.73-0.59l-0.83-0.43
			l-0.87-0.28l-0.86-0.16l-0.8-0.07l0,0l0,0l0,0l0,0l0,0l-0.23,0.62l-0.2,0.63l-0.18,0.65l-0.15,0.65l-0.13,0.66l-0.1,0.66
			L180.31,92.19"/>
		<path class="st0" d="M191.12,84.86l0.71,0.03l0.64,0.07l0.58,0.12l0.53,0.15l0.49,0.19l0.46,0.21l0.44,0.23l0.2-0.16l0.2-0.18
			l0.19-0.19l0.17-0.21l0.14-0.23l0.09-0.25l0.03-0.27l-0.04-0.31l-0.12-0.23l-0.18-0.17l-0.22-0.12l-0.25-0.07l-0.27-0.04
			l-0.28-0.01l0,0l0,0l0,0h-0.2h-0.51h-0.69h-0.75h-0.69h-0.51h-0.2l0,0l0,0l0,0v0.08v0.2v0.28v0.3v0.28v0.2v0.1 M189.78,82.81
			l0.01-0.14l0.04-0.13l0.07-0.11l0.09-0.09l0.1-0.07l0.12-0.05l0.13-0.02l0,0l0,0l0,0h0.26h0.68h0.93h1.01h0.93h0.68h0.26l0,0l0,0
			l0,0l0.62,0.05l0.53,0.15l0.43,0.24l0.34,0.32l0.24,0.39l0.15,0.44l0.05,0.49l0,0l0,0l0,0l0,0l-0.04,0.45l-0.11,0.39l-0.17,0.34
			l-0.23,0.31l-0.27,0.29l-0.31,0.28l-0.33,0.29l0,0l0,0l0,0l0.52,0.61l0.48,0.69l0.42,0.76l0.35,0.8l0.27,0.82l0.17,0.82l0.06,0.8
			l0,0l0,0l0,0l0,0l-0.01,0.2l-0.04,0.17l-0.06,0.14l-0.09,0.11l-0.12,0.08l-0.15,0.05l-0.18,0.02l0,0l0,0l0,0l0,0l0,0l0,0
			l-0.22-0.03l-0.16-0.09l-0.11-0.14l-0.08-0.19l-0.06-0.22l-0.05-0.25l-0.06-0.27l0,0l0,0l0,0l0,0l0,0l0,0l-0.38-1.43l-0.46-1.17
			l-0.59-0.93l-0.75-0.72l-0.94-0.53l-1.17-0.36l-1.44-0.21l0,0l0,0l0,0v0.32v0.82v1.13v1.23v1.13v0.82v0.32l0,0l0,0l0,0l0,0l0,0
			l-0.01,0.19l-0.04,0.17L191,92.43l-0.09,0.12l-0.12,0.09l-0.15,0.06l-0.18,0.02l0,0l0,0l0,0l0,0l0,0l-0.18-0.02l-0.15-0.06
			l-0.13-0.1l-0.09-0.12l-0.07-0.15l-0.04-0.17l-0.01-0.19l0,0l0,0l0,0l0,0v-0.5v-1.3v-1.78v-1.94v-1.78v-1.3v-0.5"/>
		<path class="st0" d="M205.84,91.41h0.14h0.35h0.48h0.52h0.48h0.35h0.14l0,0l0,0l0,0l0,0l0.8-0.04l0.7-0.14l0.59-0.26l0.47-0.4
			l0.34-0.55l0.21-0.73l0.07-0.93l0,0l0,0l0,0l0,0l0,0l0,0l-0.14-1.16l-0.4-1.05l-0.63-0.92l-0.85-0.75l-1.04-0.57l-1.22-0.36
			l-1.37-0.13l0,0l0,0l0,0l0,0v0.44V85v1.56v1.7v1.56v1.14L205.84,91.41 M204.5,82.81l0.03-0.21l0.09-0.17l0.14-0.13l0.2-0.09
			l0.25-0.06l0.31-0.03l0.36-0.01l0,0l0,0l0,0l0,0l1.66,0.15l1.5,0.45l1.3,0.71l1.07,0.95l0.81,1.16l0.51,1.34l0.18,1.5l0,0l0,0l0,0
			l0,0l0,0l0,0l-0.09,1.06l-0.27,0.93l-0.45,0.79l-0.62,0.64l-0.78,0.47l-0.93,0.29l-1.08,0.1l0,0l0,0l0,0l0,0h-0.21h-0.54h-0.74
			h-0.8h-0.74h-0.54h-0.21l0,0l0,0l0,0l0,0l-0.13-0.01l-0.1-0.03l-0.08-0.06l-0.06-0.08l-0.04-0.11l-0.02-0.14l-0.01-0.17l0,0l0,0
			l0,0l0,0l0,0l0,0v-0.51v-1.32v-1.81v-1.97v-1.81v-1.32v-0.5"/>
		<polyline class="st0" points="214.56,82.95 214.58,82.75 214.62,82.58 214.68,82.44 214.78,82.32 214.9,82.23 215.05,82.17 
			215.23,82.15 215.23,82.15 215.23,82.15 215.23,82.15 215.23,82.15 215.41,82.17 215.57,82.23 215.69,82.32 215.78,82.44 
			215.85,82.58 215.89,82.75 215.9,82.95 215.9,82.95 215.9,82.95 215.9,82.95 215.9,82.95 215.9,82.95 215.9,82.95 215.9,83.44 
			215.9,84.72 215.9,86.48 215.9,88.39 215.9,90.14 215.9,91.42 215.9,91.92 215.9,91.92 215.9,91.92 215.9,91.92 215.9,91.92 
			215.9,91.92 215.9,91.92 215.89,92.11 215.85,92.28 215.78,92.43 215.69,92.54 215.57,92.63 215.41,92.69 215.23,92.71 
			215.23,92.71 215.23,92.71 215.23,92.71 215.23,92.71 215.23,92.71 215.23,92.71 215.05,92.69 214.9,92.63 214.78,92.54 
			214.68,92.43 214.62,92.28 214.58,92.11 214.56,91.92 214.56,91.92 214.56,91.92 214.56,91.92 214.56,91.92 214.56,91.92 
			214.56,91.92 214.56,91.42 214.56,90.14 214.56,88.39 214.56,86.48 214.56,84.72 214.56,83.44 214.56,82.95 		"/>
		<polyline class="st0" points="223.63,82.2 223.8,82.21 223.96,82.25 224.09,82.31 224.2,82.4 224.29,82.51 224.34,82.66 
			224.36,82.82 224.36,82.82 224.36,82.82 224.36,82.82 224.36,82.82 224.36,82.82 224.36,82.82 224.34,82.99 224.29,83.13 
			224.2,83.25 224.09,83.34 223.96,83.4 223.8,83.44 223.63,83.45 223.63,83.45 223.63,83.45 223.63,83.45 223.63,83.45 
			223.63,83.45 223.63,83.45 223.44,83.45 222.95,83.45 222.28,83.45 221.56,83.45 220.89,83.45 220.41,83.45 220.22,83.45 
			220.22,83.45 220.22,83.45 220.22,83.45 220.22,83.45 220.22,83.45 220.22,83.45 219.99,83.45 219.75,83.47 219.5,83.52 
			219.27,83.61 219.09,83.76 218.96,83.97 218.91,84.27 218.91,84.27 218.91,84.27 218.91,84.27 218.91,84.27 218.91,84.27 
			218.91,84.27 219.29,84.86 220.26,85.14 221.58,85.29 223.02,85.53 224.35,86.05 225.32,87.06 225.69,88.75 225.69,88.75 
			225.69,88.75 225.69,88.75 225.69,88.75 225.69,88.75 225.69,88.75 225.6,89.66 225.32,90.49 224.86,91.22 224.24,91.82 
			223.47,92.27 222.56,92.56 221.51,92.66 221.51,92.66 221.51,92.66 221.51,92.66 221.51,92.66 221.51,92.66 221.51,92.66 
			221.33,92.66 220.85,92.66 220.2,92.66 219.48,92.66 218.83,92.66 218.35,92.66 218.17,92.66 218.17,92.66 218.17,92.66 
			218.17,92.66 218.17,92.66 218.17,92.66 218.17,92.66 217.99,92.65 217.84,92.61 217.7,92.55 217.59,92.46 217.51,92.35 
			217.46,92.21 217.44,92.04 217.44,92.04 217.44,92.04 217.44,92.04 217.44,92.04 217.44,92.04 217.44,92.04 217.46,91.87 
			217.51,91.73 217.59,91.61 217.7,91.53 217.84,91.46 217.99,91.43 218.17,91.41 218.17,91.41 218.17,91.41 218.17,91.41 
			218.17,91.41 218.17,91.41 218.17,91.41 218.33,91.41 218.75,91.41 219.33,91.41 219.96,91.41 220.53,91.41 220.95,91.41 
			221.12,91.41 221.12,91.41 221.12,91.41 221.12,91.41 221.12,91.41 221.12,91.41 221.12,91.41 221.98,91.35 222.7,91.18 
			223.27,90.89 223.71,90.5 224.02,90.02 224.2,89.44 224.26,88.78 224.26,88.78 224.26,88.78 224.26,88.78 224.26,88.78 
			224.26,88.78 224.26,88.78 223.89,87.57 222.92,86.93 221.6,86.63 220.15,86.46 218.83,86.16 217.86,85.51 217.48,84.28 
			217.48,84.28 217.48,84.28 217.48,84.28 217.48,84.28 217.48,84.28 217.48,84.28 217.55,83.73 217.73,83.27 218,82.88 
			218.37,82.58 218.8,82.37 219.28,82.24 219.79,82.2 219.79,82.2 219.79,82.2 219.79,82.2 219.79,82.2 219.79,82.2 219.79,82.2 
			220.01,82.2 220.55,82.2 221.3,82.2 222.12,82.2 222.87,82.2 223.41,82.2 223.63,82.2 		"/>
		<polyline class="st0" points="230.68,91.92 230.67,92.11 230.63,92.28 230.56,92.43 230.46,92.54 230.34,92.63 230.19,92.69 
			230.01,92.71 230.01,92.71 230.01,92.71 230.01,92.71 230.01,92.71 230.01,92.71 230.01,92.71 229.83,92.69 229.68,92.63 
			229.55,92.54 229.46,92.43 229.39,92.28 229.35,92.11 229.34,91.92 229.34,91.92 229.34,91.92 229.34,91.92 229.34,91.92 
			229.34,91.92 229.34,91.92 229.34,91.45 229.34,90.24 229.34,88.58 229.34,86.78 229.34,85.13 229.34,83.92 229.34,83.45 
			229.34,83.45 229.34,83.45 229.34,83.45 229.34,83.45 229.34,83.45 229.34,83.45 229.21,83.45 228.88,83.45 228.43,83.45 
			227.94,83.45 227.49,83.45 227.16,83.45 227.03,83.45 227.03,83.45 227.03,83.45 227.03,83.45 227.03,83.45 227.03,83.45 
			227.03,83.45 226.85,83.44 226.7,83.4 226.56,83.34 226.45,83.25 226.37,83.13 226.32,82.99 226.3,82.82 226.3,82.82 226.3,82.82 
			226.3,82.82 226.3,82.82 226.3,82.82 226.3,82.82 226.32,82.66 226.37,82.51 226.45,82.4 226.56,82.31 226.7,82.25 226.85,82.21 
			227.03,82.2 227.03,82.2 227.03,82.2 227.03,82.2 227.03,82.2 227.03,82.2 227.03,82.2 227.36,82.2 228.21,82.2 229.38,82.2 
			230.64,82.2 231.81,82.2 232.66,82.2 232.99,82.2 232.99,82.2 232.99,82.2 232.99,82.2 232.99,82.2 232.99,82.2 232.99,82.2 
			233.16,82.21 233.32,82.25 233.46,82.31 233.57,82.4 233.65,82.51 233.7,82.66 233.72,82.82 233.72,82.82 233.72,82.82 
			233.72,82.82 233.72,82.82 233.72,82.82 233.72,82.82 233.7,82.99 233.65,83.13 233.57,83.25 233.46,83.34 233.32,83.4 
			233.16,83.44 232.99,83.45 232.99,83.45 232.99,83.45 232.99,83.45 232.99,83.45 232.99,83.45 232.99,83.45 232.86,83.45 
			232.53,83.45 232.08,83.45 231.59,83.45 231.14,83.45 230.81,83.45 230.68,83.45 230.68,83.45 230.68,83.45 230.68,83.45 
			230.68,83.45 230.68,83.45 230.68,83.45 230.68,83.92 230.68,85.13 230.68,86.78 230.68,88.58 230.68,90.24 230.68,91.45 
			230.68,91.92 		"/>
		<path class="st0" d="M236.3,84.86l0.71,0.03l0.64,0.07l0.58,0.12l0.53,0.15l0.49,0.19l0.46,0.21l0.44,0.23l0,0l0,0l0,0l0,0l0,0
			l0,0l0.2-0.16l0.2-0.18l0.19-0.19l0.17-0.21l0.14-0.23l0.09-0.25l0.03-0.27l0,0l0,0l0,0l0,0l0,0l0,0l-0.04-0.31l-0.12-0.23
			l-0.18-0.17l-0.22-0.12l-0.25-0.07l-0.27-0.04l-0.28-0.01l0,0l0,0l0,0l0,0l0,0l0,0h-0.2h-0.51h-0.69h-0.75h-0.69h-0.51h-0.2l0,0
			l0,0l0,0l0,0l0,0l0,0v0.08v0.2v0.28v0.3v0.28v0.2v0.1 M234.97,82.81l0.01-0.14l0.04-0.13l0.07-0.11l0.09-0.09l0.1-0.07l0.12-0.05
			l0.13-0.02l0,0l0,0l0,0l0,0l0,0l0,0h0.26h0.68h0.93h1.01h0.93h0.68h0.26l0,0l0,0l0,0l0,0l0,0l0,0l0.62,0.05l0.53,0.15l0.43,0.24
			l0.34,0.32l0.24,0.39l0.15,0.44l0.05,0.49l0,0l0,0l0,0l0,0l0,0l0,0l-0.04,0.45l-0.11,0.39l-0.17,0.34l-0.23,0.31l-0.27,0.29
			l-0.31,0.28l-0.33,0.29l0,0l0,0l0,0l0,0l0,0l0,0l0.52,0.61l0.48,0.69l0.42,0.76l0.35,0.8l0.27,0.82l0.17,0.82l0.06,0.8l0,0l0,0
			l0,0l0,0l0,0l0,0l-0.01,0.2l-0.04,0.17l-0.06,0.14l-0.09,0.11l-0.12,0.08l-0.15,0.05l-0.18,0.02l0,0l0,0l0,0l0,0l0,0l0,0
			l-0.22-0.03l-0.16-0.09l-0.11-0.14l-0.08-0.19l-0.06-0.22l-0.05-0.25l-0.06-0.27l0,0l0,0l0,0l0,0l0,0l0,0l-0.38-1.43l-0.46-1.17
			l-0.59-0.93l-0.75-0.72l-0.94-0.53l-1.17-0.36l-1.44-0.21l0,0l0,0l0,0l0,0l0,0l0,0v0.32v0.82v1.13v1.23v1.13v0.82v0.32l0,0l0,0
			l0,0l0,0l0,0l0,0l-0.01,0.19l-0.04,0.17l-0.07,0.15l-0.09,0.12L236,92.65l-0.15,0.06l-0.18,0.02l0,0l0,0l0,0l0,0l0,0l0,0
			l-0.18-0.02l-0.15-0.06l-0.12-0.09l-0.09-0.12l-0.07-0.15l-0.04-0.17l-0.01-0.19l0,0l0,0l0,0l0,0l0,0l0,0v-0.5v-1.3v-1.78v-1.94
			v-1.78v-1.3v-0.52"/>
		<polyline class="st0" points="244.97,82.95 244.98,82.75 245.02,82.58 245.09,82.44 245.18,82.32 245.31,82.23 245.46,82.17 
			245.64,82.15 245.64,82.15 245.64,82.15 245.64,82.15 245.64,82.15 245.64,82.15 245.64,82.15 245.82,82.17 245.97,82.23 
			246.09,82.32 246.19,82.44 246.25,82.58 246.29,82.75 246.31,82.95 246.31,82.95 246.31,82.95 246.31,82.95 246.31,82.95 
			246.31,82.95 246.31,82.95 246.31,83.44 246.31,84.72 246.31,86.48 246.31,88.39 246.31,90.14 246.31,91.42 246.31,91.92 
			246.31,91.92 246.31,91.92 246.31,91.92 246.31,91.92 246.31,91.92 246.31,91.92 246.29,92.11 246.25,92.28 246.19,92.43 
			246.09,92.54 245.97,92.63 245.82,92.69 245.64,92.71 245.64,92.71 245.64,92.71 245.64,92.71 245.64,92.71 245.46,92.69 
			245.31,92.63 245.18,92.54 245.09,92.43 245.02,92.28 244.98,92.11 244.97,91.92 244.97,91.92 244.97,91.92 244.97,91.92 
			244.97,91.92 244.97,91.92 244.97,91.92 244.97,91.42 244.97,90.14 244.97,88.39 244.97,86.48 244.97,84.72 244.97,83.44 
			244.97,82.95 		"/>
		<path class="st0" d="M249.76,91.41h0.16h0.4h0.55h0.6h0.55h0.4h0.16l0,0l0,0l0,0l0,0l0,0l0,0l0.64-0.05l0.51-0.14l0.4-0.22
			l0.29-0.29l0.19-0.35l0.11-0.4l0.03-0.43l0,0l0,0l0,0l0,0l0,0l0,0l-0.17-0.98l-0.47-0.78l-0.69-0.6l-0.85-0.44l-0.94-0.3
			l-0.96-0.19l-0.91-0.1l0,0l0,0l0,0l0,0l0,0l0,0v0.29v0.75v1.03v1.12v1.03v0.75L249.76,91.41 M249.76,83.45v0.08v0.21v0.29v0.31
			v0.29v0.21v0.08l0,0l0,0l0,0l0,0l0,0l0,0l0.62,0.05l0.61,0.08l0.59,0.11l0.55,0.13l0.5,0.14l0.44,0.15l0.37,0.14l0,0l0,0l0,0l0,0
			l0.15-0.16l0.15-0.17l0.13-0.18l0.11-0.19l0.09-0.2l0.06-0.21l0.02-0.22l0,0l0,0l0,0l0,0l-0.05-0.33l-0.13-0.24l-0.2-0.17
			l-0.25-0.11l-0.28-0.07l-0.3-0.03l-0.3-0.01l0,0l0,0l0,0l0,0l0,0l0,0h-0.16h-0.41h-0.56h-0.61h-0.56h-0.41h-0.17 M248.42,82.95
			l0.01-0.17l0.02-0.16l0.04-0.14l0.07-0.12l0.1-0.09l0.14-0.06l0.18-0.02l0,0l0,0l0,0l0,0l0,0l0,0h0.25h0.64h0.88h0.96h0.88h0.64
			h0.25l0,0l0,0l0,0l0,0l0,0l0,0l0.51,0.04l0.45,0.13l0.38,0.21l0.3,0.29l0.22,0.37l0.14,0.44l0.05,0.5l0,0l0,0l0,0l0,0l0,0l0,0
			l-0.02,0.4l-0.07,0.35l-0.11,0.31l-0.15,0.29l-0.19,0.27l-0.23,0.28l-0.26,0.29l0,0l0,0l0,0l0,0l0,0l0,0l0.45,0.41l0.38,0.41
			l0.31,0.42l0.24,0.45l0.17,0.49l0.1,0.54l0.03,0.61l0,0l0,0l0,0l0,0l0,0l0,0l-0.08,0.72l-0.22,0.64l-0.35,0.54l-0.46,0.44
			l-0.56,0.33l-0.65,0.2l-0.72,0.07l0,0l0,0l0,0l0,0l0,0l0,0h-0.21h-0.55h-0.75h-0.82h-0.75h-0.55h-0.21l0,0l0,0l0,0l0,0l0,0l0,0
			l-0.25-0.01l-0.2-0.03l-0.16-0.06l-0.13-0.09l-0.09-0.13l-0.05-0.17l-0.02-0.21l0,0l0,0l0,0l0,0l0,0l0,0v-0.5v-1.29v-1.76v-1.92
			V84.7v-1.29v-0.46"/>
		<polyline class="st0" points="265.25,88.18 265.27,88.34 265.29,88.5 265.31,88.67 265.32,88.84 265.32,89 265.32,89.17 
			265.33,89.33 265.33,89.33 265.33,89.33 265.33,89.33 265.33,89.33 265.21,90.17 264.89,90.91 264.39,91.55 263.74,92.06 
			262.98,92.44 262.14,92.67 261.25,92.75 261.25,92.75 261.25,92.75 261.25,92.75 261.25,92.75 261.25,92.75 261.25,92.75 
			260.36,92.67 259.52,92.44 258.76,92.06 258.11,91.55 257.61,90.91 257.29,90.17 257.18,89.33 257.18,89.33 257.18,89.33 
			257.18,89.33 257.18,89.33 257.18,89.33 257.18,89.33 257.18,89.17 257.18,89 257.19,88.84 257.2,88.67 257.21,88.5 257.23,88.34 
			257.25,88.18 257.25,88.18 257.25,88.18 257.25,88.18 257.25,88.18 257.29,87.88 257.4,87.1 257.54,86.04 257.69,84.88 
			257.84,83.82 257.94,83.05 257.98,82.75 257.98,82.75 257.98,82.75 257.98,82.75 257.98,82.75 257.98,82.75 257.98,82.75 
			258.02,82.58 258.09,82.44 258.17,82.34 258.27,82.25 258.38,82.2 258.49,82.17 258.61,82.15 258.61,82.15 258.61,82.15 
			258.61,82.15 258.61,82.15 258.61,82.15 258.61,82.15 258.77,82.17 258.91,82.21 259.03,82.27 259.13,82.35 259.2,82.46 
			259.24,82.59 259.26,82.73 259.26,82.73 259.26,82.73 259.26,82.73 259.26,82.73 259.22,83.2 259.11,83.99 258.97,84.99 
			258.81,86.1 258.66,87.19 258.56,88.18 258.51,88.94 258.51,88.94 258.51,88.94 258.51,88.94 258.51,88.94 258.51,88.94 
			258.51,88.94 258.6,89.58 258.83,90.13 259.17,90.59 259.62,90.96 260.13,91.23 260.68,91.39 261.25,91.45 261.25,91.45 
			261.25,91.45 261.25,91.45 261.25,91.45 261.25,91.45 261.25,91.45 261.82,91.39 262.37,91.23 262.88,90.96 263.33,90.59 
			263.68,90.13 263.91,89.58 263.99,88.94 263.99,88.94 263.99,88.94 263.99,88.94 263.99,88.94 263.99,88.94 263.99,88.94 
			263.95,88.18 263.84,87.19 263.69,86.1 263.54,84.99 263.39,83.99 263.28,83.2 263.24,82.73 263.24,82.73 263.24,82.73 
			263.24,82.73 263.24,82.73 263.24,82.73 263.24,82.73 263.26,82.59 263.3,82.46 263.38,82.35 263.47,82.27 263.59,82.21 
			263.74,82.17 263.9,82.15 263.9,82.15 263.9,82.15 263.9,82.15 263.9,82.15 263.9,82.15 263.9,82.15 264.01,82.17 264.12,82.2 
			264.23,82.25 264.33,82.34 264.42,82.44 264.48,82.58 264.52,82.75 264.52,82.75 264.52,82.75 264.52,82.75 264.52,82.75 
			264.52,82.75 264.52,82.75 264.56,83.05 264.66,83.82 264.81,84.88 264.96,86.04 265.11,87.1 265.21,87.88 265.25,88.18 		"/>
		<polyline class="st0" points="266.92,82.95 266.93,82.75 266.97,82.58 267.04,82.44 267.14,82.32 267.26,82.23 267.41,82.17 
			267.59,82.15 267.59,82.15 267.59,82.15 267.59,82.15 267.59,82.15 267.59,82.15 267.59,82.15 267.77,82.17 267.92,82.23 
			268.04,82.32 268.14,82.44 268.21,82.58 268.25,82.75 268.26,82.95 268.26,82.95 268.26,82.95 268.26,82.95 268.26,82.95 
			268.26,82.95 268.26,82.95 268.26,83.44 268.26,84.72 268.26,86.48 268.26,88.39 268.26,90.14 268.26,91.42 268.26,91.92 
			268.26,91.92 268.26,91.92 268.26,91.92 268.26,91.92 268.26,91.92 268.26,91.92 268.25,92.11 268.21,92.28 268.14,92.43 
			268.04,92.54 267.92,92.63 267.77,92.69 267.59,92.71 267.59,92.71 267.59,92.71 267.59,92.71 267.59,92.71 267.59,92.71 
			267.59,92.71 267.41,92.69 267.26,92.63 267.14,92.54 267.04,92.43 266.97,92.28 266.93,92.11 266.92,91.92 266.92,91.92 
			266.92,91.92 266.92,91.92 266.92,91.92 266.92,91.92 266.92,91.92 266.92,91.42 266.92,90.14 266.92,88.39 266.92,86.48 
			266.92,84.72 266.92,83.44 266.92,82.95 		"/>
		<path class="st0" d="M271.71,91.41h0.14h0.35h0.48h0.52h0.48h0.35h0.14l0,0l0,0l0,0l0,0l0,0l0,0l0.8-0.04l0.7-0.14l0.59-0.26
			l0.47-0.4l0.34-0.55l0.21-0.73l0.07-0.93l0,0l0,0l0,0l0,0l0,0l0,0l-0.14-1.16l-0.4-1.05l-0.63-0.92l-0.85-0.75l-1.04-0.57
			l-1.22-0.36l-1.37-0.13l0,0l0,0l0,0l0,0l0,0l0,0v0.44V85v1.56v1.7v1.56v1.14L271.71,91.41 M270.37,82.81l0.03-0.21l0.09-0.17
			l0.14-0.13l0.2-0.09l0.25-0.06l0.31-0.03l0.36-0.01l0,0l0,0l0,0l0,0l0,0l0,0l1.66,0.15l1.5,0.45l1.3,0.71l1.07,0.95l0.81,1.16
			l0.51,1.34l0.18,1.5l0,0l0,0l0,0l0,0l0,0l0,0l-0.09,1.06l-0.27,0.93l-0.45,0.79l-0.62,0.64l-0.78,0.47l-0.93,0.29l-1.08,0.1l0,0
			l0,0l0,0l0,0l0,0l0,0h-0.21h-0.54h-0.74h-0.8h-0.74h-0.54h-0.21l0,0l0,0l0,0l0,0l0,0l0,0l-0.13-0.01l-0.1-0.03l-0.08-0.06
			l-0.06-0.08l-0.04-0.11l-0.02-0.14l-0.01-0.17l0,0l0,0l0,0l0,0l0,0l0,0v-0.51v-1.32v-1.81v-1.97v-1.81v-1.32v-0.5"/>
		<path class="st0" d="M286.7,88.05l-0.16-0.57l-0.26-0.66l-0.34-0.71l-0.39-0.72l-0.41-0.69l-0.4-0.62l-0.37-0.51l0,0l0,0l0,0l0,0
			l0,0l0,0l-0.28,0.37l-0.26,0.39l-0.23,0.41l-0.21,0.42l-0.19,0.44l-0.18,0.45l-0.16,0.46l0,0l0,0l0,0l0,0l0,0l0,0l0.6,0.05
			l0.58,0.11l0.57,0.17l0.55,0.23l0.53,0.28l0.51,0.34l0.49,0.4l0,0l0,0l0,0l0,0l0,0l0,0l0,0l0,0l0.01-0.01l0.01-0.01L286.7,88.05
			L286.7,88.05L286.7,88.05 M281.24,92.19l-0.02,0.12l-0.05,0.11l-0.07,0.1l-0.09,0.08l-0.11,0.06l-0.13,0.04l-0.15,0.01l0,0l0,0
			l0,0l0,0l0,0l0,0l-0.19-0.01l-0.16-0.04l-0.14-0.06l-0.11-0.09l-0.08-0.12l-0.04-0.15l-0.01-0.18l0,0l0,0l0,0l0,0l0,0l0,0
			l0.24-1.71l0.48-1.87l0.65-1.88l0.77-1.74l0.83-1.43l0.83-0.97l0.77-0.36l0,0l0,0l0,0l0,0l0,0l0,0l0.63,0.36l0.77,0.97l0.84,1.43
			l0.82,1.74l0.72,1.88l0.53,1.87l0.27,1.71l0,0l0,0l0,0l0,0l0,0l0,0l-0.01,0.18l-0.04,0.15l-0.08,0.12l-0.11,0.09l-0.14,0.06
			l-0.16,0.04l-0.19,0.01l0,0l0,0l0,0l0,0l0,0l0,0l-0.2-0.02l-0.16-0.06l-0.13-0.13l-0.11-0.21l-0.11-0.31l-0.11-0.43l-0.14-0.57
			l0,0l0,0l0,0l0,0l0,0l0,0l-0.38-1l-0.58-0.78l-0.73-0.59l-0.83-0.43l-0.87-0.28l-0.86-0.16l-0.8-0.07l0,0l0,0l0,0l0,0l0,0l0,0
			l-0.23,0.62l-0.2,0.63l-0.18,0.65l-0.15,0.65l-0.13,0.66l-0.1,0.66L281.24,92.19"/>
	</g>
</g>
</svg>
