<?xml version="1.0" encoding="UTF-8"?>
<svg id="Capa_1" data-name="Capa 1" xmlns="http://www.w3.org/2000/svg" viewBox="0 0 402.28 803.79">
  <defs>
    <style>
      .cls-1 {
        fill-rule: evenodd;
      }

      .cls-1, .cls-2, .cls-3 {
        fill: #afafaf;
        stroke: #fff;
      }

      .cls-3 {
        stroke-width: 2px;
      }

      .cls-4 {
        fill: #3a3a3a;
      }
    </style>
  </defs>
  <g id="Region_Arica_Parinacota" data-name="Region Arica Parinacota">
    <g id="Provincia_Arica" data-name="Provincia Arica">
      <path id="Arica" class="cls-1" d="m117.07,38.79l-9.47,7.75-5.91-.81-2.03,2.38v2.47l1.31.75v5.19l2.16,3.62.09,2.53-1.06,2.41-1.94,3.81-1.62,2.44-5.66,5.09h-3.78l-4.72,2.66-2.5.09c-3.61-1.05-6.89-1.07-8.78,1.53,2.96,2.43,5.11,4.63,3,8.38-.38.98-.51,2.05-1.44,2.75-.86-.26,1.42,1.21.28,2.53-.85.69-.05,1.73.12,2.53.35.75.12,1.65-.47,2.03.31.79,1.09,1.96-.19,2.31-.5,2.47-.04,1.89.03,2.81,0,.5-.11,1.02.06,1.5.7.33.14.98.12,1.72s.53.97.75,1.88c.24,1.05.84,1.85,1.06,2.91,1.09,1.32.08,1.24.06,2.16,0,.38,1.1,1.52,1.25,1.81.39.84.58,1.73.81,2.62.11.43,0,.48.59,1.06.42.77.03,1.77-.59,2.31.96.73-.5,2.17-.56,2.41,4.96-2.56,7.23-4.44,9.75-6.03,2.93-.5,4.71-1.76,6.34-3.12,1.88.74,4.11-1.04,6.09-.09,4.09-1.53,5.31-.98,7.94-1.47,3.06-.2,3.07.2,4.12.41,1.88-.03,4.57-.62,4.62.56.48-.18.99-.08,1.47-.25.93-.15,1.25.68,1.25,1.41.38,1.36,2.01.98,3.12,1.16,1.17.45,1.02,1.65,1.91,2.41.71-.16,1.27-.82,1.97-1.16,1.27-.28,3.4-1.25,4.62-1.41.82-.14,2.12.31,2.56-.56.35-.77,1.72-1.1,1.56-2.06l.41.06c1.22-.59,1.1-2.45,2.72-2.06.55-1.01.96-.72,1.09-.59.24.23.27-.72.41-1.06.22-.29.55-.15.84-.06-.13-.76,1.15-2.14,1.56-2.53-.18-.11-.69-2.74-1.34-4.31-2.97-4.42-1.27-4.3-2.56-6.59.57-1.86-2.77-2.27-.75-3.41-.33-2.14,1.51-5.29-.38-6.81-1.06-2.09-1.89-5.06-.47-7.03-1.13-.66-1.88-1.41-1.12-2.72,1.2-3.17-3.06-1.71-3.03-4.31-2.05-2.02,1.63-2.63,2.16-4.34,2.03-.68.98-2.37-.5-2.66-1.03-2.28-3.56-1.58-5.66-2.47-1.39,1.03-1.75-1.86-2.16-.91-.61-.17-1.09-.57-1.44-1.09-.85-1.28-.97-3.31-.41-4.56,1.14-2.85-2.12-4.33-1.66-6.75l-6.06-6.09v-5.09Zm25.38,69.16s.02.04.03.03c.18-.2.12-.17-.03-.03Z"/>
    </g>
  </g>
  <g id="Region_Tarapaca" data-name="Region Tarapaca">
    <g id="Provincia_Tamarugal" data-name="Provincia Tamarugal">
      <path id="path3437" class="cls-1" d="m140.44,109.39c-.15,0-.3.01-.41.16-.14.34-.17,1.29-.41,1.06-.13-.12-.54-.41-1.09.59-1.62-.38-1.5,1.47-2.72,2.06l-.41-.06c.16.96-1.21,1.29-1.56,2.06-.44.87-1.74.43-2.56.56-1.22.16-3.35,1.13-4.62,1.41-.7.34-1.26.99-1.97,1.16-.89-.75-.74-1.96-1.91-2.41-1.11-.18-2.75.21-3.12-1.16,0-.73-.32-1.55-1.25-1.41-.48.17-.99.07-1.47.25-.05-1.18-2.75-.6-4.62-.56-1.05-.2-1.07-.61-4.12-.41-2.63.49-3.85-.06-7.94,1.47-1.98-.95-4.22.84-6.09.09-1.63,1.37-3.41,2.62-6.34,3.12-2.52,1.59-4.79,3.47-9.75,6.03.23.62.37,1.08.19,1.88s.19,2,.19,2l1.47.91c-.26.86-.17,1.22-.06,1.53.82.59,1.07,1.01,1.09,2.06.07.85.66,1.6.91,2.44s.06,1.76.62,2.44c-.89,4.1.33,3.72-.12,4.22-.37.76-1.02.88-1.75.72,1.04.88,1.91,1.85,3.28,2.56-.31.55.06,1.27.47,2l-.62.28,1.25,1.38c-.08,1.8.01,3.53-.41,5.5.2,1.13,2.29.98,1.03,3.25.58,1.23.15,2.46.22,3.69l.47.53.06,1.75s.53.19-.59,3.31c-.81,2.98-.91-.73-1.41,4.25.24,4.8,1.96-.49,1.22,7.84,0,.42-2.14,1.64-1.88,2.09.27.45.06,1.03,1.06,1.44.3,1.63.09,3.88-.31,4.78s-1.2.74-1.34,1.66c0,1.34.29,2.47-.25,4.12-.12,1.7,1.03,2.08.19,3.34.48,1.03-.02,1.32-.19,1.88.53.61,1.07,1.25-.06,2.03.26.95,1.02,1.91-.16,2.81.37.26.68.61.88,1.16.79.09,1.2.68,1.66,1.22-.08,2.21,1.29,5.4-.09,5.53-.5.05-.26,1.91-.56,2.47.29.99.54,2.45.94,2.53.45.17,2.47,1.19.75,2.84.31.51.89.46.94,1.56.25.19.19.51.16.81.64.46.9,1.06.66,1.81.95,1.21.6,1.99.47,2.19.12.06,1.46,1.78,1,2.09.04.48.05,1.03-.56,1.41-.17.17-.34.08-.53.22-.2.15-.21.13-.31.34.65,1.29.38.83.41,1.41.09.41-.18.4.91,1.47.03.23,0,.43-.03.66.06.3.18.57.38.81.3-.15.56-.59,1-.59,1.24.37,1.2.91,2.53.09.75-.17,1.56-.28,2.31-.38v-.03l.59.06c1.35.39,1.96.89,4.41.84,1.03.26,1.76.34,2.53-.44.61,0,1.17.08,1.62.53.76.71,2.11.91,3.03,1.09.68.25.99,1.12,1.38,1.69.31.72.7,1.35,1.09,2.03.53.74,1,1.55,1.62,2.22.37.55.39,1.26.84,1.78.24.51.47.95,1,1.19l11.19-12.38,20.03-6.53,15.5-9.59,1.53-6.25c-.96-.37-1.28-1.51-2.16-1.97-.56-.54-.35-1.35-.69-2-.2-.84.42-1.65.06-2.47.01-.69.52-1.34,0-2.03-.48-.76.58-1.71-.03-2.41.55-.02.82.47,1.25-1.34.73-1.03,1.15-1.41,1.72-1.72.17.06,1.76-.37,2.06-1.25-.33-.32-1.26-.5-1.44-.94-.25-.62-.46-.74-1.09-.69-1.18-.11-.76-1.55-1.94-1.56-2.09.34-1.53-.51-2.69-1.28-.48-.3-1.13-1.21-1.75-1.25l-1.09.03-3.75-3.25v-4.72l.41.09c.12-.02,1.21-.16,1.62-.22.46-.06,1.01,0,1.38-.31.45.28.3-1.48.06-2.19-.17-.46-.45-.23-.84-.78-.43-.32-.57-.59-.44-1.09.2-.62-.32-1.08-.62-1.53-.34-.55.53-.88.28-1.41-.21-.77-.09-1.24.47-1.72-.45-.6-.09-1.52-.56-1.91-.5-.05-1.52,0-1.78-.56-.13.07-.73.56-1.12.22l.72-2.66,2.94-.25,2.34-.97h3.34l2.06-5.47-1.31-1.44.94-3.06-3.22-.72c-.07-.54-1.56-3-2.5-3.19-.44-.97-1.66-.33-2.06-1,.65-.5.47-.53.44-.53.2-.48.13-.97,1.66-1.44.45-.22.99-.09,1.47-.34l.09-.84.66-.38-.12-.66,1.62-2.69.69-.31,5.62-7.56c1-.25,1.79-.59,1.44-1.41l-5.84-5.44-3.69-1.12c-.44-.31-.3-.71-.44-1.03-2-2.04-3.94-4.22-6.03-6.16-1.09-2.38-3.66-3.08-6-3.81-1.1-2.06-1.44-4.28-3.12-5.78-.15-.04-.29-.08-.44-.09Z"/>
    </g>
  </g>
  <g id="Region_Antofagasta" data-name="Region Antofagasta">
    <g id="Provincia_El_Loa" data-name="Provincia El Loa">
      <path id="Calama" class="cls-1" d="m162.79,208.85l-1.19.22-1.53,6.25-15.41,9.5-2.22.78v.03l-17.69,5.69-11.12,12.31c-.53-.23-.76-.68-1-1.19-.46-.52-.47-1.2-.84-1.75-.63-.66-1.1-1.48-1.62-2.22-.39-.68-.79-1.28-1.09-2-.39-.57-.67-1.44-1.34-1.69-.91-.18-2.28-.39-3.03-1.09-.45-.45-.99-.5-1.59-.5-.76.77-1.51.67-2.53.41-.55.01-1.01,0-1.41-.03-.07,0-.12-.02-.19-.03-1.21-.15-1.8-.5-2.78-.78-.93.05-1.93.13-2.88.34-1.33.81-1.3.27-2.53-.09-.44,0-.91.27-1,.59-.11.37-.65,1.02-1.97,1.53-.76.81-.99,1.85-.12,3.31l-.88,1.34c-.32,1.66-.02,3.49-2.81,4.53.03,1.36-.2,3,.75,3.44l-.88,1.94c1.48,4.81.07,6.47-2.31,7.09.62.98,2.96,1.62.62,3.19-.13,1.92-1.13,4,.22,5.62-1.36,1.71-1.88,3.41-1.94,5.12.43,2.15-.09,4.78-.25,7.22-.23,1.01-.87,1.82.12,3.44-1.45,2.01-1.01,3.81.47,5.5-.73,1.44-.8,2.94-1.53,2.81-.83,1.23-.45,1.85,0,2.44.74.77.48,1.57-.41,2.34.11.22.5,4.74-1.06,6.38-1.19,2.37.55,3.48.94,4.56-.41,2.19-1.74,8.79-8.94,10.84-2.27-.22-1.77-2.21-1.91-3.59-1.92.11-3.99,3.41-3.41,4.94,1.42,1.45,1.07,3.07.19,4.75-.31.62-.38,1.37-.38,2.47,0,.63.56,1.67.56,2.28,0,.67.31,2,.19,2.47-.39,2.28-.26,6.33-1.5,6.09-.36,1.43.42.87,1.69,1.5,1.22.61,2.29.8,2.88-.38.09-.19.14-2.69.94-2.09.71.53,2.04.16,2.84.97,2.6,2.67,2.42,4.96,2.28,8.53-.47,1.26-1.32,1.34-1.5,2.69-.65,1.31-1.61,3.08-2.5,3.97-.37.37-1.19,1.47-.94,2.47.22.86-1.13,1.34-.38,2.09.5.5,2.18.67,1.31,1.53-1.1,5.44.25,5.45.41,8-.16.31-1.08,2.03-.97,2.47.19,1.48-.71,3.08-.94,4.56-.38,2.22-1.38,3.92-2.28,6.06.25.74,1.39,2.19,1.12,3.25-.52,1.9-.93,3.79-1.31,5.69-.61.42-.32,1.15.12,2.03.77,1.52,1.96,3.51-.5,5.38.54,3.47.71,5.07,2.28,9.91.37,2.47,1.08,4.43,2.47,6.47.76,1.86-.37,3.07-1.16,4.38.12.46.83,1.53,1.53,2.47.94,1.31,2.07,2.91,1.72,4.56-.3,1.22-.86,2.04-1.16,3.22-.34,1.35.4,2.27-.19,3.44-.42.84-.63,1.05-1.53,1.5-1.35.94-1.5,2.37-2.28,3.81-.62,1.31-3.76,1.6-3.59,3.81-.59,1.7-.53,3.43-1.72,4.75-.95,1.25-3.16,2.37-1.72,4.19,2.18,3.12-1.82,1.84-1.5,3.59-1.03.46-1.67,1.83.38,4.75.95,1.55,2.01,2.47,3.03,3.81.68,1.87.64,3.41-.19,5.31.3-.02.42.19.56.38,1.38,1.17,2.37-1.36,3.25-3.59,3.45.73,4.98-.9,6.44-2.66,1.78-.65,4.81,1.74,4.78-3.44,1.16.39,3.23-.75,3.03,1.91l2.84.56,5.12.78,2.09-1.53c.79-.87,2.82-1.14,4.56-1.53.45.72,1.47,1.62,3.44,2.84l.94-1.69c1.37,1.31,4.18.45,6.47.38.76,1.62,6.01.23,10.09,1.53l-.41-2.5c1.31.65,1.55-.13,1.34-1.5,1.37.29,2.77.63,2.66-.56.76-.23,1.52-.61,2.28,1.12l5.72-2.28c5.86.16,6.88-1.59,7.78-3.41,2.13-1.08,2.3-2.17,1.91-3.25,2.73.02.53-1.8-.56-3.22.27-1.47.14-2.79-2.09-3.25l2.84-1.69c1.93-1.67,2.55-3.54.94-5.72,1.5-.51.81-1.46-.19-2.47l2.28-.19c.76,1.09,2.04,1.13,3.81.19h3.62c2.59,2.29,5.19-1.99,7.78-3.81,1.69-.34,4.3-.22,4.06-1.31-.02-1.55.59-2.93,2.16-3.78.86-1.25-1.58-3.26.81-3.72.89-1.88,2.69-1.05,4.19-.5,1.82-.27,1.98-3.04.75-4.19-.87-1.57-2.11-2.93-2.47-4.75-.94-1.44-1.15-3.28-2.94-3.97-1.7-.73-1.67-2.87-2.94-4.03-1.25-1.32,1.53-2.14,1.78-3.59,1.11-1.27.72-3.76,1.69-4.97,1.98.69,2.49-1.38,2.84-2.88.5-1.27.58-3.26,2.41-3.25,1.3-.37,3.33.55,3.69-1.34.64-.74.97-1.68,1.66-2.38s7.03-2.78,7.03-2.78l35.94-14.34,15.97-52.66-8-8.75-16.91,4.19-11.84-1.28c-.89-1.64-4.78-.89-3.19-3.75.85-2.03-.65-3.29-1.12-3.59.77.17,1.12-2.57.5-4.34.69-1.58,3.48-4.29.59-5.28-2.35-1.5-.36-4.99-2.41-6.69-.12-.14-.19-.29-.28-.44.16.11.13-.32-.22-.44,0,0-.03,0-.03,0-.03-.06-.03-.1-.06-.19,0-.01,0-.02,0-.03.3-.22.02-.27-.03-.09-.46-1.53.03-3.38.12-5.09.51-2.2-1.96-3.92-1.03-6.19,1.3-1.36-.52-2.1-.75-2.94-.39-1.43-1.84-1.94-2.09-2.16-.59-.69-1.8-1.7-2.59-2.16l-.38-.66.12-10.16-1.84-2.19-.59-1.97-3.19-3.91v-15.91l-5.03-9.53-6.22-8.81-2.94-.12Z"/>
    </g>
  </g>
  <g id="svg_2" data-name="svg 2">
    <g id="svg_4" data-name="svg 4">
      <path id="Calama-2" data-name="Calama" class="cls-1" d="m162.79,208.85l-1.19.22-1.53,6.25-15.41,9.5-2.22.78v.03l-17.69,5.69-11.12,12.31c-.53-.23-.76-.68-1-1.19-.46-.52-.47-1.2-.84-1.75-.63-.66-1.1-1.48-1.62-2.22-.39-.68-.79-1.28-1.09-2-.39-.57-.67-1.44-1.34-1.69-.91-.18-2.28-.39-3.03-1.09-.45-.45-.99-.5-1.59-.5-.76.77-1.51.67-2.53.41-.55.01-1.01,0-1.41-.03-.07,0-.12-.02-.19-.03-1.21-.15-1.8-.5-2.78-.78-.93.05-1.93.13-2.88.34-1.33.81-1.3.27-2.53-.09-.44,0-.91.27-1,.59-.11.37-.65,1.02-1.97,1.53-.76.81-.99,1.85-.12,3.31l-.88,1.34c-.32,1.66-.02,3.49-2.81,4.53.03,1.36-.2,3,.75,3.44l-.88,1.94c1.48,4.81.07,6.47-2.31,7.09.62.98,2.96,1.62.62,3.19-.13,1.92-1.13,4,.22,5.62-1.36,1.71-1.88,3.41-1.94,5.12.43,2.15-.09,4.78-.25,7.22-.23,1.01-.87,1.82.12,3.44-1.45,2.01-1.01,3.81.47,5.5-.73,1.44-.8,2.94-1.53,2.81-.83,1.23-.45,1.85,0,2.44.74.77.48,1.57-.41,2.34.11.22.5,4.74-1.06,6.38-1.19,2.37.55,3.48.94,4.56-.41,2.19-1.74,8.79-8.94,10.84-2.27-.22-1.77-2.21-1.91-3.59-1.92.11-3.99,3.41-3.41,4.94,1.42,1.45,1.07,3.07.19,4.75-.31.62-.38,1.37-.38,2.47,0,.63.56,1.67.56,2.28,0,.67.31,2,.19,2.47-.39,2.28-.26,6.33-1.5,6.09-.36,1.43.42.87,1.69,1.5,1.22.61,2.29.8,2.88-.38.09-.19.14-2.69.94-2.09.71.53,2.04.16,2.84.97,2.6,2.67,2.42,4.96,2.28,8.53-.47,1.26-1.32,1.34-1.5,2.69-.65,1.31-1.61,3.08-2.5,3.97-.37.37-1.19,1.47-.94,2.47.22.86-1.13,1.34-.38,2.09.5.5,2.18.67,1.31,1.53-1.1,5.44.25,5.45.41,8-.16.31-1.08,2.03-.97,2.47.19,1.48-.71,3.08-.94,4.56-.38,2.22-1.38,3.92-2.28,6.06.25.74,1.39,2.19,1.12,3.25-.52,1.9-.93,3.79-1.31,5.69-.61.42-.32,1.15.12,2.03.77,1.52,1.96,3.51-.5,5.38.54,3.47.71,5.07,2.28,9.91.37,2.47,1.08,4.43,2.47,6.47.76,1.86-.37,3.07-1.16,4.38.12.46.83,1.53,1.53,2.47.94,1.31,2.07,2.91,1.72,4.56-.3,1.22-.86,2.04-1.16,3.22-.34,1.35.4,2.27-.19,3.44-.42.84-.63,1.05-1.53,1.5-1.35.94-1.5,2.37-2.28,3.81-.62,1.31-3.76,1.6-3.59,3.81-.59,1.7-.53,3.43-1.72,4.75-.95,1.25-3.16,2.37-1.72,4.19,2.18,3.12-1.82,1.84-1.5,3.59-1.03.46-1.67,1.83.38,4.75.95,1.55,2.01,2.47,3.03,3.81.68,1.87.64,3.41-.19,5.31.3-.02.42.19.56.38,1.38,1.17,2.37-1.36,3.25-3.59,3.45.73,4.98-.9,6.44-2.66,1.78-.65,4.81,1.74,4.78-3.44,1.16.39,3.23-.75,3.03,1.91l2.84.56,5.12.78,2.09-1.53c.79-.87,2.82-1.14,4.56-1.53.45.72,1.47,1.62,3.44,2.84l.94-1.69c1.37,1.31,4.18.45,6.47.38.76,1.62,6.01.23,10.09,1.53l-.41-2.5c1.31.65,1.55-.13,1.34-1.5,1.37.29,2.77.63,2.66-.56.76-.23,1.52-.61,2.28,1.12l5.72-2.28c5.86.16,6.88-1.59,7.78-3.41,2.13-1.08,2.3-2.17,1.91-3.25,2.73.02.53-1.8-.56-3.22.27-1.47.14-2.79-2.09-3.25l2.84-1.69c1.93-1.67,2.55-3.54.94-5.72,1.5-.51.81-1.46-.19-2.47l2.28-.19c.76,1.09,2.04,1.13,3.81.19h3.62c2.59,2.29,5.19-1.99,7.78-3.81,1.69-.34,4.3-.22,4.06-1.31-.02-1.55.59-2.93,2.16-3.78.86-1.25-1.58-3.26.81-3.72.89-1.88,2.69-1.05,4.19-.5,1.82-.27,1.98-3.04.75-4.19-.87-1.57-2.11-2.93-2.47-4.75-.94-1.44-1.15-3.28-2.94-3.97-1.7-.73-1.67-2.87-2.94-4.03-1.25-1.32,1.53-2.14,1.78-3.59,1.11-1.27.72-3.76,1.69-4.97,1.98.69,2.49-1.38,2.84-2.88.5-1.27.58-3.26,2.41-3.25,1.3-.37,3.33.55,3.69-1.34.64-.74.97-1.68,1.66-2.38s7.03-2.78,7.03-2.78l35.94-14.34,15.97-52.66-8-8.75-16.91,4.19-11.84-1.28c-.89-1.64-4.78-.89-3.19-3.75.85-2.03-.65-3.29-1.12-3.59.77.17,1.12-2.57.5-4.34.69-1.58,3.48-4.29.59-5.28-2.35-1.5-.36-4.99-2.41-6.69-.12-.14-.19-.29-.28-.44.16.11.13-.32-.22-.44,0,0-.03,0-.03,0-.03-.06-.03-.1-.06-.19,0-.01,0-.02,0-.03.3-.22.02-.27-.03-.09-.46-1.53.03-3.38.12-5.09.51-2.2-1.96-3.92-1.03-6.19,1.3-1.36-.52-2.1-.75-2.94-.39-1.43-1.84-1.94-2.09-2.16-.59-.69-1.8-1.7-2.59-2.16l-.38-.66.12-10.16-1.84-2.19-.59-1.97-3.19-3.91v-15.91l-5.03-9.53-6.22-8.81-2.94-.12Z"/>
    </g>
  </g>
  <g id="Region_Atacama" data-name="Region Atacama">
    <g id="Provincia_Chanaral" data-name="Provincia Chanaral">
      <path id="Diego_de_Almagro" data-name="Diego de Almagro" class="cls-1" d="m159.79,424.16c-.01.11-.03.27-.06.41.06-.11.08-.26.06-.41Zm-.09.44c-.47.74-2.63.7-4.09,1-2.6,1.82-5.18,6.11-7.78,3.81h-3.62c-1.77.94-3.06.9-3.81-.19l-2.28.19c1,1.01,1.69,1.96.19,2.47,1.62,2.18.99,4.04-.94,5.72l-2.88,1.72c2.24.46,2.37,1.75,2.09,3.22,1.09,1.42,3.33,3.27.59,3.25.39,1.08.22,2.17-1.91,3.25-.9,1.82-1.94,3.57-7.81,3.41l-5.72,2.31c-.76-1.74-1.52-1.39-2.28-1.16.11,1.19-1.29.85-2.66.56.21,1.37-.03,2.18-1.34,1.53l.38,2.47c-4.09-1.3-9.33.12-10.09-1.5-2.29.07-5.1.9-6.47-.41l-.97,1.72c-1.97-1.23-2.95-2.12-3.41-2.84-1.75.39-3.8.66-4.59,1.53l-2.09,1.5-5.12-.75-2.88-.56c.2-2.66-1.87-1.51-3.03-1.91.03,5.19-2.96,2.76-4.75,3.41-1.46,1.76-3.05,3.42-6.5,2.69-.88,2.24-1.84,4.76-3.22,3.59-1.28,1.9-.3,2.11-.03,2.84,1.01.38,1.57,1.39.34,1.97-.27.86,1.27,1.55.25,2.34-.26,1.15,1.43,1.88.78,3.09-.49.48-1.66,1.41-.34,1.72,1.09-.05,1.71.68,1.66,1.75.43,1.43-2.09.42-1.78,1.78.4.97-1.35.36-1.06,1.53-.94.81,1.03,1.56.19,2.56-.58.74-.89,1.69-.94,2.62.02.96.54,1.75,1.16,2.44.56.81.17,1.88-.88,1.78-.15.8.43,2.32-.81,2.38-.04-.02-.06,0-.06,0-.04.04.61.63-.09,1.44-.81.92-2.23,2.19-.78,3.28,1.47,1.55-1.18.61-1.28,1.5-.29,1.83-1.37,3.45-2.09,5.12-1.43,1.32,1.19,2.69,1,4.06-1.48,1.13,1.28.29.56,1.5-1.71,1.28-.65,3.48-2.16,4.69-1.33.52-.73,1.99-1.72,2.66-1.15,2.24-2.86-1.98-3.59-.34-.09,1.36-2.49,3.26-.69,4.25,1.93.49-.12,1.81.66,2.97,1.23,1.05,1.95,3.24.12,4.16-1.6,1.59,1.3,2.76,1.28,4.19.24,1.58,2.5,2.62,1.88,4.44-.58,1.77-.82,3.67-.75,5.47-1.73-.05-.2,2.16-1.66,2.06-1.3-.08-.9-.39-.62.5-.59-1.55-1.43,1.39-1.84.78-1.08-.46-1.57-2.78-1.47-1.62-.24.68.01,2.66-.34,3.31-.77,1.4-2.03,3.54-1.91,5.28-1.94.9-.52,2.74-1.47,4.25.86.98-.42,1.83-.47,2.53-.82.55-.63,1.04-.69,2.06.72,1.44-.34,2.77.06,3.5-.31.8-1.65,1.47-1.44,2.34.76.2,1.26.2.94,1.03.2.8-.9,2.04-.09,2.47.59.77-.05,1.78-.22,2.66-.24.87-.01,2.15-.81,2.72-.93-.18-.68.54-.12.88.57.71,2.18,1.95.88,2.72-1.26.42-.3,1.56-.91,2.41.12.96-.49,1.26-1.06,1.88-.52.79-1.52,1.12-1.44,2.19-.66.04-.88.35-.25.78.98.94.04,2.79-1.34,2.41l-.81.91c.12.19.28.33.47.44,0,0,.03,0,.03,0,0,0,0,.03,0,.03.29.47.38,1.12.84,1.47.84.09.08.81.03,1.25.52,1.29-1.26,1.49-1.41,2.78-.67.85-.82,1.95-1.59,2.72-1.15.59-1.06,2-1.84,2.81-.62.99-2.23.25-2.5,1.44-.38,1.12-2.15.52-2.41,1.91-.63.95-1.25,2.21-.69,3.34.88.48.38,1.35.03,2.03-.51,1.27.68-.06,1.03.66.47.76,1.42,1.69.81,2.62.84.66.91,1.61.03,2.25,1.19-.34,2.34,1.4.94,2-1.39-.24-1.66,1.62-.5,2.19,1.16.56-1.14.97.19.78s4.53,1.17,4.78-.75c.55-1.56,1.68-1.46,2.88-.78,1.11,2.3,3.21.99,5.25,1.34.69,1.66-.2,5.66,1.88,5.47.43.73,1.34.3,2.09.09.98-.27,1.51,1.29.94,2.53,1.39,1.17,3.85-1.25,3.5-3.03,2.42-.83-.59-2.72,1.78-4.59-1.18-1.81.48-1.58,1.59-2.19.45-1.42,1.04-1.05,2.12-.81.79.18,2.12.21,2.94-.16,3.79-3.3,3.66-1.25,3.97-3.25-1.58-1.2,1.68-1.71,2.47-1.31.69-.16,1.9-.94,2.22-.94.42,0,.2.83,1.28.72.76-.21,1.39-.47,1.78-.28.59.28.58,1.39-.03,2.31-.1,2.19,3.43,3.42,2.06,5.78,2.27,1.29.04,3.44,1.38,4.78,1.49.87.51,1.19-.16,2.38-.75,1.1,4.06,4.1,3.72,1.19,2.12-1.07,4.1-.19,5.34,1.59,1.24,1.62,2.33,3.35,3.41,5.19,1.12-.33,1.91,1.36,2.78.34,2.31.97,4.34-1.33,6.59-1.28.67.02.77-1,.19-2.12-.32-.61-.59-1.53-.59-2.03s-.29-1.11-.66-1.38c-1.72-1.22-1.11-4.53,1.06-5.66,1.04-.54,1.14-.69.97-1.97-.17-1.24-.03-1.55,1.16-2.69,1.67-1.59,2.62-2.09,4.03-2.09s1.8-.69,1.59-2.88c-.12-1.29.04-2.14.62-3.28.57-1.12.74-2.09.69-3.62-.06-1.63.14-2.51.88-3.94.52-1.01,1.15-2.55,1.41-3.41.44-1.46.4-1.61-.38-2.44-.66-.7-.8-1.17-.66-2.28.23-1.75,1.06-3.92,1.81-4.78.98-1.12,1.36-4.65.66-5.97-.26-.48-.16-.88.38-1.56.41-.52.63-1.2.5-1.53-.16-.42.09-.7.88-.97.6-.21,1.25-.77,1.47-1.25.22-.48.87-1.08,1.44-1.34,1.06-.5,3.41-4.58,3.41-5.91,0-.96.98-1.18,2.06-.47,1.03.68,1.97.53,1.97-.31,0-.29.52-.88,1.12-1.31,1.19-.85,2.53-3.17,2.53-4.34,0-.4.42-1.23.94-1.84s.86-1.26.75-1.44c-.11-.18.17-.91.62-1.59.58-.86,1.13-1.22,1.81-1.25,1.22-.05,1.77-.5,2.53-2.06.77-1.57,2.39-7,2.66-8.88.12-.87.52-1.69.97-2.03.68-.52.72-.82.5-2.97-.24-2.36-.22-2.4.94-3.38.64-.54,1.29-1,1.44-1,.28,0,1.49-1.75,2-2.78,0,0,0-.02,0-.03.2-.14.25-.46.25-.59,0-.24-.35-1.06-.75-1.81l-.72-1.38h.91c.5,0,.91-.14.91-.34s.36-.73.78-1.16.96-1.53,1.19-2.47c.35-1.4.68-1.83,1.81-2.44,1.61-.86,1.7-1.33.44-2.16-.86-.56-.91-.77-.69-2.53.19-1.47.5-2.15,1.38-3,.63-.61,1.33-1.42,1.53-1.78.22-.4.94-.72,1.88-.84,1.51-.2,1.55-.2,2.66,1.59.82,1.33,1.47,1.93,2.41,2.22,1.21.37,1.31.31,2.19-.84.86-1.13,1.02-1.16,2.03-.78,1,.38,1.18.29,2.31-.88,1.39-1.43,4.73-2.72,7.03-2.72,1.46,0,1.48,0,1.5-1.47.03-1.97.41-3.02,1.31-3.5.59-.32,1.02-.96.84-1.84l-4.97-7.66-9.59-14.84,1.06-9.5,4-3.12,4.03-2.97-4.78-25.06c-.64-1.94-2.02-1.49-1.44-4.38.3-1.48.68-1.45-.41-2.75-.58-.69-1.09-1.91-1.34-3.28l-.41-2.22,1.19-1.19c1.49-1.51,1.99-2.68,1.5-3.59-1.26-.36-.71-2.11-.47-3.25Z"/>
    </g>
  </g>
  <g id="Region_Coquimbo" data-name="Region Coquimbo">
    <g id="Provincia_Elqui" data-name="Provincia Elqui">
      <path id="Vicuna" class="cls-1" d="m68.23,613.2c-.31,0-1.53.77-2.22.94-.79-.4-4.05.14-2.47,1.34-.31,2-.19-.05-3.97,3.25-.81.36-2.14.3-2.94.12-1.08-.24-1.68-.61-2.12.81-1.11.6-2.77.38-1.59,2.19-2.37,1.88.63,3.77-1.78,4.59.35,1.78-2.11,4.23-3.5,3.06.57-1.24.04-2.83-.94-2.56-.75.21-1.66.63-2.09-.09-2.07.19-1.16-3.81-1.84-5.47-2.04-.36-4.14.99-5.25-1.31-1.19-.68-2.32-.81-2.88.75-.25,1.91-3.45.59-4.78.78l.38,1.44c.34,1.3.89,1.03.41,1.84-.38.64-.39.84-.09.84.21,0,.51-.14.69-.31.58-.58,1.73,0,3.78,1.97l2.03,1.97-.16,1.59c-.15,1.46-.12,1.69.53,2.34.61.61.68.82.41,1.41-.17.38-.22.78-.12.94.09.15-.05.53-.31.81-.42.46-.05,1.62.16,2.81.15.89-.03,1.85.59,2.31,1.54,1.13,1.26,1.35,0,2.31-.18.14-.32.49-.41.88-.3,1.53-.16,3.17-.81,4.62-.33.82-.32.96.25,1.56.34.36.62.89.62,1.16s.26,1.39.91,1.28c1.02-.18.95.76.91,2.41-.04,1.34.48,1.84-.06,2.22-.36.26-.31.98-.31,1.38,0,.43-1.55.44-1.81.44-.47,0-.32-.79.12-1.06l-1.75,1.41c1.95,1.03-.25,1.89-.16.62.01-.19-.54,1.37-1,.78-.27-.34-1.91,1.39-.06,1.84.87.21.33,2.61,1.09,2.91.31.5-.4,1.42.12,2.03-.09.15-.19,2.53-.66,3s-1.84.64-2.03.16c-.19-.49-1.29-1.21-1.03.34-.62,1.56-.37-.1-.81,2.53l-.53,1.16c-.1,1.29-1.31,1.5-2.97,1.88-.83.19-1.12.16-1.56-.28-.3-.3-.53-.78-.53-1.06s-.17-.75-.38-1.03c-.35-.48-.44-.47-1,.44-.33.53-.68,1.56-.78,2.25-.09.61-.58,1.77-.44,2-.01,0-.02,0-.03,0-.31.39-.42.8-.34.88.08.08-.04,1.27-.16,2.66-.12,1.36-.63,3.54-.41,4.91.28,1.77-.18,2.9-.34,3.5-.16.61-.26,1.97,0,2.97.47,1.82,1,2.86.19,3.91-.64.82.57,5.56.84,6.41.15.48.34,1.58.44,2.44s.52,2.22.91,3.03c.53,1.1.67,1.72.53,2.41-.43,2.07-.51,3.05-.25,3.81.18.52.21,1.36.03,2.41-.24,1.41-.21,1.9.44,3.97.4,1.29.74,2.86.75,3.47,0,.61-.04,1.85.41,1.81.66-.05.81.22.41,1.41-.39,1.15.58,3.82,1.94,7.34.15.39-.14,1.61.47,2.78.44.84-.26,1.82-.59,2.34-.3.49.91,1,1.09,1.38.26.54.34,2.05.53,3.38.13.89.21,1.48.34,1.91.08.25.17.51.31.72,1.09.77,1.55,1.95.69,3.12-.24.88-2.39,2.77-.41,2.78,1.79.15.96,1.54.5,2.59-.54,1.26.76,2.1.88,3.09-.74,1.16-.6,2.54-.69,3.84.04,1.13-.44,2.5.22,3.5-.11.61-.48,1.16-.69,1.75.05.71-.18,1.65.66,2,.95-.11,1.52-1.03,2.19-1.62,1.14.49,2.29,1.02,3.47,1.41,1.59.68,3.4.27,4.84-.56.33-.92,1.41-1.25,1.88-2.19.24-1.22,1.24-.72,1.5.19,1,1.57,2.47-.34,3.34-1.06.86-1.22,2.18-1.83,3.03-3,.87-.47.97-1.02.16-1.66-.18-1.7,1.96-.67,2.97-.69.37.06.68.16.84.41.7,1.04,1.33,2.15,1.5.75,1.38-.53,2.41-.37,2.91-1.16.99-.47,2.14-.84,2.56-.84s1.01-.18,1.31-.41c.9-.66,2.06-.47,2.16.34.07.63,1.25,1.46,1.03.88-.26-.68,2.73.09.97,1.56-.65.54,1.3,2.06.56,2-.2-.02,1.12.87,2.28,1.47,2.74.46,3.15,1.63,2.66-.66-.08-.36.86.52,1.69.78l1.47.5c.78.65-.06,2.26-.12,3.41.25.21,1.28.03,1.28.44.08.86-.29,2.29.59,2.62.31-.07,1.71-.75,2.09-.84,1.28-.29,1.61-.98,1.94-1.91.21-.59-.82-1.31-.47-2.66.54-2.06.56-2.47-.25-2.62-1.21-.23-1.46-1.68-.88-2.53.1-.14-.13-1.06-1.66-1.28-.58-.09-1.13-1.44,1.22-1.28.21.01.34,1.13.44,1.06.31-.21,1.47.49,1.75.47.62-.05,1.47-1.09,2.06-1.91.16-.22.32-1.63.78-1.66.83-.04,1.1-1.65-.16-2.59-.51-.38-.61-.72-1.38-1.31-.93-.72.31-1.66-3.03-1.09-1.56.26-3.03-.57-3.66-1.41-.34-.46-1.02-.34-1.34-.53-.95-.58.53-.48-.41-3.16-.35-1.02.03-1.71.09-1.97.3-1.13-.49-2.76-1.34-2.59-.67.13-.89-.56-.88-.72.16-1.31-1.67-2.63-1.19-3-1.5-.46-1.28.67-.84-3.12-1.32-5.57,1.28-4.11-.28-5.88.29-.94,1.56-2.87,1.41-3.16-.74-1.36-.85-3-.41-3.69.26-.41.89-1.74.72-3.28-.37-3.36.43-4.89,1.56-5.44.41-.2.93-2.05,1-1.22.04.48.89,1.99,1.59,2.25.71.26-.33,1.4.75.97,2.03-.8.92-1.1,1.28-2.31.33-1.1,1.86-3.2,2.22-3.44.69-.47,1.77.3,1.84-.41.06-.59-.2-.61-.59-.97-.85.98-.3-1.66-1.03-2.78-1.05.01-1.23-1.18-.22-1.97.64-.5.2-2.04.59-3.41.26-.89.73-1.62.47-2.25-.18-.44-.05-.89.12-1,.16-.1.28-.48.28-.84s.73-1.48.94-1.66c.38-.71.18-1.29.16-1.97.02-.04,0-.23.03-.72.09-1.58.12-3.13,1.28-4.44.94-1.31,1.47-3.39,1.41-3.81-.06-.37-.42-.73-.12-1.19.15-.22.46-.48,1.03-.75,1.99-.95,2.47-2.22,1.69-4.09-.57-.86-1.58-1.86-.97-2.38.18-.08.63,0,1.59.34.42.38,1.16,1.43,1.38,1.62.48.44,2.05.93,2.31.5.11-.18,1.02-.88,1.5-.78.68.14.53.93,1.22.25.46-.46,1.33-1.72,1.69-1.72,1.04,0,1.84.13,1.28-.72-.49-.74-.82-1.17-.06-2.84.23-.51.67-.97.62-1.31-.07-.5-.62-1.87,0-1.94.58-.07,1.46.51,1.88-.31.31-.6.71-1.4.56-1.69-.21-.42-.44-1.07.31-1.09,1.01-.03.38-2.23-.53-1.69-.66.4-1.55-.24-1.69-.81-.1-.41-1.23-.91-1.91-.34-2.27,1.91-1.4-.33-1.59-.56-1.07-1.33-.5-.56.34-1.56.52-.62,1.13-1.5.94-2.41-.15-.71-.02-1.64.56-2.19,1.37-1.29-.36-1.71-.06-2.12.83-1.14.98-3.38,1.06-3.44.18-.13-.56-.66-.56-1.03s.31-1.73,0-1.66c-.81.2-.98-.15.28-1.97,1.15-1.65.29-2.87-.44-3.5-2.03-1.76-1.94-1.86-1.75-3.84.13-1.36.38-2.17.06-2.94-.24-.57-.64-.55-.78-1.16-.14-.59.54-1.79-.41-1.66-2.16-.02-4.2,2.07-6.5,1.09-.87,1.02-1.66-.68-2.78-.34-1.08-1.83-2.14-3.54-3.38-5.16-1.24-1.78-3.26-2.69-5.38-1.62.34,2.91-4.43-.06-3.69-1.16.66-1.19,1.64-1.54.16-2.41-1.34-1.34.89-3.46-1.38-4.75,1.37-2.36-2.16-3.59-2.06-5.78.61-.92.62-2.03.03-2.31-.39-.18-1.03.08-1.78.28-1.08.11-.86-.75-1.28-.75Zm-40,10.91c-.07.35.06.56.38.72.14-.35-.07-.59-.38-.72Zm-.38,1.22c-.18.01-.46.56-.75,1,0,.38.36.53.5.53.3,0,.51-.85.38-1.34-.04-.14-.07-.19-.12-.19Z"/>
    </g>
  </g>
  <path id="Arica-Tarapaca" class="cls-2" d="m77.86,124.38c4.96-2.56,7.22-4.44,9.74-6.03,2.93-.5,4.72-1.76,6.36-3.13,1.88.74,4.13-1.03,6.11-.08,4.09-1.53,5.29-1,7.92-1.49,3.06-.2,3.08.21,4.13.42,1.88-.03,4.56-.61,4.62.58.48-.18,1.01-.08,1.49-.25.93-.15,1.23.68,1.24,1.4.38,1.36,2.03.98,3.14,1.16,1.17.45,1.01,1.64,1.9,2.39.71-.16,1.27-.82,1.98-1.16,1.27-.28,3.4-1.25,4.62-1.4.82-.14,2.12.29,2.56-.58.35-.77,1.72-1.1,1.57-2.06.14.03.27.05.41.08,1.22-.59,1.1-2.45,2.73-2.06.55-1.01.93-.71,1.06-.59.24.23.29-.72.42-1.06.22-.29.55-.15.84-.06"/>
  <path id="Tarapaca-Antofagasta" class="cls-3" d="m161.89,208.96l-1.53,6.27-15.52,9.58-20.01,6.53-11.19,12.38c-.53-.24-.78-.68-1.02-1.19-.46-.52-.47-1.23-.85-1.78-.63-.67-1.08-1.46-1.61-2.2-.39-.68-.79-1.31-1.1-2.03-.39-.57-.68-1.45-1.36-1.7-.92-.18-2.29-.39-3.05-1.1-.45-.45-1-.51-1.61-.51-.77.77-1.51.69-2.54.42-2.45.05-3.06-.46-4.41-.85-.94.05-1.93.13-2.88.34-1.33.81-1.3.28-2.54-.08-.44,0-.72.44-1.02.59"/>
  <path id="Antofagasta-Atacama" class="cls-2" d="m159.73,424.26c.16,1.27-2.49,1.14-4.18,1.49-2.59,1.82-5.19,6.11-7.78,3.82h-3.61c-1.77.94-3.05.9-3.8-.19l-2.28.19c1,1.01,1.69,1.96.19,2.47,1.61,2.18.98,4.03-.95,5.7l-2.85,1.71c2.23.46,2.36,1.77,2.09,3.23,1.09,1.41,3.3,3.25.57,3.23.39,1.08.23,2.15-1.9,3.23-.9,1.82-1.93,3.59-7.79,3.42l-5.7,2.28c-.76-1.74-1.52-1.37-2.28-1.14.11,1.19-1.29.86-2.66.57.21,1.37-.02,2.17-1.33,1.52l.38,2.47c-4.08-1.3-9.31.1-10.08-1.52-2.29.07-5.09.93-6.46-.38l-.95,1.71c-1.97-1.23-2.97-2.13-3.42-2.85-1.75.39-3.77.65-4.56,1.52l-2.09,1.52-5.13-.76-2.85-.57c.2-2.66-1.88-1.51-3.04-1.9.03,5.18-2.97,2.78-4.75,3.42-1.46,1.76-3.02,3.39-6.46,2.66-.88,2.23-1.85,4.78-3.23,3.61"/>
  <path id="Atacama-Coquimbo" class="cls-2" d="m96.46,636.11c-2.27-.02-4.31,2.07-6.62,1.09-.87,1.02-1.66-.68-2.79-.35-1.08-1.83-2.15-3.56-3.38-5.18-1.24-1.79-3.24-2.68-5.36-1.61.34,2.91-4.45-.07-3.7-1.17.66-1.19,1.63-1.52.15-2.39-1.34-1.34.89-3.48-1.38-4.77,1.37-2.36-2.15-3.59-2.05-5.78.61-.92.61-2.02.02-2.3-.39-.18-1.02.06-1.77.27-1.08.11-.86-.73-1.28-.73-.31,0-1.54.78-2.23.94-.79-.4-4.03.12-2.45,1.33-.31,2-.2-.05-3.98,3.26-.81.36-2.15.31-2.95.13-1.08-.24-1.68-.61-2.13.81-1.11.6-2.77.38-1.59,2.19-2.37,1.88.64,3.76-1.78,4.59.35,1.78-2.1,4.22-3.5,3.05.57-1.24.04-2.82-.94-2.55-.75.21-1.65.64-2.09-.09-2.07.19-1.16-3.82-1.85-5.48-2.04-.36-4.15.99-5.26-1.32-1.19-.68-2.31-.79-2.86.76-.25,1.92-3.47.56-4.81.76"/>
  <g>
    <path class="cls-4" d="m173.4,81.6h-1.82l7.03-16.27h1.61l6.99,16.27h-1.84l-1.79-4.27h-8.41l-1.77,4.27Zm2.39-5.79h7.17l-3.58-8.64-3.58,8.64Z"/>
    <path class="cls-4" d="m189.42,70.85h1.49c.05.57.09,1.38.09,1.84h.05c.6-1.24,1.93-2.11,3.45-2.11.39,0,.71.02,1.03.11l-.21,1.47c-.18-.07-.69-.14-1.1-.14-1.65,0-3.15,1.19-3.15,4.07v5.52h-1.56v-8.39c0-.57-.02-1.63-.09-2.37Z"/>
    <path class="cls-4" d="m198.59,67.81c-.55,0-1.1-.46-1.1-1.1s.55-1.1,1.1-1.1,1.1.46,1.1,1.1-.55,1.1-1.1,1.1Zm.78,13.79h-1.56v-10.75h1.56v10.75Z"/>
    <path class="cls-4" d="m211.27,73.31c-.51-.83-1.59-1.42-2.76-1.42-2.5,0-4.11,1.88-4.11,4.34s1.58,4.32,4.09,4.32c1.36,0,2.3-.57,2.92-1.4l1.17.87c-.92,1.13-2.23,1.86-4.09,1.86-3.47,0-5.74-2.41-5.74-5.65s2.27-5.65,5.74-5.65c1.45,0,3.08.62,4,1.86l-1.22.87Z"/>
    <path class="cls-4" d="m221.79,74.66c0-1.86-1.01-2.78-2.87-2.78-1.26,0-2.44.51-3.19,1.26l-.87-1.03c.87-.87,2.39-1.54,4.23-1.54,2.32,0,4.18,1.29,4.18,3.91v4.71c0,.83.07,1.82.18,2.41h-1.4c-.09-.53-.16-1.17-.16-1.75h-.05c-.99,1.42-2.18,2.02-3.91,2.02-1.63,0-3.72-.87-3.72-3.26,0-3.31,3.65-3.61,7.58-3.61v-.34Zm-.46,1.56c-2.55,0-5.52.28-5.52,2.32,0,1.54,1.31,2.04,2.53,2.04,2.21,0,3.45-1.65,3.45-3.56v-.8h-.46Z"/>
    <path class="cls-4" d="m236.73,79.92h.05l3.33-9.08h1.7l-5.35,13.54c-.64,1.65-1.52,2.73-3.38,2.73-.46,0-.94-.05-1.4-.14l.16-1.42c.34.11.74.18,1.15.18,1.06,0,1.61-.69,2.07-1.91l.87-2.25-4.6-10.73h1.75l3.65,9.08Z"/>
    <path class="cls-4" d="m250.08,65.33h4.6c3.31,0,5.49,1.42,5.49,4.34s-2.23,4.37-5.54,4.37h-2.9v7.56h-1.65v-16.27Zm1.65,7.31h2.8c2.57,0,3.98-1.03,3.98-2.96s-1.47-2.92-3.98-2.92h-2.8v5.88Z"/>
    <path class="cls-4" d="m268.71,74.66c0-1.86-1.01-2.78-2.87-2.78-1.26,0-2.44.51-3.19,1.26l-.87-1.03c.87-.87,2.39-1.54,4.23-1.54,2.32,0,4.18,1.29,4.18,3.91v4.71c0,.83.07,1.82.18,2.41h-1.4c-.09-.53-.16-1.17-.16-1.75h-.05c-.99,1.42-2.18,2.02-3.91,2.02-1.63,0-3.72-.87-3.72-3.26,0-3.31,3.65-3.61,7.58-3.61v-.34Zm-.46,1.56c-2.55,0-5.51.28-5.51,2.32,0,1.54,1.31,2.04,2.53,2.04,2.21,0,3.45-1.65,3.45-3.56v-.8h-.46Z"/>
    <path class="cls-4" d="m274.11,70.85h1.49c.05.57.09,1.38.09,1.84h.05c.6-1.24,1.93-2.11,3.45-2.11.39,0,.71.02,1.03.11l-.21,1.47c-.18-.07-.69-.14-1.1-.14-1.65,0-3.15,1.19-3.15,4.07v5.52h-1.56v-8.39c0-.57-.02-1.63-.09-2.37Z"/>
    <path class="cls-4" d="m283.28,67.81c-.55,0-1.1-.46-1.1-1.1s.55-1.1,1.1-1.1,1.1.46,1.1,1.1-.55,1.1-1.1,1.1Zm.78,13.79h-1.56v-10.75h1.56v10.75Z"/>
    <path class="cls-4" d="m289.62,70.85c.05.57.09,1.38.09,1.84h.05c.6-1.24,2.16-2.11,3.68-2.11,2.73,0,4.09,1.77,4.09,4.44v6.6h-1.56v-5.95c0-2.25-.67-3.77-2.92-3.77-1.66,0-3.26,1.33-3.26,4.21v5.52h-1.56v-8.39c0-.57-.02-1.63-.09-2.37h1.49Z"/>
    <path class="cls-4" d="m308.35,74.66c0-1.86-1.01-2.78-2.87-2.78-1.26,0-2.44.51-3.19,1.26l-.87-1.03c.87-.87,2.39-1.54,4.23-1.54,2.32,0,4.18,1.29,4.18,3.91v4.71c0,.83.07,1.82.18,2.41h-1.4c-.09-.53-.16-1.17-.16-1.75h-.05c-.99,1.42-2.18,2.02-3.91,2.02-1.63,0-3.72-.87-3.72-3.26,0-3.31,3.65-3.61,7.58-3.61v-.34Zm-.46,1.56c-2.55,0-5.51.28-5.51,2.32,0,1.54,1.31,2.04,2.53,2.04,2.21,0,3.45-1.65,3.45-3.56v-.8h-.46Z"/>
    <path class="cls-4" d="m321.58,73.31c-.51-.83-1.59-1.42-2.76-1.42-2.5,0-4.11,1.88-4.11,4.34s1.59,4.32,4.09,4.32c1.36,0,2.3-.57,2.92-1.4l1.17.87c-.92,1.13-2.23,1.86-4.09,1.86-3.47,0-5.75-2.41-5.75-5.65s2.28-5.65,5.75-5.65c1.45,0,3.08.62,4,1.86l-1.22.87Z"/>
    <path class="cls-4" d="m330.27,81.88c-3.33,0-5.72-2.41-5.72-5.65s2.39-5.65,5.72-5.65,5.75,2.41,5.75,5.65-2.39,5.65-5.75,5.65Zm0-10c-2.48,0-4.07,1.93-4.07,4.34s1.59,4.32,4.07,4.32,4.09-1.91,4.09-4.32-1.59-4.34-4.09-4.34Z"/>
    <path class="cls-4" d="m344.21,72.16h-3.03v6.27c0,1.61.67,1.98,1.61,1.98.44,0,.94-.14,1.36-.34l.07,1.36c-.55.21-1.13.32-1.84.32-1.15,0-2.76-.51-2.76-2.87v-6.71h-2.23v-1.31h2.23v-3.03h1.56v3.03h3.03v1.31Z"/>
    <path class="cls-4" d="m353.43,74.66c0-1.86-1.01-2.78-2.87-2.78-1.26,0-2.44.51-3.19,1.26l-.87-1.03c.87-.87,2.39-1.54,4.23-1.54,2.32,0,4.18,1.29,4.18,3.91v4.71c0,.83.07,1.82.18,2.41h-1.4c-.09-.53-.16-1.17-.16-1.75h-.05c-.99,1.42-2.18,2.02-3.91,2.02-1.63,0-3.72-.87-3.72-3.26,0-3.31,3.65-3.61,7.58-3.61v-.34Zm-.46,1.56c-2.55,0-5.51.28-5.51,2.32,0,1.54,1.31,2.04,2.53,2.04,2.21,0,3.45-1.65,3.45-3.56v-.8h-.46Z"/>
  </g>
  <g>
    <path d="m198.15,162.36h-1.65v-14.8h-5.45v-1.47h12.55v1.47h-5.45v14.8Z"/>
    <path d="m210.51,155.42c0-1.86-1.01-2.78-2.87-2.78-1.26,0-2.44.51-3.19,1.26l-.87-1.03c.87-.87,2.39-1.54,4.23-1.54,2.32,0,4.18,1.29,4.18,3.91v4.71c0,.83.07,1.82.18,2.41h-1.4c-.09-.53-.16-1.17-.16-1.75h-.05c-.99,1.42-2.18,2.02-3.91,2.02-1.63,0-3.72-.87-3.72-3.26,0-3.31,3.65-3.61,7.58-3.61v-.34Zm-.46,1.56c-2.55,0-5.51.28-5.51,2.32,0,1.54,1.31,2.04,2.53,2.04,2.21,0,3.45-1.65,3.45-3.56v-.8h-.46Z"/>
    <path d="m215.91,151.61h1.49c.05.57.09,1.38.09,1.84h.05c.6-1.24,1.93-2.11,3.45-2.11.39,0,.71.02,1.03.11l-.21,1.47c-.18-.07-.69-.14-1.1-.14-1.65,0-3.15,1.19-3.15,4.07v5.52h-1.56v-8.39c0-.57-.02-1.63-.09-2.37Z"/>
    <path d="m230.77,155.42c0-1.86-1.01-2.78-2.87-2.78-1.26,0-2.44.51-3.19,1.26l-.87-1.03c.87-.87,2.39-1.54,4.23-1.54,2.32,0,4.18,1.29,4.18,3.91v4.71c0,.83.07,1.82.18,2.41h-1.4c-.09-.53-.16-1.17-.16-1.75h-.05c-.99,1.42-2.18,2.02-3.91,2.02-1.63,0-3.72-.87-3.72-3.26,0-3.31,3.65-3.61,7.58-3.61v-.34Zm-.46,1.56c-2.55,0-5.52.28-5.52,2.32,0,1.54,1.31,2.04,2.53,2.04,2.21,0,3.45-1.65,3.45-3.56v-.8h-.46Z"/>
    <path d="m237.83,167.88h-1.56v-16.27h1.56v1.86h.07c.9-1.4,2.5-2.14,4.04-2.14,3.36,0,5.56,2.48,5.56,5.65s-2.21,5.65-5.56,5.65c-1.54,0-3.15-.76-4.04-2.09h-.07v7.33Zm3.95-15.24c-2.41,0-4.14,1.88-4.14,4.34s1.72,4.32,4.14,4.32c2.6,0,4.07-1.93,4.07-4.32s-1.47-4.34-4.07-4.34Z"/>
    <path d="m257.63,155.42c0-1.86-1.01-2.78-2.87-2.78-1.26,0-2.44.51-3.19,1.26l-.87-1.03c.87-.87,2.39-1.54,4.23-1.54,2.32,0,4.18,1.29,4.18,3.91v4.71c0,.83.07,1.82.18,2.41h-1.4c-.09-.53-.16-1.17-.16-1.75h-.05c-.99,1.42-2.18,2.02-3.91,2.02-1.63,0-3.72-.87-3.72-3.26,0-3.31,3.65-3.61,7.58-3.61v-.34Zm-.46,1.56c-2.55,0-5.51.28-5.51,2.32,0,1.54,1.31,2.04,2.53,2.04,2.21,0,3.45-1.65,3.45-3.56v-.8h-.46Z"/>
    <path d="m270.87,154.07c-.51-.83-1.59-1.42-2.76-1.42-2.5,0-4.11,1.88-4.11,4.34s1.58,4.32,4.09,4.32c1.36,0,2.3-.57,2.92-1.4l1.17.87c-.92,1.13-2.23,1.86-4.09,1.86-3.47,0-5.74-2.41-5.74-5.65s2.27-5.65,5.74-5.65c1.45,0,3.08.62,4,1.86l-1.22.87Z"/>
    <path d="m281.39,155.42c0-1.86-1.01-2.78-2.87-2.78-1.26,0-2.44.51-3.19,1.26l-.87-1.03c.87-.87,2.39-1.54,4.23-1.54,2.32,0,4.18,1.29,4.18,3.91v4.71c0,.83.07,1.82.18,2.41h-1.4c-.09-.53-.16-1.17-.16-1.75h-.05c-.99,1.42-2.18,2.02-3.91,2.02-1.63,0-3.72-.87-3.72-3.26,0-3.31,3.65-3.61,7.58-3.61v-.34Zm-.46,1.56c-2.55,0-5.52.28-5.52,2.32,0,1.54,1.31,2.04,2.53,2.04,2.21,0,3.45-1.65,3.45-3.56v-.8h-.46Zm-2.09-7.58h-1.36l2.3-3.31h2.09l-3.03,3.31Z"/>
  </g>
  <g>
    <path class="cls-4" d="m254.92,301.13h-1.82l7.03-16.27h1.61l6.99,16.27h-1.84l-1.79-4.27h-8.41l-1.77,4.27Zm2.39-5.79h7.17l-3.58-8.64-3.58,8.64Z"/>
    <path class="cls-4" d="m272.43,290.38c.05.57.09,1.38.09,1.84h.05c.6-1.24,2.16-2.11,3.68-2.11,2.73,0,4.09,1.77,4.09,4.44v6.6h-1.56v-5.95c0-2.25-.67-3.77-2.92-3.77-1.65,0-3.26,1.33-3.26,4.21v5.52h-1.56v-8.39c0-.57-.02-1.63-.09-2.37h1.49Z"/>
    <path class="cls-4" d="m289.22,291.69h-3.03v6.27c0,1.61.67,1.98,1.61,1.98.44,0,.94-.14,1.36-.34l.07,1.36c-.55.21-1.13.32-1.84.32-1.15,0-2.76-.51-2.76-2.87v-6.71h-2.23v-1.31h2.23v-3.03h1.56v3.03h3.03v1.31Z"/>
    <path class="cls-4" d="m296.6,301.41c-3.33,0-5.72-2.41-5.72-5.65s2.39-5.65,5.72-5.65,5.75,2.41,5.75,5.65-2.39,5.65-5.75,5.65Zm0-10c-2.48,0-4.07,1.93-4.07,4.34s1.58,4.32,4.07,4.32,4.09-1.91,4.09-4.32-1.58-4.34-4.09-4.34Z"/>
    <path class="cls-4" d="m310.24,291.69h-2.53v9.44h-1.56v-9.44h-2.25v-1.31h2.25v-2.94c0-2.44,1.19-3.95,3.65-3.95.39,0,.9.05,1.29.16l-.28,1.38c-.32-.09-.67-.16-1.08-.16-1.68,0-2.02,1.19-2.02,2.76v2.76h2.53v1.31Z"/>
    <path class="cls-4" d="m319.25,294.19c0-1.86-1.01-2.78-2.87-2.78-1.26,0-2.44.51-3.19,1.26l-.87-1.03c.87-.87,2.39-1.54,4.23-1.54,2.32,0,4.18,1.29,4.18,3.91v4.71c0,.83.07,1.82.18,2.41h-1.4c-.09-.53-.16-1.17-.16-1.75h-.05c-.99,1.42-2.18,2.02-3.91,2.02-1.63,0-3.72-.87-3.72-3.26,0-3.31,3.65-3.61,7.58-3.61v-.34Zm-.46,1.56c-2.55,0-5.51.28-5.51,2.32,0,1.54,1.31,2.04,2.53,2.04,2.21,0,3.45-1.65,3.45-3.56v-.8h-.46Z"/>
    <path class="cls-4" d="m325.32,303.29c.85,1.1,2.48,1.98,4.11,1.98,3.08,0,4.21-1.91,4.21-4.23v-2.02h-.05c-.83,1.33-2.5,2.11-4.07,2.11-3.36,0-5.56-2.32-5.56-5.47s2.21-5.56,5.56-5.56c1.56,0,3.22.76,4.07,2.14h.05v-1.86h1.56v10.66c0,2.34-1.08,5.61-5.84,5.61-1.98,0-3.91-.83-5.17-2.16l1.13-1.19Zm4.37-3.49c2.41,0,4.14-1.7,4.14-4.18,0-2.25-1.72-4.21-4.14-4.21-2.6,0-4.07,1.95-4.07,4.21s1.47,4.18,4.07,4.18Z"/>
    <path class="cls-4" d="m346.04,294.19c0-1.86-1.01-2.78-2.87-2.78-1.26,0-2.44.51-3.19,1.26l-.87-1.03c.87-.87,2.39-1.54,4.23-1.54,2.32,0,4.18,1.29,4.18,3.91v4.71c0,.83.07,1.82.18,2.41h-1.4c-.09-.53-.16-1.17-.16-1.75h-.05c-.99,1.42-2.18,2.02-3.91,2.02-1.63,0-3.72-.87-3.72-3.26,0-3.31,3.65-3.61,7.58-3.61v-.34Zm-.46,1.56c-2.55,0-5.52.28-5.52,2.32,0,1.54,1.31,2.04,2.53,2.04,2.21,0,3.45-1.65,3.45-3.56v-.8h-.46Z"/>
    <path class="cls-4" d="m357.26,292.93c-.46-.9-1.45-1.52-2.64-1.52-1.13,0-2.28.48-2.28,1.68,0,1.01.8,1.47,2.57,1.84,2.53.53,3.72,1.47,3.72,3.15,0,2.46-2.07,3.33-4.04,3.33-1.63,0-3.26-.64-4.25-2.09l1.24-.92c.55.94,1.72,1.68,2.99,1.68,1.33,0,2.53-.48,2.53-1.88,0-1.13-1.13-1.59-3.17-2.07-1.26-.3-3.08-.85-3.08-2.9,0-2.18,1.88-3.12,3.84-3.12,1.49,0,3.08.71,3.77,1.93l-1.19.9Z"/>
    <path class="cls-4" d="m366.58,291.69h-3.03v6.27c0,1.61.67,1.98,1.61,1.98.44,0,.94-.14,1.36-.34l.07,1.36c-.55.21-1.13.32-1.84.32-1.15,0-2.76-.51-2.76-2.87v-6.71h-2.23v-1.31h2.23v-3.03h1.56v3.03h3.03v1.31Z"/>
    <path class="cls-4" d="m375.8,294.19c0-1.86-1.01-2.78-2.87-2.78-1.26,0-2.44.51-3.19,1.26l-.87-1.03c.87-.87,2.39-1.54,4.23-1.54,2.32,0,4.18,1.29,4.18,3.91v4.71c0,.83.07,1.82.18,2.41h-1.4c-.09-.53-.16-1.17-.16-1.75h-.05c-.99,1.42-2.18,2.02-3.91,2.02-1.63,0-3.72-.87-3.72-3.26,0-3.31,3.65-3.61,7.58-3.61v-.34Zm-.46,1.56c-2.55,0-5.51.28-5.51,2.32,0,1.54,1.31,2.04,2.53,2.04,2.21,0,3.45-1.65,3.45-3.56v-.8h-.46Z"/>
  </g>
  <g>
    <path class="cls-4" d="m204.38,531.06h-1.81l7.03-16.27h1.61l6.99,16.27h-1.84l-1.79-4.27h-8.41l-1.77,4.27Zm2.39-5.79h7.17l-3.59-8.64-3.58,8.64Z"/>
    <path class="cls-4" d="m225.34,521.62h-3.03v6.27c0,1.61.67,1.98,1.61,1.98.44,0,.94-.14,1.36-.34l.07,1.36c-.55.21-1.13.32-1.84.32-1.15,0-2.76-.51-2.76-2.87v-6.71h-2.23v-1.31h2.23v-3.03h1.56v3.03h3.03v1.31Z"/>
    <path class="cls-4" d="m234.55,524.12c0-1.86-1.01-2.78-2.87-2.78-1.26,0-2.44.51-3.19,1.26l-.87-1.03c.87-.87,2.39-1.54,4.23-1.54,2.32,0,4.18,1.29,4.18,3.91v4.71c0,.83.07,1.82.18,2.41h-1.4c-.09-.53-.16-1.17-.16-1.75h-.05c-.99,1.42-2.18,2.02-3.91,2.02-1.63,0-3.72-.87-3.72-3.26,0-3.31,3.65-3.61,7.58-3.61v-.34Zm-.46,1.56c-2.55,0-5.51.28-5.51,2.32,0,1.54,1.31,2.04,2.53,2.04,2.21,0,3.45-1.65,3.45-3.56v-.8h-.46Z"/>
    <path class="cls-4" d="m247.79,522.77c-.51-.83-1.59-1.42-2.76-1.42-2.5,0-4.11,1.88-4.11,4.34s1.59,4.32,4.09,4.32c1.36,0,2.3-.57,2.92-1.4l1.17.87c-.92,1.13-2.23,1.86-4.09,1.86-3.47,0-5.74-2.41-5.74-5.65s2.28-5.65,5.74-5.65c1.45,0,3.08.62,4,1.86l-1.22.87Z"/>
    <path class="cls-4" d="m258.31,524.12c0-1.86-1.01-2.78-2.87-2.78-1.26,0-2.44.51-3.19,1.26l-.87-1.03c.87-.87,2.39-1.54,4.23-1.54,2.32,0,4.18,1.29,4.18,3.91v4.71c0,.83.07,1.82.18,2.41h-1.4c-.09-.53-.16-1.17-.16-1.75h-.05c-.99,1.42-2.18,2.02-3.91,2.02-1.63,0-3.72-.87-3.72-3.26,0-3.31,3.65-3.61,7.58-3.61v-.34Zm-.46,1.56c-2.55,0-5.52.28-5.52,2.32,0,1.54,1.31,2.04,2.53,2.04,2.21,0,3.45-1.65,3.45-3.56v-.8h-.46Z"/>
    <path class="cls-4" d="m268.88,520.03c1.17,0,2.6.44,3.31,2.27.74-1.47,2.05-2.27,3.77-2.27,2.73,0,4.09,1.77,4.09,4.44v6.6h-1.56v-5.95c0-2.25-.76-3.77-2.78-3.77-2.25,0-3.06,2-3.06,4v5.72h-1.56v-6.27c0-2.09-.51-3.45-2.6-3.45-1.49,0-3.12,1.33-3.12,4.21v5.52h-1.56v-8.39c0-.57-.02-1.63-.09-2.37h1.49c.05.57.09,1.38.09,1.84h.05c.62-1.24,2-2.11,3.54-2.11Z"/>
    <path class="cls-4" d="m290.87,524.12c0-1.86-1.01-2.78-2.87-2.78-1.26,0-2.44.51-3.19,1.26l-.87-1.03c.87-.87,2.39-1.54,4.23-1.54,2.32,0,4.18,1.29,4.18,3.91v4.71c0,.83.07,1.82.18,2.41h-1.4c-.09-.53-.16-1.17-.16-1.75h-.05c-.99,1.42-2.18,2.02-3.91,2.02-1.63,0-3.72-.87-3.72-3.26,0-3.31,3.65-3.61,7.58-3.61v-.34Zm-.46,1.56c-2.55,0-5.51.28-5.51,2.32,0,1.54,1.31,2.04,2.53,2.04,2.21,0,3.45-1.65,3.45-3.56v-.8h-.46Z"/>
  </g>
  <g>
    <path class="cls-4" d="m137.94,697.73c-1.08,1.63-3.17,3.03-6.09,3.03-4.92,0-8.48-3.61-8.48-8.55s3.63-8.55,8.48-8.55c2.39,0,4.66.99,5.79,2.57l-1.38,1.01c-.69-1.06-2.32-2.14-4.39-2.14-4.21,0-6.76,3.31-6.76,7.1s2.57,7.1,6.76,7.1c1.86,0,3.65-.74,4.78-2.41l1.29.83Z"/>
    <path class="cls-4" d="m145.36,700.63c-3.33,0-5.72-2.41-5.72-5.65s2.39-5.65,5.72-5.65,5.75,2.41,5.75,5.65-2.39,5.65-5.75,5.65Zm0-10c-2.48,0-4.07,1.93-4.07,4.34s1.58,4.32,4.07,4.32,4.09-1.91,4.09-4.32-1.58-4.34-4.09-4.34Z"/>
    <path class="cls-4" d="m163.28,698.54c-.9,1.33-2.5,2.09-4.04,2.09-3.36,0-5.56-2.48-5.56-5.65s2.21-5.65,5.56-5.65c1.54,0,3.15.74,4.04,2.14h.07v-1.86h1.56v16.27h-1.56v-7.33h-.07Zm-3.88.76c2.41,0,4.14-1.86,4.14-4.32s-1.72-4.34-4.14-4.34c-2.6,0-4.07,1.95-4.07,4.34s1.47,4.32,4.07,4.32Z"/>
    <path class="cls-4" d="m176.86,700.35c-.05-.57-.09-1.38-.09-1.84h-.05c-.6,1.24-2.16,2.11-3.68,2.11-2.73,0-4.09-1.77-4.09-4.44v-6.6h1.56v5.95c0,2.25.67,3.77,2.92,3.77,1.65,0,3.26-1.33,3.26-4.21v-5.52h1.56v8.39c0,.57.02,1.63.09,2.37h-1.49Z"/>
    <path class="cls-4" d="m183.2,686.56c-.55,0-1.1-.46-1.1-1.1s.55-1.1,1.1-1.1,1.1.46,1.1,1.1-.55,1.1-1.1,1.1Zm.78,13.79h-1.56v-10.75h1.56v10.75Z"/>
    <path class="cls-4" d="m193.22,689.32c1.17,0,2.6.44,3.31,2.27.74-1.47,2.05-2.27,3.77-2.27,2.73,0,4.09,1.77,4.09,4.44v6.6h-1.56v-5.95c0-2.25-.76-3.77-2.78-3.77-2.25,0-3.06,2-3.06,4v5.72h-1.56v-6.27c0-2.09-.51-3.45-2.6-3.45-1.49,0-3.12,1.33-3.12,4.21v5.52h-1.56v-8.39c0-.57-.02-1.63-.09-2.37h1.49c.05.57.09,1.38.09,1.84h.05c.62-1.24,2-2.11,3.54-2.11Z"/>
    <path class="cls-4" d="m210.04,698.54v1.82h-1.56v-17.37h1.56v8.48h.05c.92-1.4,2.53-2.14,4.07-2.14,3.36,0,5.56,2.48,5.56,5.65s-2.21,5.65-5.56,5.65c-1.54,0-3.15-.74-4.07-2.09h-.05Zm3.95-7.9c-2.41,0-4.14,1.88-4.14,4.34s1.72,4.32,4.14,4.32c2.6,0,4.07-1.93,4.07-4.32s-1.47-4.34-4.07-4.34Z"/>
    <path class="cls-4" d="m228,700.63c-3.33,0-5.72-2.41-5.72-5.65s2.39-5.65,5.72-5.65,5.75,2.41,5.75,5.65-2.39,5.65-5.75,5.65Zm0-10c-2.48,0-4.07,1.93-4.07,4.34s1.58,4.32,4.07,4.32,4.09-1.91,4.09-4.32-1.58-4.34-4.09-4.34Z"/>
  </g>
</svg>