<?xml version="1.0" encoding="utf-8"?>
<!-- Generator: Adobe Illustrator 27.5.0, SVG Export Plug-In . SVG Version: 6.00 Build 0)  -->
<svg version="1.1" id="Capa_1" xmlns="http://www.w3.org/2000/svg" xmlns:xlink="http://www.w3.org/1999/xlink" x="0px" y="0px"
	 viewBox="0 0 402.3 884.8" style="enable-background:new 0 0 402.3 884.8;" xml:space="preserve">
<style type="text/css">
	.st0{fill-rule:evenodd;clip-rule:evenodd;fill:#AFAFAF;stroke:#FFFFFF;}
	.st1{fill:#AFAFAF;stroke:#FFFFFF;}
	.st2{fill:#AFAFAF;stroke:#FFFFFF;stroke-width:2;}
	.st3{enable-background:new    ;}
	.st4{fill:#3A3A3A;}
</style>
<g id="Region_Arica_Parinacota">
	<g id="Provincia_Arica">
		<path id="Arica" class="st0" d="M122.4,33.4l-9.5,7.8l-5.9-0.8l-2,2.4v2.5l1.3,0.8v5.2l2.2,3.6l0.1,2.5l-1.1,2.4l-1.9,3.8L104,66
			L98.3,71h-3.8l-4.7,2.7l-2.5,0.1c-3.6-1.1-6.9-1.1-8.8,1.5c3,2.4,5.1,4.6,3,8.4c-0.4,1-0.5,2.1-1.4,2.8c-0.9-0.3,1.4,1.2,0.3,2.5
			c-0.8,0.7-0.1,1.7,0.1,2.5c0.3,0.8,0.1,1.7-0.5,2c0.3,0.8,1.1,2-0.2,2.3c-0.5,2.5,0,1.9,0,2.8c0,0.5-0.1,1,0.1,1.5
			c0.7,0.3,0.1,1,0.1,1.7s0.5,1,0.8,1.9c0.2,1.1,0.8,1.8,1.1,2.9c1.1,1.3,0.1,1.2,0.1,2.2c0,0.4,1.1,1.5,1.2,1.8
			c0.4,0.8,0.6,1.7,0.8,2.6c0.1,0.4,0,0.5,0.6,1.1c0.4,0.8,0,1.8-0.6,2.3c1,0.7-0.5,2.2-0.6,2.4c5-2.6,7.2-4.4,9.8-6
			c2.9-0.5,4.7-1.8,6.3-3.1c1.9,0.7,4.1-1,6.1-0.1c4.1-1.5,5.3-1,7.9-1.5c3.1-0.2,3.1,0.2,4.1,0.4c1.9,0,4.6-0.6,4.6,0.6
			c0.5-0.2,1-0.1,1.5-0.2c0.9-0.2,1.2,0.7,1.2,1.4c0.4,1.4,2,1,3.1,1.2c1.2,0.4,1,1.7,1.9,2.4c0.7-0.2,1.3-0.8,2-1.2
			c1.3-0.3,3.4-1.2,4.6-1.4c0.8-0.1,2.1,0.3,2.6-0.6c0.4-0.8,1.7-1.1,1.6-2.1l0.4,0.1c1.2-0.6,1.1-2.4,2.7-2.1c0.6-1,1-0.7,1.1-0.6
			c0.2,0.2,0.3-0.7,0.4-1.1c0.2-0.3,0.6-0.2,0.8-0.1c-0.1-0.8,1.1-2.1,1.6-2.5c-0.2-0.1-0.7-2.7-1.3-4.3c-3-4.4-1.3-4.3-2.6-6.6
			c0.6-1.9-2.8-2.3-0.8-3.4c-0.3-2.1,1.5-5.3-0.4-6.8c-1.1-2.1-1.9-5.1-0.5-7c-1.1-0.7-1.9-1.4-1.1-2.7c1.2-3.2-3.1-1.7-3-4.3
			c-2.1-2,1.6-2.6,2.2-4.3c2-0.7,1-2.4-0.5-2.7c-1-2.3-3.6-1.6-5.7-2.5c-1.4,1-1.8-1.9-2.2-0.9c-0.6-0.2-1.1-0.6-1.4-1.1
			c-0.8-1.3-1-3.3-0.4-4.6c1.1-2.8-2.1-4.3-1.7-6.8l-6.1-6.1L122.4,33.4L122.4,33.4z M147.8,102.6
			C147.8,102.6,147.8,102.6,147.8,102.6C148,102.4,148,102.4,147.8,102.6z"/>
	</g>
</g>
<g id="Region_Tarapaca">
	<g id="Provincia_Tamarugal">
		<path id="path3437" class="st0" d="M145.8,104c-0.1,0-0.3,0-0.4,0.2c-0.1,0.3-0.2,1.3-0.4,1.1c-0.1-0.1-0.5-0.4-1.1,0.6
			c-1.6-0.4-1.5,1.5-2.7,2.1l-0.4-0.1c0.2,1-1.2,1.3-1.6,2.1c-0.4,0.9-1.7,0.4-2.6,0.6c-1.2,0.2-3.3,1.1-4.6,1.4
			c-0.7,0.3-1.3,1-2,1.2c-0.9-0.8-0.7-2-1.9-2.4c-1.1-0.2-2.8,0.2-3.1-1.2c0-0.7-0.3-1.6-1.2-1.4c-0.5,0.2-1,0.1-1.5,0.2
			c-0.1-1.2-2.8-0.6-4.6-0.6c-1.1-0.2-1.1-0.6-4.1-0.4c-2.6,0.5-3.8-0.1-7.9,1.5c-2-0.9-4.2,0.8-6.1,0.1c-1.6,1.4-3.4,2.6-6.3,3.1
			c-2.5,1.6-4.8,3.5-9.8,6c0.2,0.6,0.4,1.1,0.2,1.9s0.2,2,0.2,2l1.5,0.9c-0.3,0.9-0.2,1.2-0.1,1.5c0.8,0.6,1.1,1,1.1,2.1
			c0.1,0.9,0.7,1.6,0.9,2.4s0.1,1.8,0.6,2.4c-0.9,4.1,0.3,3.7-0.1,4.2c-0.4,0.8-1,0.9-1.8,0.7c1,0.9,1.9,1.9,3.3,2.6
			c-0.3,0.6,0.1,1.3,0.5,2l-0.6,0.3l1.2,1.4c-0.1,1.8,0,3.5-0.4,5.5c0.2,1.1,2.3,1,1,3.2c0.6,1.2,0.2,2.5,0.2,3.7l0.5,0.5l0.1,1.8
			c0,0,0.5,0.2-0.6,3.3c-0.8,3-0.9-0.7-1.4,4.2c0.2,4.8,2-0.5,1.2,7.8c0,0.4-2.1,1.6-1.9,2.1c0.3,0.4,0.1,1,1.1,1.4
			c0.3,1.6,0.1,3.9-0.3,4.8s-1.2,0.7-1.3,1.7c0,1.3,0.3,2.5-0.2,4.1c-0.1,1.7,1,2.1,0.2,3.3c0.5,1,0,1.3-0.2,1.9
			c0.5,0.6,1.1,1.2-0.1,2c0.3,0.9,1,1.9-0.2,2.8c0.4,0.3,0.7,0.6,0.9,1.2c0.8,0.1,1.2,0.7,1.7,1.2c-0.1,2.2,1.3,5.4-0.1,5.5
			c-0.5,0.1-0.3,1.9-0.6,2.5c0.3,1,0.5,2.4,0.9,2.5c0.4,0.2,2.5,1.2,0.8,2.8c0.3,0.5,0.9,0.5,0.9,1.6c0.2,0.2,0.2,0.5,0.2,0.8
			c0.6,0.5,0.9,1.1,0.7,1.8c0.9,1.2,0.6,2,0.5,2.2c0.1,0.1,1.5,1.8,1,2.1c0,0.5,0.1,1-0.6,1.4c-0.2,0.2-0.3,0.1-0.5,0.2
			c-0.2,0.1-0.2,0.1-0.3,0.3c0.7,1.3,0.4,0.8,0.4,1.4c0.1,0.4-0.2,0.4,0.9,1.5c0,0.2,0,0.4,0,0.7c0.1,0.3,0.2,0.6,0.4,0.8
			c0.3-0.1,0.6-0.6,1-0.6c1.2,0.4,1.2,0.9,2.5,0.1c0.8-0.2,1.6-0.3,2.3-0.4v0l0.6,0.1c1.3,0.4,2,0.9,4.4,0.8c1,0.3,1.8,0.3,2.5-0.4
			c0.6,0,1.2,0.1,1.6,0.5c0.8,0.7,2.1,0.9,3,1.1c0.7,0.2,1,1.1,1.4,1.7c0.3,0.7,0.7,1.4,1.1,2c0.5,0.7,1,1.6,1.6,2.2
			c0.4,0.6,0.4,1.3,0.8,1.8c0.2,0.5,0.5,0.9,1,1.2l11.2-12.4l20-6.5l15.5-9.6l1.5-6.2c-1-0.4-1.3-1.5-2.2-2c-0.6-0.5-0.4-1.4-0.7-2
			c-0.2-0.8,0.4-1.6,0.1-2.5c0-0.7,0.5-1.3,0-2c-0.5-0.8,0.6-1.7,0-2.4c0.6,0,0.8,0.5,1.2-1.3c0.7-1,1.1-1.4,1.7-1.7
			c0.2,0.1,1.8-0.4,2.1-1.2c-0.3-0.3-1.3-0.5-1.4-0.9c-0.2-0.6-0.5-0.7-1.1-0.7c-1.2-0.1-0.8-1.6-1.9-1.6c-2.1,0.3-1.5-0.5-2.7-1.3
			c-0.5-0.3-1.1-1.2-1.8-1.2l-1.1,0l-3.8-3.2v-4.7l0.4,0.1c0.1,0,1.2-0.2,1.6-0.2c0.5-0.1,1,0,1.4-0.3c0.4,0.3,0.3-1.5,0.1-2.2
			c-0.2-0.5-0.4-0.2-0.8-0.8c-0.4-0.3-0.6-0.6-0.4-1.1c0.2-0.6-0.3-1.1-0.6-1.5c-0.3-0.6,0.5-0.9,0.3-1.4c-0.2-0.8-0.1-1.2,0.5-1.7
			c-0.4-0.6-0.1-1.5-0.6-1.9c-0.5-0.1-1.5,0-1.8-0.6c-0.1,0.1-0.7,0.6-1.1,0.2l0.7-2.7l2.9-0.2l2.3-1h3.3l2.1-5.5l-1.3-1.4l0.9-3.1
			l-3.2-0.7c-0.1-0.5-1.6-3-2.5-3.2c-0.4-1-1.7-0.3-2.1-1c0.6-0.5,0.5-0.5,0.4-0.5c0.2-0.5,0.1-1,1.7-1.4c0.4-0.2,1-0.1,1.5-0.3
			l0.1-0.8l0.7-0.4l-0.1-0.7l1.6-2.7l0.7-0.3l5.6-7.6c1-0.2,1.8-0.6,1.4-1.4l-5.8-5.4l-3.7-1.1c-0.4-0.3-0.3-0.7-0.4-1
			c-2-2-3.9-4.2-6-6.2c-1.1-2.4-3.7-3.1-6-3.8c-1.1-2.1-1.4-4.3-3.1-5.8C146.2,104,146,104,145.8,104L145.8,104z"/>
	</g>
</g>
<g id="Region_Antofagasta">
	<g id="Provincia_El_Loa">
		<path id="Calama" class="st0" d="M168.2,203.5l-1.2,0.2l-1.5,6.2l-15.4,9.5l-2.2,0.8v0l-17.7,5.7L119,238.3
			c-0.5-0.2-0.8-0.7-1-1.2c-0.5-0.5-0.5-1.2-0.8-1.8c-0.6-0.7-1.1-1.5-1.6-2.2c-0.4-0.7-0.8-1.3-1.1-2c-0.4-0.6-0.7-1.4-1.3-1.7
			c-0.9-0.2-2.3-0.4-3-1.1c-0.4-0.4-1-0.5-1.6-0.5c-0.8,0.8-1.5,0.7-2.5,0.4c-0.6,0-1,0-1.4,0c-0.1,0-0.1,0-0.2,0
			c-1.2-0.1-1.8-0.5-2.8-0.8c-0.9,0.1-1.9,0.1-2.9,0.3c-1.3,0.8-1.3,0.3-2.5-0.1c-0.4,0-0.9,0.3-1,0.6c-0.1,0.4-0.7,1-2,1.5
			c-0.8,0.8-1,1.9-0.1,3.3l-0.9,1.3c-0.3,1.7,0,3.5-2.8,4.5c0,1.4-0.2,3,0.8,3.4l-0.9,1.9c1.5,4.8,0.1,6.5-2.3,7.1
			c0.6,1,3,1.6,0.6,3.2c-0.1,1.9-1.1,4,0.2,5.6c-1.4,1.7-1.9,3.4-1.9,5.1c0.4,2.1-0.1,4.8-0.2,7.2c-0.2,1-0.9,1.8,0.1,3.4
			c-1.4,2-1,3.8,0.5,5.5c-0.7,1.4-0.8,2.9-1.5,2.8c-0.8,1.2-0.4,1.9,0,2.4c0.7,0.8,0.5,1.6-0.4,2.3c0.1,0.2,0.5,4.7-1.1,6.4
			c-1.2,2.4,0.6,3.5,0.9,4.6c-0.4,2.2-1.7,8.8-8.9,10.8c-2.3-0.2-1.8-2.2-1.9-3.6c-1.9,0.1-4,3.4-3.4,4.9c1.4,1.5,1.1,3.1,0.2,4.8
			c-0.3,0.6-0.4,1.4-0.4,2.5c0,0.6,0.6,1.7,0.6,2.3c0,0.7,0.3,2,0.2,2.5c-0.4,2.3-0.3,6.3-1.5,6.1c-0.4,1.4,0.4,0.9,1.7,1.5
			c1.2,0.6,2.3,0.8,2.9-0.4c0.1-0.2,0.1-2.7,0.9-2.1c0.7,0.5,2,0.2,2.8,1c2.6,2.7,2.4,5,2.3,8.5c-0.5,1.3-1.3,1.3-1.5,2.7
			c-0.7,1.3-1.6,3.1-2.5,4c-0.4,0.4-1.2,1.5-0.9,2.5c0.2,0.9-1.1,1.3-0.4,2.1c0.5,0.5,2.2,0.7,1.3,1.5c-1.1,5.4,0.2,5.5,0.4,8
			c-0.2,0.3-1.1,2-1,2.5c0.2,1.5-0.7,3.1-0.9,4.6c-0.4,2.2-1.4,3.9-2.3,6.1c0.2,0.7,1.4,2.2,1.1,3.2c-0.5,1.9-0.9,3.8-1.3,5.7
			c-0.6,0.4-0.3,1.1,0.1,2c0.8,1.5,2,3.5-0.5,5.4c0.5,3.5,0.7,5.1,2.3,9.9c0.4,2.5,1.1,4.4,2.5,6.5c0.8,1.9-0.4,3.1-1.2,4.4
			c0.1,0.5,0.8,1.5,1.5,2.5c0.9,1.3,2.1,2.9,1.7,4.6c-0.3,1.2-0.9,2-1.2,3.2c-0.3,1.4,0.4,2.3-0.2,3.4c-0.4,0.8-0.6,1-1.5,1.5
			c-1.3,0.9-1.5,2.4-2.3,3.8c-0.6,1.3-3.8,1.6-3.6,3.8c-0.6,1.7-0.5,3.4-1.7,4.8c-0.9,1.2-3.2,2.4-1.7,4.2c2.2,3.1-1.8,1.8-1.5,3.6
			c-1,0.5-1.7,1.8,0.4,4.8c0.9,1.5,2,2.5,3,3.8c0.7,1.9,0.6,3.4-0.2,5.3c0.3,0,0.4,0.2,0.6,0.4c1.4,1.2,2.4-1.4,3.2-3.6
			c3.4,0.7,5-0.9,6.4-2.7c1.8-0.6,4.8,1.7,4.8-3.4c1.2,0.4,3.2-0.8,3,1.9l2.8,0.6l5.1,0.8l2.1-1.5c0.8-0.9,2.8-1.1,4.6-1.5
			c0.4,0.7,1.5,1.6,3.4,2.8l0.9-1.7c1.4,1.3,4.2,0.5,6.5,0.4c0.8,1.6,6,0.2,10.1,1.5l-0.4-2.5c1.3,0.6,1.6-0.1,1.3-1.5
			c1.4,0.3,2.8,0.6,2.7-0.6c0.8-0.2,1.5-0.6,2.3,1.1l5.7-2.3c5.9,0.2,6.9-1.6,7.8-3.4c2.1-1.1,2.3-2.2,1.9-3.2
			c2.7,0,0.5-1.8-0.6-3.2c0.3-1.5,0.1-2.8-2.1-3.2l2.8-1.7c1.9-1.7,2.6-3.5,0.9-5.7c1.5-0.5,0.8-1.5-0.2-2.5l2.3-0.2
			c0.8,1.1,2,1.1,3.8,0.2h3.6c2.6,2.3,5.2-2,7.8-3.8c1.7-0.3,4.3-0.2,4.1-1.3c0-1.5,0.6-2.9,2.2-3.8c0.9-1.2-1.6-3.3,0.8-3.7
			c0.9-1.9,2.7-1,4.2-0.5c1.8-0.3,2-3,0.8-4.2c-0.9-1.6-2.1-2.9-2.5-4.8c-0.9-1.4-1.1-3.3-2.9-4c-1.7-0.7-1.7-2.9-2.9-4
			c-1.2-1.3,1.5-2.1,1.8-3.6c1.1-1.3,0.7-3.8,1.7-5c2,0.7,2.5-1.4,2.8-2.9c0.5-1.3,0.6-3.3,2.4-3.2c1.3-0.4,3.3,0.5,3.7-1.3
			c0.6-0.7,1-1.7,1.7-2.4s7-2.8,7-2.8l35.9-14.3l16-52.7l-8-8.8l-16.9,4.2l-11.8-1.3c-0.9-1.6-4.8-0.9-3.2-3.8
			c0.9-2-0.6-3.3-1.1-3.6c0.8,0.2,1.1-2.6,0.5-4.3c0.7-1.6,3.5-4.3,0.6-5.3c-2.4-1.5-0.4-5-2.4-6.7c-0.1-0.1-0.2-0.3-0.3-0.4
			c0.2,0.1,0.1-0.3-0.2-0.4h0c0-0.1,0-0.1-0.1-0.2c0,0,0,0,0,0c0.3-0.2,0-0.3,0-0.1c-0.5-1.5,0-3.4,0.1-5.1c0.5-2.2-2-3.9-1-6.2
			c1.3-1.4-0.5-2.1-0.8-2.9c-0.4-1.4-1.8-1.9-2.1-2.2c-0.6-0.7-1.8-1.7-2.6-2.2l-0.4-0.7l0.1-10.2l-1.8-2.2l-0.6-2l-3.2-3.9v-15.9
			l-5-9.5l-6.2-8.8L168.2,203.5L168.2,203.5z"/>
	</g>
</g>
<g id="svg_2">
	<g id="svg_4">
		<path id="Calama-2" class="st0" d="M168.2,203.5l-1.2,0.2l-1.5,6.2l-15.4,9.5l-2.2,0.8v0l-17.7,5.7L119,238.3
			c-0.5-0.2-0.8-0.7-1-1.2c-0.5-0.5-0.5-1.2-0.8-1.8c-0.6-0.7-1.1-1.5-1.6-2.2c-0.4-0.7-0.8-1.3-1.1-2c-0.4-0.6-0.7-1.4-1.3-1.7
			c-0.9-0.2-2.3-0.4-3-1.1c-0.4-0.4-1-0.5-1.6-0.5c-0.8,0.8-1.5,0.7-2.5,0.4c-0.6,0-1,0-1.4,0c-0.1,0-0.1,0-0.2,0
			c-1.2-0.1-1.8-0.5-2.8-0.8c-0.9,0.1-1.9,0.1-2.9,0.3c-1.3,0.8-1.3,0.3-2.5-0.1c-0.4,0-0.9,0.3-1,0.6c-0.1,0.4-0.7,1-2,1.5
			c-0.8,0.8-1,1.9-0.1,3.3l-0.9,1.3c-0.3,1.7,0,3.5-2.8,4.5c0,1.4-0.2,3,0.8,3.4l-0.9,1.9c1.5,4.8,0.1,6.5-2.3,7.1
			c0.6,1,3,1.6,0.6,3.2c-0.1,1.9-1.1,4,0.2,5.6c-1.4,1.7-1.9,3.4-1.9,5.1c0.4,2.1-0.1,4.8-0.2,7.2c-0.2,1-0.9,1.8,0.1,3.4
			c-1.4,2-1,3.8,0.5,5.5c-0.7,1.4-0.8,2.9-1.5,2.8c-0.8,1.2-0.4,1.9,0,2.4c0.7,0.8,0.5,1.6-0.4,2.3c0.1,0.2,0.5,4.7-1.1,6.4
			c-1.2,2.4,0.6,3.5,0.9,4.6c-0.4,2.2-1.7,8.8-8.9,10.8c-2.3-0.2-1.8-2.2-1.9-3.6c-1.9,0.1-4,3.4-3.4,4.9c1.4,1.5,1.1,3.1,0.2,4.8
			c-0.3,0.6-0.4,1.4-0.4,2.5c0,0.6,0.6,1.7,0.6,2.3c0,0.7,0.3,2,0.2,2.5c-0.4,2.3-0.3,6.3-1.5,6.1c-0.4,1.4,0.4,0.9,1.7,1.5
			c1.2,0.6,2.3,0.8,2.9-0.4c0.1-0.2,0.1-2.7,0.9-2.1c0.7,0.5,2,0.2,2.8,1c2.6,2.7,2.4,5,2.3,8.5c-0.5,1.3-1.3,1.3-1.5,2.7
			c-0.7,1.3-1.6,3.1-2.5,4c-0.4,0.4-1.2,1.5-0.9,2.5c0.2,0.9-1.1,1.3-0.4,2.1c0.5,0.5,2.2,0.7,1.3,1.5c-1.1,5.4,0.2,5.5,0.4,8
			c-0.2,0.3-1.1,2-1,2.5c0.2,1.5-0.7,3.1-0.9,4.6c-0.4,2.2-1.4,3.9-2.3,6.1c0.2,0.7,1.4,2.2,1.1,3.2c-0.5,1.9-0.9,3.8-1.3,5.7
			c-0.6,0.4-0.3,1.1,0.1,2c0.8,1.5,2,3.5-0.5,5.4c0.5,3.5,0.7,5.1,2.3,9.9c0.4,2.5,1.1,4.4,2.5,6.5c0.8,1.9-0.4,3.1-1.2,4.4
			c0.1,0.5,0.8,1.5,1.5,2.5c0.9,1.3,2.1,2.9,1.7,4.6c-0.3,1.2-0.9,2-1.2,3.2c-0.3,1.4,0.4,2.3-0.2,3.4c-0.4,0.8-0.6,1-1.5,1.5
			c-1.3,0.9-1.5,2.4-2.3,3.8c-0.6,1.3-3.8,1.6-3.6,3.8c-0.6,1.7-0.5,3.4-1.7,4.8c-0.9,1.2-3.2,2.4-1.7,4.2c2.2,3.1-1.8,1.8-1.5,3.6
			c-1,0.5-1.7,1.8,0.4,4.8c0.9,1.5,2,2.5,3,3.8c0.7,1.9,0.6,3.4-0.2,5.3c0.3,0,0.4,0.2,0.6,0.4c1.4,1.2,2.4-1.4,3.2-3.6
			c3.4,0.7,5-0.9,6.4-2.7c1.8-0.6,4.8,1.7,4.8-3.4c1.2,0.4,3.2-0.8,3,1.9l2.8,0.6l5.1,0.8l2.1-1.5c0.8-0.9,2.8-1.1,4.6-1.5
			c0.4,0.7,1.5,1.6,3.4,2.8l0.9-1.7c1.4,1.3,4.2,0.5,6.5,0.4c0.8,1.6,6,0.2,10.1,1.5l-0.4-2.5c1.3,0.6,1.6-0.1,1.3-1.5
			c1.4,0.3,2.8,0.6,2.7-0.6c0.8-0.2,1.5-0.6,2.3,1.1l5.7-2.3c5.9,0.2,6.9-1.6,7.8-3.4c2.1-1.1,2.3-2.2,1.9-3.2
			c2.7,0,0.5-1.8-0.6-3.2c0.3-1.5,0.1-2.8-2.1-3.2l2.8-1.7c1.9-1.7,2.6-3.5,0.9-5.7c1.5-0.5,0.8-1.5-0.2-2.5l2.3-0.2
			c0.8,1.1,2,1.1,3.8,0.2h3.6c2.6,2.3,5.2-2,7.8-3.8c1.7-0.3,4.3-0.2,4.1-1.3c0-1.5,0.6-2.9,2.2-3.8c0.9-1.2-1.6-3.3,0.8-3.7
			c0.9-1.9,2.7-1,4.2-0.5c1.8-0.3,2-3,0.8-4.2c-0.9-1.6-2.1-2.9-2.5-4.8c-0.9-1.4-1.1-3.3-2.9-4c-1.7-0.7-1.7-2.9-2.9-4
			c-1.2-1.3,1.5-2.1,1.8-3.6c1.1-1.3,0.7-3.8,1.7-5c2,0.7,2.5-1.4,2.8-2.9c0.5-1.3,0.6-3.3,2.4-3.2c1.3-0.4,3.3,0.5,3.7-1.3
			c0.6-0.7,1-1.7,1.7-2.4s7-2.8,7-2.8l35.9-14.3l16-52.7l-8-8.8l-16.9,4.2l-11.8-1.3c-0.9-1.6-4.8-0.9-3.2-3.8
			c0.9-2-0.6-3.3-1.1-3.6c0.8,0.2,1.1-2.6,0.5-4.3c0.7-1.6,3.5-4.3,0.6-5.3c-2.4-1.5-0.4-5-2.4-6.7c-0.1-0.1-0.2-0.3-0.3-0.4
			c0.2,0.1,0.1-0.3-0.2-0.4h0c0-0.1,0-0.1-0.1-0.2c0,0,0,0,0,0c0.3-0.2,0-0.3,0-0.1c-0.5-1.5,0-3.4,0.1-5.1c0.5-2.2-2-3.9-1-6.2
			c1.3-1.4-0.5-2.1-0.8-2.9c-0.4-1.4-1.8-1.9-2.1-2.2c-0.6-0.7-1.8-1.7-2.6-2.2l-0.4-0.7l0.1-10.2l-1.8-2.2l-0.6-2l-3.2-3.9v-15.9
			l-5-9.5l-6.2-8.8L168.2,203.5L168.2,203.5z"/>
	</g>
</g>
<g id="Region_Atacama">
	<g id="Provincia_Chanaral">
		<path id="Diego_de_Almagro" class="st0" d="M165.2,418.8c0,0.1,0,0.3-0.1,0.4C165.2,419.1,165.2,418.9,165.2,418.8z M165.1,419.2
			c-0.5,0.7-2.6,0.7-4.1,1c-2.6,1.8-5.2,6.1-7.8,3.8h-3.6c-1.8,0.9-3.1,0.9-3.8-0.2l-2.3,0.2c1,1,1.7,2,0.2,2.5c1.6,2.2,1,4-0.9,5.7
			l-2.9,1.7c2.2,0.5,2.4,1.8,2.1,3.2c1.1,1.4,3.3,3.3,0.6,3.2c0.4,1.1,0.2,2.2-1.9,3.2c-0.9,1.8-1.9,3.6-7.8,3.4l-5.7,2.3
			c-0.8-1.7-1.5-1.4-2.3-1.2c0.1,1.2-1.3,0.9-2.7,0.6c0.2,1.4,0,2.2-1.3,1.5l0.4,2.5c-4.1-1.3-9.3,0.1-10.1-1.5
			c-2.3,0.1-5.1,0.9-6.5-0.4l-1,1.7c-2-1.2-2.9-2.1-3.4-2.8c-1.8,0.4-3.8,0.7-4.6,1.5l-2.1,1.5l-5.1-0.8l-2.9-0.6
			c0.2-2.7-1.9-1.5-3-1.9c0,5.2-3,2.8-4.8,3.4c-1.5,1.8-3.1,3.4-6.5,2.7c-0.9,2.2-1.8,4.8-3.2,3.6c-1.3,1.9-0.3,2.1,0,2.8
			c1,0.4,1.6,1.4,0.3,2c-0.3,0.9,1.3,1.5,0.2,2.3c-0.3,1.1,1.4,1.9,0.8,3.1c-0.5,0.5-1.7,1.4-0.3,1.7c1.1,0,1.7,0.7,1.7,1.8
			c0.4,1.4-2.1,0.4-1.8,1.8c0.4,1-1.3,0.4-1.1,1.5c-0.9,0.8,1,1.6,0.2,2.6c-0.6,0.7-0.9,1.7-0.9,2.6c0,1,0.5,1.8,1.2,2.4
			c0.6,0.8,0.2,1.9-0.9,1.8c-0.2,0.8,0.4,2.3-0.8,2.4c0,0-0.1,0-0.1,0c0,0,0.6,0.6-0.1,1.4c-0.8,0.9-2.2,2.2-0.8,3.3
			c1.5,1.5-1.2,0.6-1.3,1.5c-0.3,1.8-1.4,3.5-2.1,5.1c-1.4,1.3,1.2,2.7,1,4.1c-1.5,1.1,1.3,0.3,0.6,1.5c-1.7,1.3-0.7,3.5-2.2,4.7
			c-1.3,0.5-0.7,2-1.7,2.7c-1.2,2.2-2.9-2-3.6-0.3c-0.1,1.4-2.5,3.3-0.7,4.2c1.9,0.5-0.1,1.8,0.7,3c1.2,1,2,3.2,0.1,4.2
			c-1.6,1.6,1.3,2.8,1.3,4.2c0.2,1.6,2.5,2.6,1.9,4.4c-0.6,1.8-0.8,3.7-0.8,5.5c-1.7,0-0.2,2.2-1.7,2.1c-1.3-0.1-0.9-0.4-0.6,0.5
			c-0.6-1.5-1.4,1.4-1.8,0.8c-1.1-0.5-1.6-2.8-1.5-1.6c-0.2,0.7,0,2.7-0.3,3.3c-0.8,1.4-2,3.5-1.9,5.3c-1.9,0.9-0.5,2.7-1.5,4.2
			c0.9,1-0.4,1.8-0.5,2.5c-0.8,0.5-0.6,1-0.7,2.1c0.7,1.4-0.3,2.8,0.1,3.5c-0.3,0.8-1.7,1.5-1.4,2.3c0.8,0.2,1.3,0.2,0.9,1
			c0.2,0.8-0.9,2-0.1,2.5c0.6,0.8,0,1.8-0.2,2.7c-0.2,0.9,0,2.2-0.8,2.7c-0.9-0.2-0.7,0.5-0.1,0.9c0.6,0.7,2.2,2,0.9,2.7
			c-1.3,0.4-0.3,1.6-0.9,2.4c0.1,1-0.5,1.3-1.1,1.9c-0.5,0.8-1.5,1.1-1.4,2.2c-0.7,0-0.9,0.3-0.2,0.8c1,0.9,0,2.8-1.3,2.4l-0.8,0.9
			c0.1,0.2,0.3,0.3,0.5,0.4h0v0c0.3,0.5,0.4,1.1,0.8,1.5c0.8,0.1,0.1,0.8,0,1.2c0.5,1.3-1.3,1.5-1.4,2.8c-0.7,0.8-0.8,2-1.6,2.7
			c-1.2,0.6-1.1,2-1.8,2.8c-0.6,1-2.2,0.2-2.5,1.4c-0.4,1.1-2.2,0.5-2.4,1.9c-0.6,1-1.2,2.2-0.7,3.3c0.9,0.5,0.4,1.3,0,2
			c-0.5,1.3,0.7-0.1,1,0.7c0.5,0.8,1.4,1.7,0.8,2.6c0.8,0.7,0.9,1.6,0,2.2c1.2-0.3,2.3,1.4,0.9,2c-1.4-0.2-1.7,1.6-0.5,2.2
			c1.2,0.6-1.1,1,0.2,0.8c1.3-0.2,4.5,1.2,4.8-0.8c0.5-1.6,1.7-1.5,2.9-0.8c1.1,2.3,3.2,1,5.2,1.3c0.7,1.7-0.2,5.7,1.9,5.5
			c0.4,0.7,1.3,0.3,2.1,0.1c1-0.3,1.5,1.3,0.9,2.5c1.4,1.2,3.8-1.2,3.5-3c2.4-0.8-0.6-2.7,1.8-4.6c-1.2-1.8,0.5-1.6,1.6-2.2
			c0.5-1.4,1-1,2.1-0.8c0.8,0.2,2.1,0.2,2.9-0.2c3.8-3.3,3.7-1.2,4-3.2c-1.6-1.2,1.7-1.7,2.5-1.3c0.7-0.2,1.9-0.9,2.2-0.9
			c0.4,0,0.2,0.8,1.3,0.7c0.8-0.2,1.4-0.5,1.8-0.3c0.6,0.3,0.6,1.4,0,2.3c-0.1,2.2,3.4,3.4,2.1,5.8c2.3,1.3,0,3.4,1.4,4.8
			c1.5,0.9,0.5,1.2-0.2,2.4c-0.8,1.1,4.1,4.1,3.7,1.2c2.1-1.1,4.1-0.2,5.3,1.6c1.2,1.6,2.3,3.3,3.4,5.2c1.1-0.3,1.9,1.4,2.8,0.3
			c2.3,1,4.3-1.3,6.6-1.3c0.7,0,0.8-1,0.2-2.1c-0.3-0.6-0.6-1.5-0.6-2s-0.3-1.1-0.7-1.4c-1.7-1.2-1.1-4.5,1.1-5.7c1-0.5,1.1-0.7,1-2
			c-0.2-1.2,0-1.5,1.2-2.7c1.7-1.6,2.6-2.1,4-2.1s1.8-0.7,1.6-2.9c-0.1-1.3,0-2.1,0.6-3.3c0.6-1.1,0.7-2.1,0.7-3.6
			c-0.1-1.6,0.1-2.5,0.9-3.9c0.5-1,1.2-2.5,1.4-3.4c0.4-1.5,0.4-1.6-0.4-2.4c-0.7-0.7-0.8-1.2-0.7-2.3c0.2-1.8,1.1-3.9,1.8-4.8
			c1-1.1,1.4-4.7,0.7-6c-0.3-0.5-0.2-0.9,0.4-1.6c0.4-0.5,0.6-1.2,0.5-1.5c-0.2-0.4,0.1-0.7,0.9-1c0.6-0.2,1.2-0.8,1.5-1.2
			s0.9-1.1,1.4-1.3c1.1-0.5,3.4-4.6,3.4-5.9c0-1,1-1.2,2.1-0.5c1,0.7,2,0.5,2-0.3c0-0.3,0.5-0.9,1.1-1.3c1.2-0.8,2.5-3.2,2.5-4.3
			c0-0.4,0.4-1.2,0.9-1.8s0.9-1.3,0.8-1.4s0.2-0.9,0.6-1.6c0.6-0.9,1.1-1.2,1.8-1.2c1.2,0,1.8-0.5,2.5-2.1c0.8-1.6,2.4-7,2.7-8.9
			c0.1-0.9,0.5-1.7,1-2c0.7-0.5,0.7-0.8,0.5-3c-0.2-2.4-0.2-2.4,0.9-3.4c0.6-0.5,1.3-1,1.4-1c0.3,0,1.5-1.8,2-2.8c0,0,0,0,0,0
			c0.2-0.1,0.2-0.5,0.2-0.6c0-0.2-0.4-1.1-0.8-1.8l-0.7-1.4h0.9c0.5,0,0.9-0.1,0.9-0.3s0.4-0.7,0.8-1.2s1-1.5,1.2-2.5
			c0.4-1.4,0.7-1.8,1.8-2.4c1.6-0.9,1.7-1.3,0.4-2.2c-0.9-0.6-0.9-0.8-0.7-2.5c0.2-1.5,0.5-2.2,1.4-3c0.6-0.6,1.3-1.4,1.5-1.8
			c0.2-0.4,0.9-0.7,1.9-0.8c1.5-0.2,1.6-0.2,2.7,1.6c0.8,1.3,1.5,1.9,2.4,2.2c1.2,0.4,1.3,0.3,2.2-0.8c0.9-1.1,1-1.2,2-0.8
			c1,0.4,1.2,0.3,2.3-0.9c1.4-1.4,4.7-2.7,7-2.7c1.5,0,1.5,0,1.5-1.5c0-2,0.4-3,1.3-3.5c0.6-0.3,1-1,0.8-1.8l-5-7.7l-9.6-14.8
			l1.1-9.5l4-3.1l4-3l-4.8-25.1c-0.6-1.9-2-1.5-1.4-4.4c0.3-1.5,0.7-1.5-0.4-2.8c-0.6-0.7-1.1-1.9-1.3-3.3l-0.4-2.2l1.2-1.2
			c1.5-1.5,2-2.7,1.5-3.6C164.3,422.1,164.9,420.4,165.1,419.2L165.1,419.2z"/>
	</g>
</g>
<g id="Region_Coquimbo">
	<g id="Provincia_Elqui">
		<path id="Vicuna" class="st0" d="M73.6,607.8c-0.3,0-1.5,0.8-2.2,0.9c-0.8-0.4-4.1,0.1-2.5,1.3c-0.3,2-0.2,0-4,3.2
			c-0.8,0.4-2.1,0.3-2.9,0.1c-1.1-0.2-1.7-0.6-2.1,0.8c-1.1,0.6-2.8,0.4-1.6,2.2c-2.4,1.9,0.6,3.8-1.8,4.6c0.3,1.8-2.1,4.2-3.5,3.1
			c0.6-1.2,0-2.8-0.9-2.6c-0.8,0.2-1.7,0.6-2.1-0.1c-2.1,0.2-1.2-3.8-1.8-5.5c-2-0.4-4.1,1-5.2-1.3c-1.2-0.7-2.3-0.8-2.9,0.8
			c-0.2,1.9-3.5,0.6-4.8,0.8l0.4,1.4c0.3,1.3,0.9,1,0.4,1.8c-0.4,0.6-0.4,0.8-0.1,0.8c0.2,0,0.5-0.1,0.7-0.3c0.6-0.6,1.7,0,3.8,2
			l2,2l-0.2,1.6c-0.2,1.5-0.1,1.7,0.5,2.3c0.6,0.6,0.7,0.8,0.4,1.4c-0.2,0.4-0.2,0.8-0.1,0.9c0.1,0.2,0,0.5-0.3,0.8
			c-0.4,0.5,0,1.6,0.2,2.8c0.2,0.9,0,1.8,0.6,2.3c1.5,1.1,1.3,1.3,0,2.3c-0.2,0.1-0.3,0.5-0.4,0.9c-0.3,1.5-0.2,3.2-0.8,4.6
			c-0.3,0.8-0.3,1,0.2,1.6c0.3,0.4,0.6,0.9,0.6,1.2s0.3,1.4,0.9,1.3c1-0.2,1,0.8,0.9,2.4c0,1.3,0.5,1.8-0.1,2.2
			c-0.4,0.3-0.3,1-0.3,1.4c0,0.4-1.5,0.4-1.8,0.4c-0.5,0-0.3-0.8,0.1-1.1l-1.8,1.4c2,1-0.2,1.9-0.2,0.6c0-0.2-0.5,1.4-1,0.8
			c-0.3-0.3-1.9,1.4-0.1,1.8c0.9,0.2,0.3,2.6,1.1,2.9c0.3,0.5-0.4,1.4,0.1,2c-0.1,0.2-0.2,2.5-0.7,3s-1.8,0.6-2,0.2
			c-0.2-0.5-1.3-1.2-1,0.3c-0.6,1.6-0.4-0.1-0.8,2.5l-0.5,1.2c-0.1,1.3-1.3,1.5-3,1.9c-0.8,0.2-1.1,0.2-1.6-0.3
			c-0.3-0.3-0.5-0.8-0.5-1.1s-0.2-0.8-0.4-1c-0.4-0.5-0.4-0.5-1,0.4c-0.3,0.5-0.7,1.6-0.8,2.2c-0.1,0.6-0.6,1.8-0.4,2c0,0,0,0,0,0
			c-0.3,0.4-0.4,0.8-0.3,0.9s0,1.3-0.2,2.7c-0.1,1.4-0.6,3.5-0.4,4.9c0.3,1.8-0.2,2.9-0.3,3.5c-0.2,0.6-0.3,2,0,3
			c0.5,1.8,1,2.9,0.2,3.9c-0.6,0.8,0.6,5.6,0.8,6.4c0.1,0.5,0.3,1.6,0.4,2.4s0.5,2.2,0.9,3c0.5,1.1,0.7,1.7,0.5,2.4
			c-0.4,2.1-0.5,3-0.2,3.8c0.2,0.5,0.2,1.4,0,2.4c-0.2,1.4-0.2,1.9,0.4,4c0.4,1.3,0.7,2.9,0.8,3.5c0,0.6,0,1.8,0.4,1.8
			c0.7,0,0.8,0.2,0.4,1.4c-0.4,1.2,0.6,3.8,1.9,7.3c0.2,0.4-0.1,1.6,0.5,2.8c0.4,0.8-0.3,1.8-0.6,2.3c-0.3,0.5,0.9,1,1.1,1.4
			c0.3,0.5,0.3,2,0.5,3.4c0.1,0.9,0.2,1.5,0.3,1.9c0.1,0.2,0.2,0.5,0.3,0.7c1.1,0.8,1.5,2,0.7,3.1c-0.2,0.9-2.4,2.8-0.4,2.8
			c1.8,0.2,1,1.5,0.5,2.6c-0.5,1.3,0.8,2.1,0.9,3.1c-0.7,1.2-0.6,2.5-0.7,3.8c0,1.1-0.4,2.5,0.2,3.5c-0.1,0.6-0.5,1.2-0.7,1.8
			c0,0.7-0.2,1.7,0.7,2c1-0.1,1.5-1,2.2-1.6c1.1,0.5,2.3,1,3.5,1.4c1.6,0.7,3.4,0.3,4.8-0.6c0.3-0.9,1.4-1.2,1.9-2.2
			c0.2-1.2,1.2-0.7,1.5,0.2c1,1.6,2.5-0.3,3.3-1.1c0.9-1.2,2.2-1.8,3-3c0.9-0.5,1-1,0.2-1.7c-0.2-1.7,2-0.7,3-0.7
			c0.4,0.1,0.7,0.2,0.8,0.4c0.7,1,1.3,2.2,1.5,0.8c1.4-0.5,2.4-0.4,2.9-1.2c1-0.5,2.1-0.8,2.6-0.8c0.4,0,1-0.2,1.3-0.4
			c0.9-0.7,2.1-0.5,2.2,0.3c0.1,0.6,1.2,1.5,1,0.9c-0.3-0.7,2.7,0.1,1,1.6c-0.7,0.5,1.3,2.1,0.6,2c-0.2,0,1.1,0.9,2.3,1.5
			c2.7,0.5,3.2,1.6,2.7-0.7c-0.1-0.4,0.9,0.5,1.7,0.8l1.5,0.5c0.8,0.7-0.1,2.3-0.1,3.4c0.2,0.2,1.3,0,1.3,0.4
			c0.1,0.9-0.3,2.3,0.6,2.6c0.3-0.1,1.7-0.8,2.1-0.8c1.3-0.3,1.6-1,1.9-1.9c0.2-0.6-0.8-1.3-0.5-2.7c0.5-2.1,0.6-2.5-0.2-2.6
			c-1.2-0.2-1.5-1.7-0.9-2.5c0.1-0.1-0.1-1.1-1.7-1.3c-0.6-0.1-1.1-1.4,1.2-1.3c0.2,0,0.3,1.1,0.4,1.1c0.3-0.2,1.5,0.5,1.8,0.5
			c0.6,0,1.5-1.1,2.1-1.9c0.2-0.2,0.3-1.6,0.8-1.7c0.8,0,1.1-1.7-0.2-2.6c-0.5-0.4-0.6-0.7-1.4-1.3c-0.9-0.7,0.3-1.7-3-1.1
			c-1.6,0.3-3-0.6-3.7-1.4c-0.3-0.5-1-0.3-1.3-0.5c-0.9-0.6,0.5-0.5-0.4-3.2c-0.3-1,0-1.7,0.1-2c0.3-1.1-0.5-2.8-1.3-2.6
			c-0.7,0.1-0.9-0.6-0.9-0.7c0.2-1.3-1.7-2.6-1.2-3c-1.5-0.5-1.3,0.7-0.8-3.1c-1.3-5.6,1.3-4.1-0.3-5.9c0.3-0.9,1.6-2.9,1.4-3.2
			c-0.7-1.4-0.8-3-0.4-3.7c0.3-0.4,0.9-1.7,0.7-3.3c-0.4-3.4,0.4-4.9,1.6-5.4c0.4-0.2,0.9-2,1-1.2c0,0.5,0.9,2,1.6,2.2
			c0.7,0.3-0.3,1.4,0.8,1c2-0.8,0.9-1.1,1.3-2.3c0.3-1.1,1.9-3.2,2.2-3.4c0.7-0.5,1.8,0.3,1.8-0.4c0.1-0.6-0.2-0.6-0.6-1
			c-0.8,1-0.3-1.7-1-2.8c-1.1,0-1.2-1.2-0.2-2c0.6-0.5,0.2-2,0.6-3.4c0.3-0.9,0.7-1.6,0.5-2.2c-0.2-0.4-0.1-0.9,0.1-1
			c0.2-0.1,0.3-0.5,0.3-0.8s0.7-1.5,0.9-1.7c0.4-0.7,0.2-1.3,0.2-2c0,0,0-0.2,0-0.7c0.1-1.6,0.1-3.1,1.3-4.4
			c0.9-1.3,1.5-3.4,1.4-3.8c-0.1-0.4-0.4-0.7-0.1-1.2c0.2-0.2,0.5-0.5,1-0.8c2-1,2.5-2.2,1.7-4.1c-0.6-0.9-1.6-1.9-1-2.4
			c0.2-0.1,0.6,0,1.6,0.3c0.4,0.4,1.2,1.4,1.4,1.6c0.5,0.4,2.1,0.9,2.3,0.5c0.1-0.2,1-0.9,1.5-0.8c0.7,0.1,0.5,0.9,1.2,0.2
			c0.5-0.5,1.3-1.7,1.7-1.7c1,0,1.8,0.1,1.3-0.7c-0.5-0.7-0.8-1.2-0.1-2.8c0.2-0.5,0.7-1,0.6-1.3c-0.1-0.5-0.6-1.9,0-1.9
			c0.6-0.1,1.5,0.5,1.9-0.3c0.3-0.6,0.7-1.4,0.6-1.7c-0.2-0.4-0.4-1.1,0.3-1.1c1,0,0.4-2.2-0.5-1.7c-0.7,0.4-1.6-0.2-1.7-0.8
			c-0.1-0.4-1.2-0.9-1.9-0.3c-2.3,1.9-1.4-0.3-1.6-0.6c-1.1-1.3-0.5-0.6,0.3-1.6c0.5-0.6,1.1-1.5,0.9-2.4c-0.2-0.7,0-1.6,0.6-2.2
			c1.4-1.3-0.4-1.7-0.1-2.1c0.8-1.1,1-3.4,1.1-3.4c0.2-0.1-0.6-0.7-0.6-1s0.3-1.7,0-1.7c-0.8,0.2-1-0.2,0.3-2
			c1.2-1.7,0.3-2.9-0.4-3.5c-2-1.8-1.9-1.9-1.8-3.8c0.1-1.4,0.4-2.2,0.1-2.9c-0.2-0.6-0.6-0.5-0.8-1.2c-0.1-0.6,0.5-1.8-0.4-1.7
			c-2.2,0-4.2,2.1-6.5,1.1c-0.9,1-1.7-0.7-2.8-0.3c-1.1-1.8-2.1-3.5-3.4-5.2c-1.2-1.8-3.3-2.7-5.4-1.6c0.3,2.9-4.4-0.1-3.7-1.2
			c0.7-1.2,1.6-1.5,0.2-2.4c-1.3-1.3,0.9-3.5-1.4-4.8c1.4-2.4-2.2-3.6-2.1-5.8c0.6-0.9,0.6-2,0-2.3c-0.4-0.2-1,0.1-1.8,0.3
			C73.8,608.7,74,607.8,73.6,607.8L73.6,607.8z M33.6,618.7c-0.1,0.3,0.1,0.6,0.4,0.7C34.1,619.1,33.9,618.9,33.6,618.7z M33.2,620
			c-0.2,0-0.5,0.6-0.8,1c0,0.4,0.4,0.5,0.5,0.5c0.3,0,0.5-0.8,0.4-1.3C33.3,620,33.3,620,33.2,620L33.2,620z"/>
	</g>
</g>
<path id="Arica-Tarapaca" class="st1" d="M83.2,119c5-2.6,7.2-4.4,9.7-6c2.9-0.5,4.7-1.8,6.4-3.1c1.9,0.7,4.1-1,6.1-0.1
	c4.1-1.5,5.3-1,7.9-1.5c3.1-0.2,3.1,0.2,4.1,0.4c1.9,0,4.6-0.6,4.6,0.6c0.5-0.2,1-0.1,1.5-0.2c0.9-0.2,1.2,0.7,1.2,1.4
	c0.4,1.4,2,1,3.1,1.2c1.2,0.4,1,1.6,1.9,2.4c0.7-0.2,1.3-0.8,2-1.2c1.3-0.3,3.4-1.2,4.6-1.4c0.8-0.1,2.1,0.3,2.6-0.6
	c0.4-0.8,1.7-1.1,1.6-2.1c0.1,0,0.3,0.1,0.4,0.1c1.2-0.6,1.1-2.4,2.7-2.1c0.6-1,0.9-0.7,1.1-0.6c0.2,0.2,0.3-0.7,0.4-1.1
	c0.2-0.3,0.6-0.2,0.8-0.1"/>
<path id="Tarapaca-Antofagasta" class="st2" d="M167.3,203.6l-1.5,6.3l-15.5,9.6l-20,6.5L119,238.3c-0.5-0.2-0.8-0.7-1-1.2
	c-0.5-0.5-0.5-1.2-0.8-1.8c-0.6-0.7-1.1-1.5-1.6-2.2c-0.4-0.7-0.8-1.3-1.1-2c-0.4-0.6-0.7-1.4-1.4-1.7c-0.9-0.2-2.3-0.4-3.1-1.1
	c-0.4-0.4-1-0.5-1.6-0.5c-0.8,0.8-1.5,0.7-2.5,0.4c-2.4,0.1-3.1-0.5-4.4-0.9c-0.9,0.1-1.9,0.1-2.9,0.3c-1.3,0.8-1.3,0.3-2.5-0.1
	c-0.4,0-0.7,0.4-1,0.6"/>
<path id="Antofagasta-Atacama" class="st1" d="M165.1,418.9c0.2,1.3-2.5,1.1-4.2,1.5c-2.6,1.8-5.2,6.1-7.8,3.8h-3.6
	c-1.8,0.9-3.1,0.9-3.8-0.2l-2.3,0.2c1,1,1.7,2,0.2,2.5c1.6,2.2,1,4-0.9,5.7l-2.9,1.7c2.2,0.5,2.4,1.8,2.1,3.2
	c1.1,1.4,3.3,3.2,0.6,3.2c0.4,1.1,0.2,2.1-1.9,3.2c-0.9,1.8-1.9,3.6-7.8,3.4l-5.7,2.3c-0.8-1.7-1.5-1.4-2.3-1.1
	c0.1,1.2-1.3,0.9-2.7,0.6c0.2,1.4,0,2.2-1.3,1.5l0.4,2.5c-4.1-1.3-9.3,0.1-10.1-1.5c-2.3,0.1-5.1,0.9-6.5-0.4l-0.9,1.7
	c-2-1.2-3-2.1-3.4-2.9c-1.8,0.4-3.8,0.6-4.6,1.5l-2.1,1.5l-5.1-0.8l-2.8-0.6c0.2-2.7-1.9-1.5-3-1.9c0,5.2-3,2.8-4.8,3.4
	c-1.5,1.8-3,3.4-6.5,2.7c-0.9,2.2-1.8,4.8-3.2,3.6"/>
<path id="Atacama-Coquimbo" class="st1" d="M101.8,630.7c-2.3,0-4.3,2.1-6.6,1.1c-0.9,1-1.7-0.7-2.8-0.3c-1.1-1.8-2.2-3.6-3.4-5.2
	c-1.2-1.8-3.2-2.7-5.4-1.6c0.3,2.9-4.4-0.1-3.7-1.2c0.7-1.2,1.6-1.5,0.2-2.4c-1.3-1.3,0.9-3.5-1.4-4.8c1.4-2.4-2.2-3.6-2.1-5.8
	c0.6-0.9,0.6-2,0-2.3c-0.4-0.2-1,0.1-1.8,0.3c-1.1,0.1-0.9-0.7-1.3-0.7c-0.3,0-1.5,0.8-2.2,0.9c-0.8-0.4-4,0.1-2.5,1.3
	c-0.3,2-0.2,0-4,3.3c-0.8,0.4-2.2,0.3-3,0.1c-1.1-0.2-1.7-0.6-2.1,0.8c-1.1,0.6-2.8,0.4-1.6,2.2c-2.4,1.9,0.6,3.8-1.8,4.6
	c0.3,1.8-2.1,4.2-3.5,3c0.6-1.2,0-2.8-0.9-2.5c-0.8,0.2-1.7,0.6-2.1-0.1c-2.1,0.2-1.2-3.8-1.8-5.5c-2-0.4-4.2,1-5.3-1.3
	c-1.2-0.7-2.3-0.8-2.9,0.8c-0.2,1.9-3.5,0.6-4.8,0.8"/>
<g class="st3">
	<path class="st4" d="M178.8,76.2H177l7-16.3h1.6l7,16.3h-1.8L189,72h-8.4L178.8,76.2z M181.2,70.4h7.2l-3.6-8.6L181.2,70.4z"/>
	<path class="st4" d="M194.8,65.5h1.5c0,0.6,0.1,1.4,0.1,1.8h0c0.6-1.2,1.9-2.1,3.4-2.1c0.4,0,0.7,0,1,0.1l-0.2,1.5
		c-0.2-0.1-0.7-0.1-1.1-0.1c-1.7,0-3.1,1.2-3.1,4.1v5.5h-1.6v-8.4C194.9,67.3,194.9,66.2,194.8,65.5z"/>
	<path class="st4" d="M204,62.4c-0.6,0-1.1-0.5-1.1-1.1s0.6-1.1,1.1-1.1s1.1,0.5,1.1,1.1S204.5,62.4,204,62.4z M204.7,76.2h-1.6
		V65.5h1.6V76.2z"/>
	<path class="st4" d="M216.6,67.9c-0.5-0.8-1.6-1.4-2.8-1.4c-2.5,0-4.1,1.9-4.1,4.3c0,2.4,1.6,4.3,4.1,4.3c1.4,0,2.3-0.6,2.9-1.4
		l1.2,0.9c-0.9,1.1-2.2,1.9-4.1,1.9c-3.5,0-5.7-2.4-5.7-5.7s2.3-5.7,5.7-5.7c1.4,0,3.1,0.6,4,1.9L216.6,67.9z"/>
	<path class="st4" d="M227.2,69.3c0-1.9-1-2.8-2.9-2.8c-1.3,0-2.4,0.5-3.2,1.3l-0.9-1c0.9-0.9,2.4-1.5,4.2-1.5
		c2.3,0,4.2,1.3,4.2,3.9v4.7c0,0.8,0.1,1.8,0.2,2.4h-1.4c-0.1-0.5-0.2-1.2-0.2-1.7h0c-1,1.4-2.2,2-3.9,2c-1.6,0-3.7-0.9-3.7-3.3
		c0-3.3,3.7-3.6,7.6-3.6V69.3z M226.7,70.8c-2.6,0-5.5,0.3-5.5,2.3c0,1.5,1.3,2,2.5,2c2.2,0,3.4-1.7,3.4-3.6v-0.8H226.7z"/>
	<path class="st4" d="M242.1,74.5L242.1,74.5l3.4-9.1h1.7L241.8,79c-0.6,1.7-1.5,2.7-3.4,2.7c-0.5,0-0.9,0-1.4-0.1l0.2-1.4
		c0.3,0.1,0.7,0.2,1.1,0.2c1.1,0,1.6-0.7,2.1-1.9l0.9-2.3l-4.6-10.7h1.7L242.1,74.5z"/>
</g>
<g class="st3">
	<path class="st4" d="M255.5,60h4.6c3.3,0,5.5,1.4,5.5,4.3c0,2.9-2.2,4.4-5.5,4.4h-2.9v7.6h-1.7V60z M257.1,67.3h2.8c2.6,0,4-1,4-3
		c0-2-1.5-2.9-4-2.9h-2.8V67.3z"/>
</g>
<g class="st3">
	<path class="st4" d="M274.1,69.3c0-1.9-1-2.8-2.9-2.8c-1.3,0-2.4,0.5-3.2,1.3l-0.9-1c0.9-0.9,2.4-1.5,4.2-1.5
		c2.3,0,4.2,1.3,4.2,3.9v4.7c0,0.8,0.1,1.8,0.2,2.4h-1.4c-0.1-0.5-0.2-1.2-0.2-1.7h0c-1,1.4-2.2,2-3.9,2c-1.6,0-3.7-0.9-3.7-3.3
		c0-3.3,3.7-3.6,7.6-3.6V69.3z M273.6,70.8c-2.6,0-5.5,0.3-5.5,2.3c0,1.5,1.3,2,2.5,2c2.2,0,3.4-1.7,3.4-3.6v-0.8H273.6z"/>
	<path class="st4" d="M279.5,65.5h1.5c0,0.6,0.1,1.4,0.1,1.8h0c0.6-1.2,1.9-2.1,3.4-2.1c0.4,0,0.7,0,1,0.1l-0.2,1.5
		c-0.2-0.1-0.7-0.1-1.1-0.1c-1.7,0-3.1,1.2-3.1,4.1v5.5h-1.6v-8.4C279.6,67.3,279.6,66.2,279.5,65.5z"/>
	<path class="st4" d="M288.7,62.4c-0.6,0-1.1-0.5-1.1-1.1s0.6-1.1,1.1-1.1s1.1,0.5,1.1,1.1S289.2,62.4,288.7,62.4z M289.4,76.2h-1.6
		V65.5h1.6V76.2z"/>
	<path class="st4" d="M295,65.5c0,0.6,0.1,1.4,0.1,1.8h0c0.6-1.2,2.2-2.1,3.7-2.1c2.7,0,4.1,1.8,4.1,4.4v6.6h-1.6v-6
		c0-2.3-0.7-3.8-2.9-3.8c-1.7,0-3.3,1.3-3.3,4.2v5.5h-1.6v-8.4c0-0.6,0-1.6-0.1-2.4H295z"/>
	<path class="st4" d="M313.7,69.3c0-1.9-1-2.8-2.9-2.8c-1.3,0-2.4,0.5-3.2,1.3l-0.9-1c0.9-0.9,2.4-1.5,4.2-1.5
		c2.3,0,4.2,1.3,4.2,3.9v4.7c0,0.8,0.1,1.8,0.2,2.4H314c-0.1-0.5-0.2-1.2-0.2-1.7h0c-1,1.4-2.2,2-3.9,2c-1.6,0-3.7-0.9-3.7-3.3
		c0-3.3,3.7-3.6,7.6-3.6V69.3z M313.3,70.8c-2.6,0-5.5,0.3-5.5,2.3c0,1.5,1.3,2,2.5,2c2.2,0,3.4-1.7,3.4-3.6v-0.8H313.3z"/>
	<path class="st4" d="M327,67.9c-0.5-0.8-1.6-1.4-2.8-1.4c-2.5,0-4.1,1.9-4.1,4.3c0,2.4,1.6,4.3,4.1,4.3c1.4,0,2.3-0.6,2.9-1.4
		l1.2,0.9c-0.9,1.1-2.2,1.9-4.1,1.9c-3.5,0-5.7-2.4-5.7-5.7s2.3-5.7,5.7-5.7c1.4,0,3.1,0.6,4,1.9L327,67.9z"/>
	<path class="st4" d="M335.7,76.5c-3.3,0-5.7-2.4-5.7-5.7s2.4-5.7,5.7-5.7c3.4,0,5.7,2.4,5.7,5.7S339,76.5,335.7,76.5z M335.7,66.5
		c-2.5,0-4.1,1.9-4.1,4.3c0,2.4,1.6,4.3,4.1,4.3c2.5,0,4.1-1.9,4.1-4.3C339.7,68.4,338.2,66.5,335.7,66.5z"/>
	<path class="st4" d="M349.6,66.8h-3v6.3c0,1.6,0.7,2,1.6,2c0.4,0,0.9-0.1,1.4-0.3l0.1,1.4c-0.6,0.2-1.1,0.3-1.8,0.3
		c-1.1,0-2.8-0.5-2.8-2.9v-6.7h-2.2v-1.3h2.2v-3h1.6v3h3V66.8z"/>
	<path class="st4" d="M358.8,69.3c0-1.9-1-2.8-2.9-2.8c-1.3,0-2.4,0.5-3.2,1.3l-0.9-1c0.9-0.9,2.4-1.5,4.2-1.5
		c2.3,0,4.2,1.3,4.2,3.9v4.7c0,0.8,0.1,1.8,0.2,2.4h-1.4c-0.1-0.5-0.2-1.2-0.2-1.7h0c-1,1.4-2.2,2-3.9,2c-1.6,0-3.7-0.9-3.7-3.3
		c0-3.3,3.7-3.6,7.6-3.6V69.3z M358.4,70.8c-2.6,0-5.5,0.3-5.5,2.3c0,1.5,1.3,2,2.5,2c2.2,0,3.4-1.7,3.4-3.6v-0.8H358.4z"/>
</g>
<g class="st3">
	<path d="M203.5,157h-1.7v-14.8h-5.4v-1.5H209v1.5h-5.4V157z"/>
</g>
<g class="st3">
	<path d="M215.9,150c0-1.9-1-2.8-2.9-2.8c-1.3,0-2.4,0.5-3.2,1.3l-0.9-1c0.9-0.9,2.4-1.5,4.2-1.5c2.3,0,4.2,1.3,4.2,3.9v4.7
		c0,0.8,0.1,1.8,0.2,2.4h-1.4c-0.1-0.5-0.2-1.2-0.2-1.7h0c-1,1.4-2.2,2-3.9,2c-1.6,0-3.7-0.9-3.7-3.3c0-3.3,3.7-3.6,7.6-3.6V150z
		 M215.4,151.6c-2.6,0-5.5,0.3-5.5,2.3c0,1.5,1.3,2,2.5,2c2.2,0,3.4-1.7,3.4-3.6v-0.8H215.4z"/>
</g>
<g class="st3">
	<path d="M221.3,146.2h1.5c0,0.6,0.1,1.4,0.1,1.8h0c0.6-1.2,1.9-2.1,3.4-2.1c0.4,0,0.7,0,1,0.1l-0.2,1.5c-0.2-0.1-0.7-0.1-1.1-0.1
		c-1.7,0-3.1,1.2-3.1,4.1v5.5h-1.6v-8.4C221.4,148,221.3,147,221.3,146.2z"/>
</g>
<g class="st3">
	<path d="M236.2,150c0-1.9-1-2.8-2.9-2.8c-1.3,0-2.4,0.5-3.2,1.3l-0.9-1c0.9-0.9,2.4-1.5,4.2-1.5c2.3,0,4.2,1.3,4.2,3.9v4.7
		c0,0.8,0.1,1.8,0.2,2.4h-1.4c-0.1-0.5-0.2-1.2-0.2-1.7h0c-1,1.4-2.2,2-3.9,2c-1.6,0-3.7-0.9-3.7-3.3c0-3.3,3.7-3.6,7.6-3.6V150z
		 M235.7,151.6c-2.6,0-5.5,0.3-5.5,2.3c0,1.5,1.3,2,2.5,2c2.2,0,3.4-1.7,3.4-3.6v-0.8H235.7z"/>
	<path d="M243.2,162.5h-1.6v-16.3h1.6v1.9h0.1c0.9-1.4,2.5-2.1,4-2.1c3.4,0,5.6,2.5,5.6,5.7c0,3.2-2.2,5.7-5.6,5.7
		c-1.5,0-3.1-0.8-4-2.1h-0.1V162.5z M247.2,147.3c-2.4,0-4.1,1.9-4.1,4.3s1.7,4.3,4.1,4.3c2.6,0,4.1-1.9,4.1-4.3
		C251.2,149.2,249.8,147.3,247.2,147.3z"/>
	<path d="M263,150c0-1.9-1-2.8-2.9-2.8c-1.3,0-2.4,0.5-3.2,1.3l-0.9-1c0.9-0.9,2.4-1.5,4.2-1.5c2.3,0,4.2,1.3,4.2,3.9v4.7
		c0,0.8,0.1,1.8,0.2,2.4h-1.4c-0.1-0.5-0.2-1.2-0.2-1.7h0c-1,1.4-2.2,2-3.9,2c-1.6,0-3.7-0.9-3.7-3.3c0-3.3,3.7-3.6,7.6-3.6V150z
		 M262.6,151.6c-2.6,0-5.5,0.3-5.5,2.3c0,1.5,1.3,2,2.5,2c2.2,0,3.4-1.7,3.4-3.6v-0.8H262.6z"/>
	<path d="M276.3,148.7c-0.5-0.8-1.6-1.4-2.8-1.4c-2.5,0-4.1,1.9-4.1,4.3c0,2.4,1.6,4.3,4.1,4.3c1.4,0,2.3-0.6,2.9-1.4l1.2,0.9
		c-0.9,1.1-2.2,1.9-4.1,1.9c-3.5,0-5.7-2.4-5.7-5.7s2.3-5.7,5.7-5.7c1.4,0,3.1,0.6,4,1.9L276.3,148.7z"/>
	<path d="M286.8,150c0-1.9-1-2.8-2.9-2.8c-1.3,0-2.4,0.5-3.2,1.3l-0.9-1c0.9-0.9,2.4-1.5,4.2-1.5c2.3,0,4.2,1.3,4.2,3.9v4.7
		c0,0.8,0.1,1.8,0.2,2.4H287c-0.1-0.5-0.2-1.2-0.2-1.7h0c-1,1.4-2.2,2-3.9,2c-1.6,0-3.7-0.9-3.7-3.3c0-3.3,3.7-3.6,7.6-3.6V150z
		 M286.3,151.6c-2.6,0-5.5,0.3-5.5,2.3c0,1.5,1.3,2,2.5,2c2.2,0,3.4-1.7,3.4-3.6v-0.8H286.3z M284.2,144h-1.4l2.3-3.3h2.1L284.2,144
		z"/>
</g>
<g class="st3">
	<path class="st4" d="M260.3,295.8h-1.8l7-16.3h1.6l7,16.3h-1.8l-1.8-4.3h-8.4L260.3,295.8z M262.7,290h7.2l-3.6-8.6L262.7,290z"/>
	<path class="st4" d="M277.8,285c0,0.6,0.1,1.4,0.1,1.8h0c0.6-1.2,2.2-2.1,3.7-2.1c2.7,0,4.1,1.8,4.1,4.4v6.6h-1.6v-6
		c0-2.3-0.7-3.8-2.9-3.8c-1.7,0-3.3,1.3-3.3,4.2v5.5h-1.6v-8.4c0-0.6,0-1.6-0.1-2.4H277.8z"/>
	<path class="st4" d="M294.6,286.3h-3v6.3c0,1.6,0.7,2,1.6,2c0.4,0,0.9-0.1,1.4-0.3l0.1,1.4c-0.6,0.2-1.1,0.3-1.8,0.3
		c-1.1,0-2.8-0.5-2.8-2.9v-6.7h-2.2V285h2.2v-3h1.6v3h3V286.3z"/>
	<path class="st4" d="M302,296c-3.3,0-5.7-2.4-5.7-5.7s2.4-5.7,5.7-5.7c3.4,0,5.7,2.4,5.7,5.7S305.3,296,302,296z M302,286
		c-2.5,0-4.1,1.9-4.1,4.3c0,2.4,1.6,4.3,4.1,4.3c2.5,0,4.1-1.9,4.1-4.3C306.1,288,304.5,286,302,286z"/>
	<path class="st4" d="M315.6,286.3h-2.5v9.4h-1.6v-9.4h-2.3V285h2.3v-2.9c0-2.4,1.2-4,3.7-4c0.4,0,0.9,0,1.3,0.2l-0.3,1.4
		c-0.3-0.1-0.7-0.2-1.1-0.2c-1.7,0-2,1.2-2,2.8v2.8h2.5V286.3z"/>
	<path class="st4" d="M324.6,288.8c0-1.9-1-2.8-2.9-2.8c-1.3,0-2.4,0.5-3.2,1.3l-0.9-1c0.9-0.9,2.4-1.5,4.2-1.5
		c2.3,0,4.2,1.3,4.2,3.9v4.7c0,0.8,0.1,1.8,0.2,2.4h-1.4c-0.1-0.5-0.2-1.2-0.2-1.7h0c-1,1.4-2.2,2-3.9,2c-1.6,0-3.7-0.9-3.7-3.3
		c0-3.3,3.7-3.6,7.6-3.6V288.8z M324.2,290.4c-2.6,0-5.5,0.3-5.5,2.3c0,1.5,1.3,2,2.5,2c2.2,0,3.4-1.7,3.4-3.6v-0.8H324.2z"/>
	<path class="st4" d="M330.7,297.9c0.9,1.1,2.5,2,4.1,2c3.1,0,4.2-1.9,4.2-4.2v-2h0c-0.8,1.3-2.5,2.1-4.1,2.1
		c-3.4,0-5.6-2.3-5.6-5.5c0-3.1,2.2-5.6,5.6-5.6c1.6,0,3.2,0.8,4.1,2.1h0V285h1.6v10.7c0,2.3-1.1,5.6-5.8,5.6c-2,0-3.9-0.8-5.2-2.2
		L330.7,297.9z M335.1,294.4c2.4,0,4.1-1.7,4.1-4.2c0-2.3-1.7-4.2-4.1-4.2c-2.6,0-4.1,2-4.1,4.2C331,292.5,332.5,294.4,335.1,294.4z
		"/>
	<path class="st4" d="M351.4,288.8c0-1.9-1-2.8-2.9-2.8c-1.3,0-2.4,0.5-3.2,1.3l-0.9-1c0.9-0.9,2.4-1.5,4.2-1.5
		c2.3,0,4.2,1.3,4.2,3.9v4.7c0,0.8,0.1,1.8,0.2,2.4h-1.4c-0.1-0.5-0.2-1.2-0.2-1.7h0c-1,1.4-2.2,2-3.9,2c-1.6,0-3.7-0.9-3.7-3.3
		c0-3.3,3.7-3.6,7.6-3.6V288.8z M351,290.4c-2.6,0-5.5,0.3-5.5,2.3c0,1.5,1.3,2,2.5,2c2.2,0,3.4-1.7,3.4-3.6v-0.8H351z"/>
	<path class="st4" d="M362.6,287.6c-0.5-0.9-1.4-1.5-2.6-1.5c-1.1,0-2.3,0.5-2.3,1.7c0,1,0.8,1.5,2.6,1.8c2.5,0.5,3.7,1.5,3.7,3.1
		c0,2.5-2.1,3.3-4,3.3c-1.6,0-3.3-0.6-4.3-2.1l1.2-0.9c0.6,0.9,1.7,1.7,3,1.7c1.3,0,2.5-0.5,2.5-1.9c0-1.1-1.1-1.6-3.2-2.1
		c-1.3-0.3-3.1-0.8-3.1-2.9c0-2.2,1.9-3.1,3.8-3.1c1.5,0,3.1,0.7,3.8,1.9L362.6,287.6z"/>
	<path class="st4" d="M372,286.3h-3v6.3c0,1.6,0.7,2,1.6,2c0.4,0,0.9-0.1,1.4-0.3l0.1,1.4c-0.6,0.2-1.1,0.3-1.8,0.3
		c-1.1,0-2.8-0.5-2.8-2.9v-6.7h-2.2V285h2.2v-3h1.6v3h3V286.3z"/>
	<path class="st4" d="M381.2,288.8c0-1.9-1-2.8-2.9-2.8c-1.3,0-2.4,0.5-3.2,1.3l-0.9-1c0.9-0.9,2.4-1.5,4.2-1.5
		c2.3,0,4.2,1.3,4.2,3.9v4.7c0,0.8,0.1,1.8,0.2,2.4h-1.4c-0.1-0.5-0.2-1.2-0.2-1.7h0c-1,1.4-2.2,2-3.9,2c-1.6,0-3.7-0.9-3.7-3.3
		c0-3.3,3.7-3.6,7.6-3.6V288.8z M380.7,290.4c-2.6,0-5.5,0.3-5.5,2.3c0,1.5,1.3,2,2.5,2c2.2,0,3.4-1.7,3.4-3.6v-0.8H380.7z"/>
</g>
<g class="st3">
	<path class="st4" d="M209.8,525.7h-1.8l7-16.3h1.6l7,16.3h-1.8l-1.8-4.3h-8.4L209.8,525.7z M212.1,519.9h7.2l-3.6-8.6L212.1,519.9z
		"/>
	<path class="st4" d="M230.7,516.2h-3v6.3c0,1.6,0.7,2,1.6,2c0.4,0,0.9-0.1,1.4-0.3l0.1,1.4c-0.6,0.2-1.1,0.3-1.8,0.3
		c-1.1,0-2.8-0.5-2.8-2.9v-6.7h-2.2v-1.3h2.2v-3h1.6v3h3V516.2z"/>
	<path class="st4" d="M239.9,518.7c0-1.9-1-2.8-2.9-2.8c-1.3,0-2.4,0.5-3.2,1.3l-0.9-1c0.9-0.9,2.4-1.5,4.2-1.5
		c2.3,0,4.2,1.3,4.2,3.9v4.7c0,0.8,0.1,1.8,0.2,2.4h-1.4c-0.1-0.5-0.2-1.2-0.2-1.7h0c-1,1.4-2.2,2-3.9,2c-1.6,0-3.7-0.9-3.7-3.3
		c0-3.3,3.7-3.6,7.6-3.6V518.7z M239.5,520.3c-2.6,0-5.5,0.3-5.5,2.3c0,1.5,1.3,2,2.5,2c2.2,0,3.4-1.7,3.4-3.6v-0.8H239.5z"/>
	<path class="st4" d="M253.2,517.4c-0.5-0.8-1.6-1.4-2.8-1.4c-2.5,0-4.1,1.9-4.1,4.3c0,2.4,1.6,4.3,4.1,4.3c1.4,0,2.3-0.6,2.9-1.4
		l1.2,0.9c-0.9,1.1-2.2,1.9-4.1,1.9c-3.5,0-5.7-2.4-5.7-5.7s2.3-5.7,5.7-5.7c1.4,0,3.1,0.6,4,1.9L253.2,517.4z"/>
	<path class="st4" d="M263.7,518.7c0-1.9-1-2.8-2.9-2.8c-1.3,0-2.4,0.5-3.2,1.3l-0.9-1c0.9-0.9,2.4-1.5,4.2-1.5
		c2.3,0,4.2,1.3,4.2,3.9v4.7c0,0.8,0.1,1.8,0.2,2.4h-1.4c-0.1-0.5-0.2-1.2-0.2-1.7h0c-1,1.4-2.2,2-3.9,2c-1.6,0-3.7-0.9-3.7-3.3
		c0-3.3,3.7-3.6,7.6-3.6V518.7z M263.2,520.3c-2.6,0-5.5,0.3-5.5,2.3c0,1.5,1.3,2,2.5,2c2.2,0,3.4-1.7,3.4-3.6v-0.8H263.2z"/>
	<path class="st4" d="M274.3,514.7c1.2,0,2.6,0.4,3.3,2.3c0.7-1.5,2-2.3,3.8-2.3c2.7,0,4.1,1.8,4.1,4.4v6.6h-1.6v-6
		c0-2.3-0.8-3.8-2.8-3.8c-2.3,0-3.1,2-3.1,4v5.7h-1.6v-6.3c0-2.1-0.5-3.4-2.6-3.4c-1.5,0-3.1,1.3-3.1,4.2v5.5h-1.6v-8.4
		c0-0.6,0-1.6-0.1-2.4h1.5c0,0.6,0.1,1.4,0.1,1.8h0C271.3,515.5,272.7,514.7,274.3,514.7z"/>
	<path class="st4" d="M296.3,518.7c0-1.9-1-2.8-2.9-2.8c-1.3,0-2.4,0.5-3.2,1.3l-0.9-1c0.9-0.9,2.4-1.5,4.2-1.5
		c2.3,0,4.2,1.3,4.2,3.9v4.7c0,0.8,0.1,1.8,0.2,2.4h-1.4c-0.1-0.5-0.2-1.2-0.2-1.7h0c-1,1.4-2.2,2-3.9,2c-1.6,0-3.7-0.9-3.7-3.3
		c0-3.3,3.7-3.6,7.6-3.6V518.7z M295.8,520.3c-2.6,0-5.5,0.3-5.5,2.3c0,1.5,1.3,2,2.5,2c2.2,0,3.4-1.7,3.4-3.6v-0.8H295.8z"/>
</g>
<g class="st3">
	<path class="st4" d="M143.3,692.4c-1.1,1.6-3.2,3-6.1,3c-4.9,0-8.5-3.6-8.5-8.5s3.6-8.5,8.5-8.5c2.4,0,4.7,1,5.8,2.6l-1.4,1
		c-0.7-1.1-2.3-2.1-4.4-2.1c-4.2,0-6.8,3.3-6.8,7.1s2.6,7.1,6.8,7.1c1.9,0,3.7-0.7,4.8-2.4L143.3,692.4z"/>
</g>
<g class="st3">
	<path class="st4" d="M150.7,695.3c-3.3,0-5.7-2.4-5.7-5.7s2.4-5.7,5.7-5.7c3.4,0,5.7,2.4,5.7,5.7S154.1,695.3,150.7,695.3z
		 M150.7,685.3c-2.5,0-4.1,1.9-4.1,4.3c0,2.4,1.6,4.3,4.1,4.3c2.5,0,4.1-1.9,4.1-4.3C154.8,687.2,153.2,685.3,150.7,685.3z"/>
	<path class="st4" d="M168.7,693.2c-0.9,1.3-2.5,2.1-4,2.1c-3.4,0-5.6-2.5-5.6-5.7c0-3.2,2.2-5.7,5.6-5.7c1.5,0,3.1,0.7,4,2.1h0.1
		v-1.9h1.6v16.3h-1.6L168.7,693.2L168.7,693.2z M164.8,693.9c2.4,0,4.1-1.9,4.1-4.3s-1.7-4.3-4.1-4.3c-2.6,0-4.1,2-4.1,4.3
		C160.7,692,162.2,693.9,164.8,693.9z"/>
	<path class="st4" d="M182.2,695c0-0.6-0.1-1.4-0.1-1.8h0c-0.6,1.2-2.2,2.1-3.7,2.1c-2.7,0-4.1-1.8-4.1-4.4v-6.6h1.6v6
		c0,2.3,0.7,3.8,2.9,3.8c1.7,0,3.3-1.3,3.3-4.2v-5.5h1.6v8.4c0,0.6,0,1.6,0.1,2.4H182.2z"/>
	<path class="st4" d="M188.6,681.2c-0.6,0-1.1-0.5-1.1-1.1s0.6-1.1,1.1-1.1c0.6,0,1.1,0.5,1.1,1.1S189.1,681.2,188.6,681.2z
		 M189.4,695h-1.6v-10.8h1.6V695z"/>
	<path class="st4" d="M198.6,683.9c1.2,0,2.6,0.4,3.3,2.3c0.7-1.5,2-2.3,3.8-2.3c2.7,0,4.1,1.8,4.1,4.4v6.6h-1.6v-6
		c0-2.3-0.8-3.8-2.8-3.8c-2.3,0-3.1,2-3.1,4v5.7h-1.6v-6.3c0-2.1-0.5-3.4-2.6-3.4c-1.5,0-3.1,1.3-3.1,4.2v5.5h-1.6v-8.4
		c0-0.6,0-1.6-0.1-2.4h1.5c0,0.6,0.1,1.4,0.1,1.8h0C195.7,684.8,197.1,683.9,198.6,683.9z"/>
	<path class="st4" d="M215.4,693.2v1.8h-1.6v-17.4h1.6v8.5h0c0.9-1.4,2.5-2.1,4.1-2.1c3.4,0,5.6,2.5,5.6,5.7c0,3.2-2.2,5.7-5.6,5.7
		C218,695.3,216.4,694.5,215.4,693.2L215.4,693.2z M219.4,685.3c-2.4,0-4.1,1.9-4.1,4.3s1.7,4.3,4.1,4.3c2.6,0,4.1-1.9,4.1-4.3
		C223.4,687.2,222,685.3,219.4,685.3z"/>
	<path class="st4" d="M233.4,695.3c-3.3,0-5.7-2.4-5.7-5.7s2.4-5.7,5.7-5.7c3.4,0,5.7,2.4,5.7,5.7S236.7,695.3,233.4,695.3z
		 M233.4,685.3c-2.5,0-4.1,1.9-4.1,4.3c0,2.4,1.6,4.3,4.1,4.3c2.5,0,4.1-1.9,4.1-4.3C237.5,687.2,235.9,685.3,233.4,685.3z"/>
</g>
<path class="st0" d="M71.1,755.6c-0.3,0-0.7,0.2-1.1,0.4c-0.3,0.2-0.9,0.4-1.3,0.4s-1.6,0.4-2.6,0.8c-0.5,0.8-1.6,0.6-3,1.1
	c-0.2,1.4-0.8,0.3-1.5-0.8c-0.2-0.2-0.5-0.4-0.9-0.4c-0.6,0-3.3-0.8-2.8,0.2c-0.6,0.8,0.8,1,0.5,1.5c-1,0.6-1.2,1.1-1.7,1.7
	c-0.5,0-1.1,0.6-1.8,1.6c-1.2,1-2.3,2.2-2.9,2.2c-0.3,0-0.8-0.4-1-0.8c-0.6-1.1-0.9-1.2-1.3-0.2c-0.7,1.6-1.8,1.3-1.7,2
	c0.1,0.5-2,1.2-3.3,1.3c-0.8,0-2.2-0.4-4.1-1.2l-1.3-0.6l-0.6,0.6c-1.7,1.7-1.8,0.9-2.2,0.3l0.2,2c0,0.6,0.1,0.9,0.7,0.7
	c1.2-0.3,1.6,0.8,1.6,2c0,0.8-0.2,2.2,0,3c0.1,0.3,0.3,0.6,0.5,0.4c0.5-0.8,0.9,0.8,1.3,1c0.4,0.1,1.1,1,1.2,1.7
	c0.1,0.4,0.1,0.5-0.7,0.3c-0.3,0.2,0,1.8-0.6,2.1c0,0.9,0.6,3.7-0.9,2.7c-0.5-0.6-0.5,0-0.6,0.2c-0.1,0,0.1,0.3,0,0.8
	c0.4,0.5,0.7,1.3,0.4,2.2l0.7,1.1c0.8,0.3,0.6,1.3,0.8,2.1c0.1,0.3,0.5,0.7-0.2,0.7l-0.2,1.6c-0.3,1.4-0.7,2.3-2.5,1.7
	c0,0-0.3,0.2,0.1,0.8c0.1,0.4,0,0.9,0.2,1.1c0.7-0.3,0.6,0.6,0.5,1c-0.3,0.8-0.7,1.5-1.1,0.5l-1.1-0.5c-0.1,0.8-0.2,2.9,0.3,3.3
	c0.1,0,0,0.2,0.4,0.1c0.5,1.2,1.1,3.2,0.7,4.3c-0.1,0.2-0.3,0-0.4,0.2c-0.2,0.5-0.5,0.9-0.8,0.3l-0.7,0.5c0.1,0.3,0.3,0.5,0.3,0.8
	c0.3,1.1,0.2,2-0.1,2.6c-0.3,0.4-0.4,1.1-0.8,1.4c-0.4,0.3-0.2-0.3-1,0.3c-1,1.1-1.4,0.6-1.5,0c-0.1-0.4-0.3-0.6-0.5-0.6
	c-0.2,0-0.3,0.2-0.3,0.6c-0.1,0.2-0.5,0.6-0.6,1.1c0.3,1.2,0.1,2.7-0.6,2.4c0,0.5-1.1,0.2-1.8-0.2c-0.3-0.2-0.7-0.3-0.7,0
	c0,0.3,0,1,0.2,1.7c0.1,0.2,0.4,0.4,0.9,0.6c-0.2,0,0.1,0.6,0.4,0.8L31,816c0.4,0.4,0.1,0.8-0.5,0.9l-0.3,0.6
	c0.5,0.1,0.5,0.4,0.5,0.7c0.3,0.1,0.7,0.1,0.6,0.7l-0.3,0.6c-0.3,0.5-0.3,0.5,0,0.8c0.8,0.4,0.7,0.8,1,1.2c0,0,0,0,0,0.1
	c0.2,0.2,0.4,0.3,0.5,0.4c0.5,0.8,0.2,1.9,0.4,2.8c-0.2,1.1-2,1.2-1.9,1.4c0.1,0.6-0.1,1.6-0.7,2.6c0.1,0.2,0.3,0.4,0.7,0.7
	c0.3,0.3,0.6,0.4,0.7,0.5c0,0,0,0,0.1,0.1c0.4,0.3,0.9,0.5,1.2,1.5c0.2,0.3,0.2,0.7,0.2,0.9c0.7,0.2,1.3,0.7,1.6,1.3
	c0.6,0.9,0.3,1.4-0.1,1.8c-0.3-0.3-0.6-0.6-0.1,0.1c0.7,0.9-0.1,2.3-0.9,3.2c0.2,4.8-1.4,6-5.9,7.6c-0.4,0.1-0.6,0.3-0.7,0.9
	c-0.1,0.4-0.3,0.9-0.5,1.2s-0.3,0.6-0.3,0.9s-0.1,0.7-0.3,1.1c-0.2,0.3-0.2,1-0.2,1.4s0.1,1.2,0,1.2c0.4,0.6-0.2,0.9-0.4,1.2
	c0.2,0.1,0.4,0.5,0.6,0.2c0.7-0.9,0.8-0.5,0.9-0.3c0.3,0.4,0.9,0.3,1.1,0.8c0.4,1,0.8-0.5,1.2-0.5c0.2,0-0.3,1-0.1,1
	c0.8,0.1,0.7-0.5,1-0.1c0.3,0.3-0.1,1,0.2,0.9c0.3-0.1,0.2-0.4,1-0.4c-0.4-0.5,0.4-0.9,0.8-1c0.3-0.3,0.8-0.6,1.2-0.9
	c1-0.8,2-1.5,3-2.3c0.3,0.2,0.3,0.6,0.4,0.4l0.6-0.1l0.1-5.1c0.2-0.3,0.4-0.5,0.6-0.5c0.3,0,0.6,0.2,1,0.7l0.3-0.3h0.9l0.8,0.6h1
	c0,0,0.8-0.1,1.2,0.3c0.4-0.6,1.2-0.3,1.8-0.4c0.3-0.3,0.5-0.7,0.5-1l0-0.8c-0.8-0.8-1.2-0.2-1.4-1.2l-0.8-0.5
	c-0.8-0.8-0.3-0.9-0.3-1.2c-0.5-0.2-1.3,0-0.4-1.2l0-0.2l0.6-0.5l0.6,0.6c0.2-0.5-0.2-1.1,0.7-1.4c-0.4-1,0.4-0.8,1-0.8l0.6-0.5
	c0.3,0.1,0.4-0.4,0.5-1l0.2-0.3c-0.2-0.3-0.2-0.6-0.1-0.9c0,0,0,0,0-0.1c-0.1-0.9-0.3-1.4-0.4-1.7c-1,0-0.3-0.7-0.4-1.1
	c-0.5-0.6-0.4-1.2,0.3-1.8c-0.3-0.3,0.1-1,0.1-1.7c0-0.5-0.7-1.2,0-1.5c0.1-0.3,0.2-0.5,0.7-0.2c0.8,0.2,1.4,0.2,1.6-0.1
	c0,0,0.1,0,0.1,0l0.8-1c0.3-0.3,0.5,0,0.7,0c0.1-0.2,0.7-0.8,0.9-0.5c0.6-0.6-0.1-0.9,0.5-1.3l0.2-0.5c-0.2-0.6-0.1-0.7,0.2-0.8
	c0.1-0.6,0.3-0.7,0.2-0.7c-0.2,0-0.8-0.5-0.6-1.2c-0.3-0.4-0.4-0.8-0.4-0.8c-0.1,0,0-0.8-0.1-1.1c-0.1-0.3-0.3-0.5-0.1-0.7
	c0,0,0.1,0,0.1,0c0,0,0,0,0,0c0.2-0.1,0.4-0.3,0.4-0.5c0.4,0.1,0.7-0.1,0.9-0.3l0.5,0.1c0.2,0.1,0.3,0.4,0.9-0.1l0.5,0.2
	c0.7,0.3,1,0.2,1.2-0.2c0-0.5,0.8-0.2,1.2-0.2c0.3,0.5,0.7,0.7,1.2,0c0-0.3,0-0.7,0.1-0.9c0.2,0.1,0.4,0.3,0.7,0.1
	c0.4,0.5,0.7,0.7,0.6-0.2c0.4,0.1,0.3-0.3,1-0.2c0.4-0.2,0.4-0.3,0.4-0.6c-0.1-0.4,0.5-0.3,0.1-0.6c-0.2-0.3-0.3-0.6-0.5-0.8
	c-0.1-0.2-0.2-0.4-0.4-0.6c-0.1-0.3,0.2-0.6-0.2-0.9c-0.1-1-0.4-0.9,0-1.9c0.1-0.3-0.3-0.4-0.5-0.6c0-0.4,0-0.5,0.5-0.8
	c0.1-0.7,0.3-0.7,0.4-1.1c0.2-0.4-0.4-0.2-0.4-1c-0.3-0.7-0.4-1.2-0.7-1.3c0.2-0.2,0.2-0.4,0-0.7c0.1-0.2,0.3-0.4,0.3-0.8
	c0.3-0.1,0.7-0.1,1-0.1c0.3,0,0.7,0.1,1,0.1c0.3,0,0.6-0.3,0.9-0.4c0.3-0.2,0.5,0.1,0.8,0.2c0.5,0.1,0.5-0.3,0.6-0.7
	c0.1-0.3,0.3-0.4,0.4-0.8c0.3-0.6,0.4-0.5,0.8-0.4c0.3,0,0.6,0.1,0.7-0.2c0.3,0-0.3-0.3,1-0.2c0.1,0,0.3-0.1,0.4-0.2
	c0.3,0,0.7,0.1,1,0.1c0.3,0,0.3-0.1,0.5-0.2c0.6-0.2,1,0.1,1.5,0.2c0.2,0.6,0.1,0,1.2-0.3l0.2,0c0.5,0,0.8,0.4,0.8,0.6
	c0,0.2,0,0.9,0,0.9l0.3,0.1c0.2,0.8,0.7,0.1,1.1,0.1c0.6,0.3,0.6,0.1,1-0.1c0.1,0,0.4-0.1,0.7-0.1c0.4-0.4,0.9-0.6,1.4-0.5
	c0.2,0.4,0.3,0,0.5-0.1c0.4,0.1,0.6,0.5,0.8,0.7c0.1,0.3-0.1,0.8,0.1,0.8c0.2,0,0.6,0,0.8,0.6c0.4,0.5,0.8,1,1.2,1.4
	c-0.1,0.5-0.6,1.2,0.1,1.5c0.6,0.2,1,0.8,0.9,1.4c0.3,0.2,0.4,0.7,0.6,0.9c0.1,0.2,0.5-0.1,0.8-0.1c0.7-0.2,0.2-0.8,0.4-0.8
	c0.9,0,0.4-0.3,0.5-0.6c0.3-0.5,0.4-1,0.9-1.3c0-0.5,0.5-0.9,0.9-0.6c0.6,0.1,1.3,0.3,1.1,1.1c0.4,0.5-0.6,0.9-0.1,1.4
	c0.5,0.3,0.4,1.1,1,1.3l0.4,0.6c0.6,0,1.2,0,1.4-0.5l0.5,0.2c0.1,0,0.3,0.1,0.4,0.4l0.4,0l0.4,0.2l0,0.2l0.6,0.7h0.7l0,1.2l0.1,0.4
	c0.7,0.5-0.4,1.3,1,1.2l0-0.8c0.2-0.2,0.5-0.5,0.7-0.8c-0.4-0.4-0.4-0.5-0.3-0.6c0.4-0.4,0.7-0.8,1.1-0.8l0.2-0.6l0.8-0.5
	c0.9,0,0.8-0.3,1.6-0.8c0-0.8,0.2-0.8,0.5-0.8c0.5-0.4,0.7-0.9,1.4-1.2l0.3,0c0.3-0.5,0.5-1.3,1.1-1.5c1.1-0.3,1.6-0.9,1.4-1.8
	c-0.2-0.9-0.1-1.3,0.2-1.7c0.4-0.4,0.8-1.6,1-2.5c0.1-0.7-0.4-1.4-1.5-1.8c-0.8-0.3-0.9-0.5-1.1-1.6c-0.1-0.3-0.6-0.8-1.2-1.4
	c-0.6-0.5-1.2-1.2-1.2-1.4c-0.1-0.2-0.2-0.7-0.4-0.9c-0.4-0.6-0.7-1.2-0.9-1.8c-0.1-0.5-0.2-0.9-0.2-1.3c0-1.6-0.3-3.1-0.8-3.6
	c-0.6-0.6-0.3-1.5,0.7-2.2c0.4-0.2,0.5-0.5,0.5-0.8c0-0.3,0.1-0.7,0.2-1c0.1-0.3,0.1-0.7-0.2-1.3c-0.2-0.5-0.3-1.1-0.3-1.3
	c0-0.7-0.8-1.9-1.4-2.2c-0.3-0.2-0.9-0.4-1.2-0.6c-1-0.5-1.6-1-2-1.5c0,0,0,0,0,0c0,0,0-0.1-0.1-0.1c-0.3-0.5-0.3-0.6,0-1.2
	c0.2-0.4,0.2-1,0.2-2.2c0-0.9-0.1-1.7-0.1-1.8c0-0.1-0.4-0.5-0.9-0.8s-1-0.8-1.1-0.9c-0.2-0.4-1.2-0.5-1.6-0.4c-0.2,0.1-0.9-0.6-1-1
	c-0.2,0.2-0.5,0.4-1.1,0.5c-0.4,0.1-1.8,0.8-2.1,0.9c-0.9-0.3-0.5-1.8-0.6-2.7c0-0.4-1.1-0.2-1.3-0.4c0.1-1.2,0.9-2.8,0.1-3.4
	l-1.5-0.5c-0.8-0.3-1.8-1.2-1.7-0.8c0.5,2.3,0.1,1.1-2.7,0.7c-1.2-0.6-2.5-1.5-2.3-1.5c0.7,0.1-1.2-1.5-0.6-2c1.8-1.5-1.2-2.3-1-1.6
	c0.2,0.6-1-0.2-1-0.9C72.2,755.9,71.7,755.6,71.1,755.6L71.1,755.6z"/>
<path id="Coquimbo-Valparaiso" class="st1" d="M88.5,766.9c-0.4,1.1-0.7,1.8-2,2c-0.4,0.1-1.8,0.8-2.1,0.8c-0.9-0.3-0.5-1.8-0.6-2.6
	c0-0.4-1-0.2-1.3-0.4c0.1-1.1,0.9-2.8,0.1-3.4l-1.4-0.5c-0.8-0.3-1.8-1.2-1.7-0.8c0.5,2.3,0.1,1.1-2.6,0.7c-1.2-0.6-2.5-1.5-2.3-1.5
	c0.7,0.1-1.2-1.5-0.6-2c1.8-1.5-1.2-2.3-1-1.6c0.2,0.6-0.9-0.2-1-0.9c-0.1-0.8-1.3-1-2.2-0.3c-0.3,0.2-0.9,0.4-1.3,0.4
	s-1.6,0.4-2.6,0.9c-0.5,0.8-1.5,0.6-2.9,1.1c-0.2,1.4-0.8,0.3-1.5-0.8c-0.2-0.2-0.5-0.3-0.9-0.4c-0.6,0-3.3-0.8-2.8,0.2
	c-0.6,0.8,0.8,1,0.5,1.5c-1,0.6-1.2,1.1-1.6,1.7c-0.5,0-1.1,0.6-1.8,1.6c-1.2,1-2.2,2.1-2.9,2.1c-0.3,0-0.8-0.4-1-0.8
	c-0.6-1-0.9-1.1-1.3-0.1c-0.7,1.5-1.8,1.3-1.7,1.9c0.1,0.5-2,1.2-3.2,1.3c-0.8,0-2.2-0.4-4.1-1.2l-1.3-0.6l-0.6,0.6
	c-1.7,1.7-1.8,0.9-2.2,0.3"/>
<g class="st3">
	<path class="st4" d="M138.6,794.2L138.6,794.2l5.3-14.1h1.8l-6.2,16.3h-1.7l-6.2-16.3h1.8L138.6,794.2z"/>
</g>
<g class="st3">
	<path class="st4" d="M153.6,789.4c0-1.9-1-2.8-2.9-2.8c-1.3,0-2.4,0.5-3.2,1.3l-0.9-1c0.9-0.9,2.4-1.5,4.2-1.5
		c2.3,0,4.2,1.3,4.2,3.9v4.7c0,0.8,0.1,1.8,0.2,2.4h-1.4c-0.1-0.5-0.2-1.2-0.2-1.7h0c-1,1.4-2.2,2-3.9,2c-1.6,0-3.7-0.9-3.7-3.3
		c0-3.3,3.7-3.6,7.6-3.6V789.4z M153.2,791c-2.6,0-5.5,0.3-5.5,2.3c0,1.5,1.3,2,2.5,2c2.2,0,3.4-1.7,3.4-3.6V791H153.2z"/>
	<path class="st4" d="M160.7,796.3h-1.6V779h1.6V796.3z"/>
	<path class="st4" d="M166.5,801.9h-1.6v-16.3h1.6v1.9h0.1c0.9-1.4,2.5-2.1,4-2.1c3.4,0,5.6,2.5,5.6,5.7c0,3.2-2.2,5.7-5.6,5.7
		c-1.5,0-3.1-0.8-4-2.1h-0.1V801.9z M170.4,786.6c-2.4,0-4.1,1.9-4.1,4.3s1.7,4.3,4.1,4.3c2.6,0,4.1-1.9,4.1-4.3
		C174.5,788.6,173,786.6,170.4,786.6z"/>
	<path class="st4" d="M186.3,789.4c0-1.9-1-2.8-2.9-2.8c-1.3,0-2.4,0.5-3.2,1.3l-0.9-1c0.9-0.9,2.4-1.5,4.2-1.5
		c2.3,0,4.2,1.3,4.2,3.9v4.7c0,0.8,0.1,1.8,0.2,2.4h-1.4c-0.1-0.5-0.2-1.2-0.2-1.7h0c-1,1.4-2.2,2-3.9,2c-1.6,0-3.7-0.9-3.7-3.3
		c0-3.3,3.7-3.6,7.6-3.6V789.4z M185.8,791c-2.6,0-5.5,0.3-5.5,2.3c0,1.5,1.3,2,2.5,2c2.2,0,3.4-1.7,3.4-3.6V791H185.8z"/>
</g>
<g class="st3">
	<path class="st4" d="M191.7,785.6h1.5c0,0.6,0.1,1.4,0.1,1.8h0c0.6-1.2,1.9-2.1,3.4-2.1c0.4,0,0.7,0,1,0.1l-0.2,1.5
		c-0.2-0.1-0.7-0.1-1.1-0.1c-1.7,0-3.1,1.2-3.1,4.1v5.5h-1.6V788C191.8,787.4,191.7,786.3,191.7,785.6z"/>
</g>
<g class="st3">
	<path class="st4" d="M206.5,789.4c0-1.9-1-2.8-2.9-2.8c-1.3,0-2.4,0.5-3.2,1.3l-0.9-1c0.9-0.9,2.4-1.5,4.2-1.5
		c2.3,0,4.2,1.3,4.2,3.9v4.7c0,0.8,0.1,1.8,0.2,2.4h-1.4c-0.1-0.5-0.2-1.2-0.2-1.7h0c-1,1.4-2.2,2-3.9,2c-1.6,0-3.7-0.9-3.7-3.3
		c0-3.3,3.7-3.6,7.6-3.6V789.4z M206.1,791c-2.6,0-5.5,0.3-5.5,2.3c0,1.5,1.3,2,2.5,2c2.2,0,3.4-1.7,3.4-3.6V791H206.1z"/>
	<path class="st4" d="M213.4,783.4H212l2.3-3.3h2.1L213.4,783.4z M213.6,796.3H212v-10.8h1.6V796.3z"/>
	<path class="st4" d="M223.5,788.1c-0.5-0.9-1.4-1.5-2.6-1.5c-1.1,0-2.3,0.5-2.3,1.7c0,1,0.8,1.5,2.6,1.8c2.5,0.5,3.7,1.5,3.7,3.1
		c0,2.5-2.1,3.3-4,3.3c-1.6,0-3.3-0.6-4.3-2.1l1.2-0.9c0.6,0.9,1.7,1.7,3,1.7c1.3,0,2.5-0.5,2.5-1.9c0-1.1-1.1-1.6-3.2-2.1
		c-1.3-0.3-3.1-0.8-3.1-2.9c0-2.2,1.9-3.1,3.8-3.1c1.5,0,3.1,0.7,3.8,1.9L223.5,788.1z"/>
	<path class="st4" d="M232.9,796.6c-3.3,0-5.7-2.4-5.7-5.7s2.4-5.7,5.7-5.7c3.4,0,5.7,2.4,5.7,5.7S236.3,796.6,232.9,796.6z
		 M232.9,786.6c-2.5,0-4.1,1.9-4.1,4.3c0,2.4,1.6,4.3,4.1,4.3c2.5,0,4.1-1.9,4.1-4.3C237,788.5,235.4,786.6,232.9,786.6z"/>
</g>
</svg>
