<?xml version="1.0" encoding="iso-8859-1"?>
<!-- Generator: Adobe Illustrator 18.1.1, SVG Export Plug-In . SVG Version: 6.00 Build 0)  -->
<svg version="1.1" id="Layer_1" xmlns="http://www.w3.org/2000/svg" xmlns:xlink="http://www.w3.org/1999/xlink" x="0px" y="0px"
	 viewBox="0 0 612 792" enable-background="new 0 0 612 792" xml:space="preserve">
<g id="Region_Arica_Parinacota">
	<g id="Provincia_Arica">
		<path id="Arica" fill="#FFFFFF" stroke="#6E6D6E" stroke-width="2" d="M102.2,6.5l-9.3,7l-5.8-0.7l-2,2.1v2.2l1.3,0.7v4.7l2.1,3.3
			l0.1,2.3l-1,2.2l-1.9,3.4L84,35.8l-5.6,4.6h-3.7l-4.6,2.4l-2.5,0.1c-3.5-0.9-6.8-1-8.6,1.4c2.9,2.2,5,4.2,3,7.5
			c-0.4,0.9-0.5,1.8-1.4,2.5c-0.8-0.2,1.4,1.1,0.3,2.3c-0.8,0.6,0,1.6,0.1,2.3c0.3,0.7,0.1,1.5-0.5,1.8c0.3,0.7,1.1,1.8-0.2,2.1
			c-0.5,2.2,0,1.7,0,2.5c0,0.5-0.1,0.9,0.1,1.4c0.7,0.3,0.1,0.9,0.1,1.5c0,0.7,0.5,0.9,0.7,1.7c0.2,0.9,0.8,1.7,1,2.6
			c1.1,1.2,0.1,1.1,0.1,1.9c0,0.3,1.1,1.4,1.2,1.6c0.4,0.8,0.6,1.6,0.8,2.4c0.1,0.4,0,0.4,0.6,1c0.4,0.7,0,1.6-0.6,2.1
			c0.9,0.7-0.5,2-0.6,2.2c4.9-2.3,7.1-4,9.6-5.4c2.9-0.5,4.6-1.6,6.2-2.8c1.8,0.7,4-0.9,6-0.1c4-1.4,5.2-0.9,7.8-1.3
			c3-0.2,3,0.2,4.1,0.4c1.8,0,4.5-0.6,4.6,0.5c0.5-0.2,1-0.1,1.4-0.2c0.9-0.1,1.2,0.6,1.2,1.3c0.4,1.2,2,0.9,3.1,1
			c1.1,0.4,1,1.5,1.9,2.2c0.7-0.1,1.2-0.7,1.9-1c1.3-0.3,3.3-1.1,4.6-1.3c0.8-0.1,2.1,0.3,2.5-0.5c0.3-0.7,1.7-1,1.5-1.9l0.4,0.1
			c1.2-0.5,1.1-2.2,2.7-1.9c0.5-0.9,0.9-0.6,1.1-0.5c0.2,0.2,0.3-0.7,0.4-1c0.2-0.3,0.5-0.1,0.8-0.1c-0.1-0.7,1.1-1.9,1.5-2.3
			c-0.2-0.1-0.7-2.5-1.3-3.9c-2.9-4-1.2-3.9-2.5-5.9c0.6-1.7-2.7-2-0.7-3.1c-0.3-1.9,1.5-4.8-0.4-6.1c-1-1.9-1.9-4.6-0.5-6.3
			c-1.1-0.6-1.8-1.3-1.1-2.4c1.2-2.9-3-1.5-3-3.9c-2-1.8,1.6-2.4,2.1-3.9c2-0.6,1-2.1-0.5-2.4c-1-2.1-3.5-1.4-5.6-2.2
			c-1.4,0.9-1.7-1.7-2.1-0.8c-0.6-0.2-1.1-0.5-1.4-1c-0.8-1.2-1-3-0.4-4.1c1.1-2.6-2.1-3.9-1.6-6.1l-6-5.5V6.5z M127.2,68.8
			C127.2,68.8,127.2,68.8,127.2,68.8C127.4,68.6,127.3,68.6,127.2,68.8z"/>
	</g>
	<g id="Provincia_Parinacota">
	</g>
</g>
<g id="Region_Tarapaca">
	<g id="Provincia_Tamarugal">
		<path id="path3437" fill="#FFFFFF" stroke="#6E6D6E" stroke-width="2" d="M125.2,70.1c-0.1,0-0.3,0-0.4,0.1
			c-0.1,0.3-0.2,1.2-0.4,1c-0.1-0.1-0.5-0.4-1.1,0.5c-1.6-0.3-1.5,1.3-2.7,1.9l-0.4-0.1c0.2,0.9-1.2,1.2-1.5,1.9
			c-0.4,0.8-1.7,0.4-2.5,0.5c-1.2,0.1-3.3,1-4.6,1.3c-0.7,0.3-1.2,0.9-1.9,1c-0.9-0.7-0.7-1.8-1.9-2.2c-1.1-0.2-2.7,0.2-3.1-1
			c0-0.7-0.3-1.4-1.2-1.3c-0.5,0.2-1,0.1-1.4,0.2c-0.1-1.1-2.7-0.5-4.6-0.5c-1-0.2-1.1-0.5-4.1-0.4c-2.6,0.4-3.8-0.1-7.8,1.3
			c-1.9-0.9-4.2,0.8-6,0.1c-1.6,1.2-3.4,2.4-6.2,2.8c-2.5,1.4-4.7,3.1-9.6,5.4c0.2,0.6,0.4,1,0.2,1.7c-0.2,0.7,0.2,1.8,0.2,1.8
			l1.4,0.8c-0.3,0.8-0.2,1.1-0.1,1.4c0.8,0.5,1,0.9,1.1,1.9c0.1,0.8,0.7,1.4,0.9,2.2c0.2,0.8,0.1,1.6,0.6,2.2
			c-0.9,3.7,0.3,3.4-0.1,3.8c-0.4,0.7-1,0.8-1.7,0.6c1,0.8,1.9,1.7,3.2,2.3c-0.3,0.5,0.1,1.1,0.5,1.8l-0.6,0.3l1.2,1.2
			c-0.1,1.6,0,3.2-0.4,5c0.2,1,2.3,0.9,1,2.9c0.6,1.1,0.2,2.2,0.2,3.3l0.5,0.5l0.1,1.6c0,0,0.5,0.2-0.6,3c-0.8,2.7-0.9-0.7-1.4,3.8
			c0.2,4.3,1.9-0.4,1.2,7.1c0,0.4-2.1,1.5-1.8,1.9c0.3,0.4,0.1,0.9,1,1.3c0.3,1.5,0.1,3.5-0.3,4.3c-0.4,0.8-1.2,0.7-1.3,1.5
			c0,1.2,0.3,2.2-0.2,3.7c-0.1,1.5,1,1.9,0.2,3c0.5,0.9,0,1.2-0.2,1.7c0.5,0.6,1.1,1.1-0.1,1.8c0.3,0.9,1,1.7-0.2,2.5
			c0.4,0.2,0.7,0.5,0.9,1c0.8,0.1,1.2,0.6,1.6,1.1c-0.1,2,1.3,4.9-0.1,5c-0.5,0-0.3,1.7-0.6,2.2c0.3,0.9,0.5,2.2,0.9,2.3
			c0.4,0.2,2.4,1.1,0.7,2.6c0.3,0.5,0.9,0.4,0.9,1.4c0.2,0.2,0.2,0.5,0.2,0.7c0.6,0.4,0.9,1,0.6,1.6c0.9,1.1,0.6,1.8,0.5,2
			c0.1,0.1,1.4,1.6,1,1.9c0,0.4,0.1,0.9-0.6,1.3c-0.2,0.2-0.3,0.1-0.5,0.2c-0.2,0.1-0.2,0.1-0.3,0.3c0.6,1.2,0.4,0.8,0.4,1.3
			c0.1,0.4-0.2,0.4,0.9,1.3c0,0.2,0,0.4,0,0.6c0.1,0.3,0.2,0.5,0.4,0.7c0.3-0.1,0.5-0.5,1-0.5c1.2,0.3,1.2,0.8,2.5,0.1
			c0.7-0.2,1.5-0.2,2.3-0.3v0l0.6,0.1c1.3,0.3,1.9,0.8,4.3,0.8c1,0.2,1.7,0.3,2.5-0.4c0.6,0,1.2,0.1,1.6,0.5c0.7,0.6,2.1,0.8,3,1
			c0.7,0.2,1,1,1.4,1.5c0.3,0.6,0.7,1.2,1.1,1.8c0.5,0.7,1,1.4,1.6,2c0.4,0.5,0.4,1.1,0.8,1.6c0.2,0.5,0.5,0.9,1,1.1l11-11.1
			l19.7-5.9l15.3-8.6l1.5-5.6c-0.9-0.3-1.3-1.4-2.1-1.8c-0.5-0.5-0.3-1.2-0.7-1.8c-0.2-0.8,0.4-1.5,0.1-2.2c0-0.6,0.5-1.2,0-1.8
			c-0.5-0.7,0.6-1.5,0-2.2c0.5,0,0.8,0.4,1.2-1.2c0.7-0.9,1.1-1.3,1.7-1.5c0.2,0.1,1.7-0.3,2-1.1c-0.3-0.3-1.2-0.5-1.4-0.8
			c-0.2-0.6-0.4-0.7-1.1-0.6c-1.2-0.1-0.8-1.4-1.9-1.4c-2.1,0.3-1.5-0.5-2.6-1.2c-0.5-0.3-1.1-1.1-1.7-1.1l-1.1,0l-3.7-2.9v-4.2
			l0.4,0.1c0.1,0,1.2-0.1,1.6-0.2c0.4-0.1,1,0,1.4-0.3c0.4,0.3,0.3-1.3,0.1-2c-0.2-0.4-0.4-0.2-0.8-0.7c-0.4-0.3-0.6-0.5-0.4-1
			c0.2-0.6-0.3-1-0.6-1.4c-0.3-0.5,0.5-0.8,0.3-1.3c-0.2-0.7-0.1-1.1,0.5-1.5c-0.4-0.5-0.1-1.4-0.6-1.7c-0.5,0-1.5,0-1.8-0.5
			c-0.1,0.1-0.7,0.5-1.1,0.2l0.7-2.4l2.9-0.2l2.3-0.9h3.3l2-4.9l-1.3-1.3l0.9-2.8l-3.2-0.6c-0.1-0.5-1.5-2.7-2.5-2.9
			c-0.4-0.9-1.6-0.3-2-0.9c0.6-0.4,0.5-0.5,0.4-0.5c0.2-0.4,0.1-0.9,1.6-1.3c0.4-0.2,1-0.1,1.4-0.3l0.1-0.8l0.6-0.3l-0.1-0.6
			l1.6-2.4l0.7-0.3l5.5-6.8c1-0.2,1.8-0.5,1.4-1.3l-5.8-4.9l-3.6-1c-0.4-0.3-0.3-0.6-0.4-0.9c-2-1.8-3.9-3.8-5.9-5.5
			c-1.1-2.1-3.6-2.8-5.9-3.4c-1.1-1.9-1.4-3.9-3.1-5.2C125.5,70.1,125.4,70.1,125.2,70.1z"/>
	</g>
	<g id="Provincia_Iquique">
	</g>
</g>
<g id="svg_2">
	<g id="svg_4">
		<path id="Calama_1_" fill="#FFFFFF" stroke="#6E6D6E" stroke-width="2" d="M147.2,159.6l-1.2,0.2l-1.5,5.6l-15.2,8.6l-2.2,0.7v0
			l-17.4,5.1l-10.9,11.1c-0.5-0.2-0.8-0.6-1-1.1c-0.4-0.5-0.5-1.1-0.8-1.6c-0.6-0.6-1.1-1.3-1.6-2c-0.4-0.6-0.8-1.2-1.1-1.8
			c-0.4-0.5-0.7-1.3-1.3-1.5c-0.9-0.2-2.2-0.3-3-1c-0.4-0.4-1-0.5-1.6-0.5c-0.8,0.7-1.5,0.6-2.5,0.4c-0.5,0-1,0-1.4,0
			c-0.1,0-0.1,0-0.2,0c-1.2-0.1-1.8-0.4-2.7-0.7c-0.9,0-1.9,0.1-2.8,0.3c-1.3,0.7-1.3,0.2-2.5-0.1c-0.4,0-0.9,0.2-1,0.5
			c-0.1,0.3-0.6,0.9-1.9,1.4c-0.7,0.7-1,1.7-0.1,3l-0.9,1.2c-0.3,1.5,0,3.1-2.8,4.1c0,1.2-0.2,2.7,0.7,3.1l-0.9,1.7
			c1.5,4.3,0.1,5.8-2.3,6.4c0.6,0.9,2.9,1.5,0.6,2.9c-0.1,1.7-1.1,3.6,0.2,5.1c-1.3,1.5-1.9,3.1-1.9,4.6c0.4,1.9-0.1,4.3-0.2,6.5
			c-0.2,0.9-0.9,1.6,0.1,3.1c-1.4,1.8-1,3.4,0.5,5c-0.7,1.3-0.8,2.6-1.5,2.5c-0.8,1.1-0.4,1.7,0,2.2c0.7,0.7,0.5,1.4-0.4,2.1
			c0.1,0.2,0.5,4.3-1,5.7c-1.2,2.1,0.5,3.1,0.9,4.1c-0.4,2-1.7,7.9-8.8,9.8c-2.2-0.2-1.7-2-1.9-3.2c-1.9,0.1-3.9,3.1-3.4,4.4
			c1.4,1.3,1.1,2.8,0.2,4.3c-0.3,0.6-0.4,1.2-0.4,2.2c0,0.6,0.6,1.5,0.6,2.1c0,0.6,0.3,1.8,0.2,2.2c-0.4,2.1-0.3,5.7-1.5,5.5
			c-0.4,1.3,0.4,0.8,1.7,1.4c1.2,0.5,2.3,0.7,2.8-0.3c0.1-0.2,0.1-2.4,0.9-1.9c0.7,0.5,2,0.1,2.8,0.9c2.6,2.4,2.4,4.5,2.2,7.7
			c-0.5,1.1-1.3,1.2-1.5,2.4c-0.6,1.2-1.6,2.8-2.5,3.6c-0.4,0.3-1.2,1.3-0.9,2.2c0.2,0.8-1.1,1.2-0.4,1.9c0.5,0.5,2.1,0.6,1.3,1.4
			c-1.1,4.9,0.2,4.9,0.4,7.2c-0.2,0.3-1.1,1.8-1,2.2c0.2,1.3-0.7,2.8-0.9,4.1c-0.4,2-1.4,3.5-2.2,5.5c0.2,0.7,1.4,2,1.1,2.9
			c-0.5,1.7-0.9,3.4-1.3,5.1c-0.6,0.4-0.3,1,0.1,1.8c0.8,1.4,1.9,3.2-0.5,4.8c0.5,3.1,0.7,4.6,2.2,8.9c0.4,2.2,1.1,4,2.4,5.8
			c0.8,1.7-0.4,2.8-1.1,3.9c0.1,0.4,0.8,1.4,1.5,2.2c0.9,1.2,2,2.6,1.7,4.1c-0.3,1.1-0.8,1.8-1.1,2.9c-0.3,1.2,0.4,2-0.2,3.1
			c-0.4,0.8-0.6,0.9-1.5,1.4c-1.3,0.8-1.5,2.1-2.2,3.4c-0.6,1.2-3.7,1.4-3.5,3.4c-0.6,1.5-0.5,3.1-1.7,4.3c-0.9,1.1-3.1,2.1-1.7,3.8
			c2.1,2.8-1.8,1.7-1.5,3.2c-1,0.4-1.6,1.6,0.4,4.3c0.9,1.4,2,2.2,3,3.4c0.7,1.7,0.6,3.1-0.2,4.8c0.3,0,0.4,0.2,0.6,0.3
			c1.4,1,2.3-1.2,3.2-3.2c3.4,0.7,4.9-0.8,6.3-2.4c1.8-0.6,4.7,1.6,4.7-3.1c1.1,0.4,3.2-0.7,3,1.7l2.8,0.5l5,0.7l2.1-1.4
			c0.8-0.8,2.8-1,4.5-1.4c0.4,0.6,1.4,1.5,3.4,2.6l0.9-1.5c1.3,1.2,4.1,0.4,6.4,0.3c0.8,1.5,5.9,0.2,9.9,1.4l-0.4-2.3
			c1.3,0.6,1.5-0.1,1.3-1.4c1.3,0.3,2.7,0.6,2.6-0.5c0.7-0.2,1.5-0.5,2.2,1l5.6-2.1c5.8,0.1,6.8-1.4,7.7-3.1c2.1-1,2.3-2,1.9-2.9
			c2.7,0,0.5-1.6-0.6-2.9c0.3-1.3,0.1-2.5-2.1-2.9l2.8-1.5c1.9-1.5,2.5-3.2,0.9-5.1c1.5-0.5,0.8-1.3-0.2-2.2l2.2-0.2
			c0.7,1,2,1,3.8,0.2h3.6c2.6,2.1,5.1-1.8,7.7-3.4c1.7-0.3,4.2-0.2,4-1.2c0-1.4,0.6-2.6,2.1-3.4c0.9-1.1-1.6-2.9,0.8-3.3
			c0.9-1.7,2.6-0.9,4.1-0.5c1.8-0.2,1.9-2.7,0.7-3.8c-0.9-1.4-2.1-2.6-2.4-4.3c-0.9-1.3-1.1-3-2.9-3.6c-1.7-0.7-1.6-2.6-2.9-3.6
			c-1.2-1.2,1.5-1.9,1.8-3.2c1.1-1.1,0.7-3.4,1.7-4.5c1.9,0.6,2.4-1.2,2.8-2.6c0.5-1.1,0.6-2.9,2.4-2.9c1.3-0.3,3.3,0.5,3.6-1.2
			c0.6-0.7,1-1.5,1.6-2.1s6.9-2.5,6.9-2.5l35.4-12.9l15.7-47.4l-7.9-7.9l-16.6,3.8l-11.7-1.2c-0.9-1.5-4.7-0.8-3.1-3.4
			c0.8-1.8-0.6-3-1.1-3.2c0.8,0.2,1.1-2.3,0.5-3.9c0.7-1.4,3.4-3.9,0.6-4.8c-2.3-1.4-0.4-4.5-2.4-6c-0.1-0.1-0.2-0.3-0.3-0.4
			c0.2,0.1,0.1-0.3-0.2-0.4c0,0,0,0,0,0c0-0.1,0-0.1-0.1-0.2c0,0,0,0,0,0c0.3-0.2,0-0.2,0-0.1c-0.5-1.4,0-3,0.1-4.6
			c0.5-2-1.9-3.5-1-5.6c1.3-1.2-0.5-1.9-0.7-2.6c-0.4-1.3-1.8-1.7-2.1-1.9c-0.6-0.6-1.8-1.5-2.6-1.9l-0.4-0.6l0.1-9.1l-1.8-2
			l-0.6-1.8l-3.1-3.5v-14.3l-5-8.6l-6.1-7.9L147.2,159.6z"/>
	</g>
	<g id="svg_6">
	</g>
	<g id="svg_8">
	</g>
</g>
<g id="Region_Atacama">
	<g id="Provincia_Chanaral">
		<path id="Diego_de_Almagro" fill="#FFFFFF" stroke="#6E6D6E" stroke-width="2" d="M144.3,353.5c0,0.1,0,0.2-0.1,0.4
			C144.3,353.8,144.3,353.6,144.3,353.5z M144.2,353.9c-0.5,0.7-2.6,0.6-4,0.9c-2.6,1.6-5.1,5.5-7.7,3.4h-3.6
			c-1.7,0.8-3,0.8-3.8-0.2l-2.2,0.2c1,0.9,1.7,1.8,0.2,2.2c1.6,2,1,3.6-0.9,5.1l-2.8,1.5c2.2,0.4,2.3,1.6,2.1,2.9
			c1.1,1.3,3.3,2.9,0.6,2.9c0.4,1,0.2,2-1.9,2.9c-0.9,1.6-1.9,3.2-7.7,3.1l-5.6,2.1c-0.7-1.6-1.5-1.2-2.2-1c0.1,1.1-1.3,0.8-2.6,0.5
			c0.2,1.2,0,2-1.3,1.4l0.4,2.2c-4-1.2-9.2,0.1-9.9-1.4c-2.3,0.1-5,0.8-6.4-0.4l-1,1.5c-1.9-1.1-2.9-1.9-3.4-2.6
			c-1.7,0.4-3.7,0.6-4.5,1.4l-2.1,1.4l-5-0.7l-2.8-0.5c0.2-2.4-1.8-1.4-3-1.7c0,4.7-2.9,2.5-4.7,3.1c-1.4,1.6-3,3.1-6.4,2.4
			c-0.9,2-1.8,4.3-3.2,3.2c-1.3,1.7-0.3,1.9,0,2.6c1,0.3,1.5,1.3,0.3,1.8c-0.3,0.8,1.2,1.4,0.2,2.1c-0.3,1,1.4,1.7,0.8,2.8
			c-0.5,0.4-1.6,1.3-0.3,1.5c1.1,0,1.7,0.6,1.6,1.6c0.4,1.3-2.1,0.4-1.8,1.6c0.4,0.9-1.3,0.3-1,1.4c-0.9,0.7,1,1.4,0.2,2.3
			c-0.6,0.7-0.9,1.5-0.9,2.4c0,0.9,0.5,1.6,1.1,2.2c0.6,0.7,0.2,1.7-0.9,1.6c-0.1,0.7,0.4,2.1-0.8,2.1c0,0-0.1,0-0.1,0
			c0,0,0.6,0.6-0.1,1.3c-0.8,0.8-2.2,2-0.8,3c1.4,1.4-1.2,0.5-1.3,1.4c-0.3,1.7-1.3,3.1-2.1,4.6c-1.4,1.2,1.2,2.4,1,3.7
			c-1.5,1,1.3,0.3,0.6,1.4c-1.7,1.2-0.6,3.1-2.1,4.2c-1.3,0.5-0.7,1.8-1.7,2.4c-1.1,2-2.8-1.8-3.5-0.3c-0.1,1.2-2.5,2.9-0.7,3.8
			c1.9,0.4-0.1,1.6,0.6,2.7c1.2,0.9,1.9,2.9,0.1,3.7c-1.6,1.4,1.3,2.5,1.3,3.8c0.2,1.4,2.5,2.4,1.8,4c-0.6,1.6-0.8,3.3-0.7,4.9
			c-1.7,0-0.2,1.9-1.6,1.9c-1.3-0.1-0.9-0.3-0.6,0.5c-0.6-1.4-1.4,1.2-1.8,0.7c-1.1-0.4-1.5-2.5-1.4-1.5c-0.2,0.6,0,2.4-0.3,3
			c-0.8,1.3-2,3.2-1.9,4.8c-1.9,0.8-0.5,2.5-1.4,3.8c0.8,0.9-0.4,1.6-0.5,2.3c-0.8,0.5-0.6,0.9-0.7,1.9c0.7,1.3-0.3,2.5,0.1,3.2
			c-0.3,0.7-1.6,1.3-1.4,2.1c0.7,0.2,1.2,0.2,0.9,0.9c0.2,0.7-0.9,1.8-0.1,2.2c0.6,0.7,0,1.6-0.2,2.4c-0.2,0.8,0,1.9-0.8,2.4
			c-0.9-0.2-0.7,0.5-0.1,0.8c0.6,0.6,2.1,1.8,0.9,2.4c-1.2,0.4-0.3,1.4-0.9,2.2c0.1,0.9-0.5,1.1-1,1.7c-0.5,0.7-1.5,1-1.4,2
			c-0.7,0-0.9,0.3-0.2,0.7c1,0.8,0,2.5-1.3,2.2l-0.8,0.8c0.1,0.2,0.3,0.3,0.5,0.4c0,0,0,0,0,0c0,0,0,0,0,0c0.3,0.4,0.4,1,0.8,1.3
			c0.8,0.1,0.1,0.7,0,1.1c0.5,1.2-1.2,1.3-1.4,2.5c-0.7,0.8-0.8,1.8-1.6,2.4c-1.1,0.5-1,1.8-1.8,2.5c-0.6,0.9-2.2,0.2-2.5,1.3
			c-0.4,1-2.1,0.5-2.4,1.7c-0.6,0.9-1.2,2-0.7,3c0.9,0.4,0.4,1.2,0,1.8c-0.5,1.1,0.7-0.1,1,0.6c0.5,0.7,1.4,1.5,0.8,2.4
			c0.8,0.6,0.9,1.4,0,2c1.2-0.3,2.3,1.3,0.9,1.8c-1.4-0.2-1.6,1.5-0.5,2c1.1,0.5-1.1,0.9,0.2,0.7c1.3-0.2,4.5,1,4.7-0.7
			c0.5-1.4,1.7-1.3,2.8-0.7c1.1,2.1,3.2,0.9,5.2,1.2c0.7,1.5-0.2,5.1,1.8,4.9c0.4,0.7,1.3,0.3,2.1,0.1c1-0.2,1.5,1.2,0.9,2.3
			c1.4,1.1,3.8-1.1,3.4-2.7c2.4-0.7-0.6-2.4,1.8-4.1c-1.2-1.6,0.5-1.4,1.6-2c0.4-1.3,1-0.9,2.1-0.7c0.8,0.2,2.1,0.2,2.9-0.1
			c3.7-3,3.6-1.1,3.9-2.9c-1.6-1.1,1.7-1.5,2.4-1.2c0.7-0.1,1.9-0.8,2.2-0.8c0.4,0,0.2,0.7,1.3,0.6c0.7-0.2,1.4-0.4,1.8-0.3
			c0.6,0.3,0.6,1.3,0,2.1c-0.1,2,3.4,3.1,2,5.2c2.2,1.2,0,3.1,1.4,4.3c1.5,0.8,0.5,1.1-0.2,2.1c-0.7,1,4,3.7,3.7,1.1
			c2.1-1,4-0.2,5.3,1.4c1.2,1.5,2.3,3,3.4,4.7c1.1-0.3,1.9,1.2,2.7,0.3c2.3,0.9,4.3-1.2,6.5-1.2c0.7,0,0.8-0.9,0.2-1.9
			c-0.3-0.6-0.6-1.4-0.6-1.8s-0.3-1-0.6-1.2c-1.7-1.1-1.1-4.1,1-5.1c1-0.5,1.1-0.6,1-1.8c-0.2-1.1,0-1.4,1.1-2.4
			c1.6-1.4,2.6-1.9,4-1.9c1.4,0,1.8-0.6,1.6-2.6c-0.1-1.2,0-1.9,0.6-3c0.6-1,0.7-1.9,0.7-3.3c-0.1-1.5,0.1-2.3,0.9-3.5
			c0.5-0.9,1.1-2.3,1.4-3.1c0.4-1.3,0.4-1.5-0.4-2.2c-0.6-0.6-0.8-1.1-0.6-2.1c0.2-1.6,1-3.5,1.8-4.3c1-1,1.3-4.2,0.6-5.4
			c-0.3-0.4-0.2-0.8,0.4-1.4c0.4-0.5,0.6-1.1,0.5-1.4c-0.2-0.4,0.1-0.6,0.9-0.9c0.6-0.2,1.2-0.7,1.4-1.1c0.2-0.4,0.9-1,1.4-1.2
			c1-0.5,3.4-4.1,3.4-5.3c0-0.9,1-1.1,2-0.4c1,0.6,1.9,0.5,1.9-0.3c0-0.3,0.5-0.8,1.1-1.2c1.2-0.8,2.5-2.9,2.5-3.9
			c0-0.4,0.4-1.1,0.9-1.7c0.5-0.6,0.8-1.1,0.7-1.3c-0.1-0.2,0.2-0.8,0.6-1.4c0.6-0.8,1.1-1.1,1.8-1.1c1.2,0,1.7-0.5,2.5-1.9
			c0.8-1.4,2.4-6.3,2.6-8c0.1-0.8,0.5-1.5,1-1.8c0.7-0.5,0.7-0.7,0.5-2.7c-0.2-2.1-0.2-2.2,0.9-3c0.6-0.5,1.3-0.9,1.4-0.9
			c0.3,0,1.5-1.6,2-2.5c0,0,0,0,0,0c0.2-0.1,0.2-0.4,0.2-0.5c0-0.2-0.3-1-0.7-1.6l-0.7-1.2h0.9c0.5,0,0.9-0.1,0.9-0.3
			c0-0.2,0.4-0.7,0.8-1c0.4-0.4,0.9-1.4,1.2-2.2c0.3-1.3,0.7-1.7,1.8-2.2c1.6-0.8,1.7-1.2,0.4-1.9c-0.8-0.5-0.9-0.7-0.7-2.3
			c0.2-1.3,0.5-1.9,1.4-2.7c0.6-0.5,1.3-1.3,1.5-1.6c0.2-0.4,0.9-0.6,1.8-0.8c1.5-0.2,1.5-0.2,2.6,1.4c0.8,1.2,1.4,1.7,2.4,2
			c1.2,0.3,1.3,0.3,2.2-0.8c0.8-1,1-1,2-0.7c1,0.3,1.2,0.3,2.3-0.8c1.4-1.3,4.7-2.4,6.9-2.4c1.4,0,1.5,0,1.5-1.3
			c0-1.8,0.4-2.7,1.3-3.2c0.6-0.3,1-0.9,0.8-1.7l-4.9-6.9l-9.4-13.4l1-8.6l3.9-2.8l4-2.7l-4.7-22.6c-0.6-1.7-2-1.3-1.4-3.9
			c0.3-1.3,0.7-1.3-0.4-2.5c-0.6-0.6-1.1-1.7-1.3-3l-0.4-2l1.2-1.1c1.5-1.4,2-2.4,1.5-3.2C143.4,356.5,143.9,354.9,144.2,353.9z"/>
	</g>
	<g id="Provincia_Copiapo">
	</g>
	<g id="Provincia_Huasco">
	</g>
</g>
<g id="Region_Coquimbo">
	<g id="Provincia_Elqui">
		<path id="Vicuna" fill="#FFFFFF" stroke="#6E6D6E" stroke-width="2" d="M54.2,523.7c-0.3,0-1.5,0.7-2.2,0.8
			c-0.8-0.4-4,0.1-2.4,1.2c-0.3,1.8-0.2,0-3.9,2.9c-0.8,0.3-2.1,0.3-2.9,0.1c-1.1-0.2-1.7-0.5-2.1,0.7c-1.1,0.5-2.7,0.3-1.6,2
			c-2.3,1.7,0.6,3.4-1.8,4.1c0.3,1.6-2.1,3.8-3.4,2.8c0.6-1.1,0-2.5-0.9-2.3c-0.7,0.2-1.6,0.6-2.1-0.1c-2,0.2-1.1-3.4-1.8-4.9
			c-2-0.3-4.1,0.9-5.2-1.2c-1.2-0.6-2.3-0.7-2.8,0.7c-0.2,1.7-3.4,0.5-4.7,0.7l0.4,1.3c0.3,1.2,0.9,0.9,0.4,1.7
			c-0.4,0.6-0.4,0.8-0.1,0.8c0.2,0,0.5-0.1,0.7-0.3c0.6-0.5,1.7,0,3.7,1.8l2,1.8l-0.2,1.4c-0.1,1.3-0.1,1.5,0.5,2.1
			c0.6,0.6,0.7,0.7,0.4,1.3c-0.2,0.3-0.2,0.7-0.1,0.8c0.1,0.1-0.1,0.5-0.3,0.7c-0.4,0.4,0,1.5,0.2,2.5c0.1,0.8,0,1.7,0.6,2.1
			c1.5,1,1.2,1.2,0,2.1c-0.2,0.1-0.3,0.4-0.4,0.8c-0.3,1.4-0.2,2.9-0.8,4.2c-0.3,0.7-0.3,0.9,0.2,1.4c0.3,0.3,0.6,0.8,0.6,1
			s0.3,1.3,0.9,1.2c1-0.2,0.9,0.7,0.9,2.2c0,1.2,0.5,1.7-0.1,2c-0.4,0.2-0.3,0.9-0.3,1.2c0,0.4-1.5,0.4-1.8,0.4
			c-0.5,0-0.3-0.7,0.1-1l-1.7,1.3c1.9,0.9-0.2,1.7-0.2,0.6c0-0.2-0.5,1.2-1,0.7c-0.3-0.3-1.9,1.3-0.1,1.7c0.9,0.2,0.3,2.4,1.1,2.6
			c0.3,0.5-0.4,1.3,0.1,1.8c-0.1,0.1-0.2,2.3-0.6,2.7c-0.5,0.4-1.8,0.6-2,0.1c-0.2-0.4-1.3-1.1-1,0.3c-0.6,1.4-0.4-0.1-0.8,2.3
			l-0.5,1c-0.1,1.2-1.3,1.4-2.9,1.7c-0.8,0.2-1.1,0.1-1.5-0.3c-0.3-0.3-0.5-0.7-0.5-1s-0.2-0.7-0.4-0.9c-0.3-0.4-0.4-0.4-1,0.4
			c-0.3,0.5-0.7,1.4-0.8,2c-0.1,0.5-0.6,1.6-0.4,1.8c0,0,0,0,0,0c-0.3,0.3-0.4,0.7-0.3,0.8c0.1,0.1,0,1.1-0.2,2.4
			c-0.1,1.2-0.6,3.2-0.4,4.4c0.3,1.6-0.2,2.6-0.3,3.2c-0.2,0.5-0.3,1.8,0,2.7c0.5,1.6,1,2.6,0.2,3.5c-0.6,0.7,0.6,5,0.8,5.8
			c0.2,0.4,0.3,1.4,0.4,2.2c0.1,0.8,0.5,2,0.9,2.7c0.5,1,0.7,1.6,0.5,2.2c-0.4,1.9-0.5,2.8-0.2,3.4c0.2,0.5,0.2,1.2,0,2.2
			c-0.2,1.3-0.2,1.7,0.4,3.6c0.4,1.2,0.7,2.6,0.7,3.1c0,0.6,0,1.7,0.4,1.6c0.6,0,0.8,0.2,0.4,1.3c-0.4,1,0.6,3.4,1.9,6.6
			c0.1,0.3-0.1,1.4,0.5,2.5c0.4,0.8-0.3,1.6-0.6,2.1c-0.3,0.4,0.9,0.9,1.1,1.2c0.3,0.5,0.3,1.8,0.5,3c0.1,0.8,0.2,1.3,0.3,1.7
			c0.1,0.2,0.2,0.5,0.3,0.6c1.1,0.7,1.5,1.8,0.7,2.8c-0.2,0.8-2.3,2.5-0.4,2.5c1.8,0.1,0.9,1.4,0.5,2.3c-0.5,1.1,0.7,1.9,0.9,2.8
			c-0.7,1-0.6,2.3-0.7,3.5c0,1-0.4,2.3,0.2,3.2c-0.1,0.6-0.5,1-0.7,1.6c0,0.6-0.2,1.5,0.6,1.8c0.9-0.1,1.5-0.9,2.2-1.5
			c1.1,0.4,2.3,0.9,3.4,1.3c1.6,0.6,3.3,0.2,4.8-0.5c0.3-0.8,1.4-1.1,1.8-2c0.2-1.1,1.2-0.6,1.5,0.2c1,1.4,2.4-0.3,3.3-1
			c0.8-1.1,2.1-1.6,3-2.7c0.9-0.4,1-0.9,0.2-1.5c-0.2-1.5,1.9-0.6,2.9-0.6c0.4,0.1,0.7,0.1,0.8,0.4c0.7,0.9,1.3,1.9,1.5,0.7
			c1.4-0.5,2.4-0.3,2.9-1c1-0.4,2.1-0.8,2.5-0.8c0.4,0,1-0.2,1.3-0.4c0.9-0.6,2-0.4,2.1,0.3c0.1,0.6,1.2,1.3,1,0.8
			c-0.3-0.6,2.7,0.1,1,1.4c-0.6,0.5,1.3,1.9,0.6,1.8c-0.2,0,1.1,0.8,2.2,1.3c2.7,0.4,3.1,1.5,2.6-0.6c-0.1-0.3,0.9,0.5,1.7,0.7
			l1.4,0.5c0.8,0.6-0.1,2-0.1,3.1c0.2,0.2,1.3,0,1.3,0.4c0.1,0.8-0.3,2.1,0.6,2.4c0.3-0.1,1.7-0.7,2.1-0.8c1.3-0.3,1.6-0.9,1.9-1.7
			c0.2-0.5-0.8-1.2-0.5-2.4c0.5-1.9,0.6-2.2-0.2-2.4c-1.2-0.2-1.4-1.5-0.9-2.3c0.1-0.1-0.1-1-1.6-1.2c-0.6-0.1-1.1-1.3,1.2-1.2
			c0.2,0,0.3,1,0.4,1c0.3-0.2,1.4,0.4,1.7,0.4c0.6,0,1.4-1,2-1.7c0.2-0.2,0.3-1.5,0.8-1.5c0.8,0,1.1-1.5-0.2-2.3
			c-0.5-0.3-0.6-0.6-1.4-1.2c-0.9-0.6,0.3-1.5-3-1c-1.5,0.2-3-0.5-3.6-1.3c-0.3-0.4-1-0.3-1.3-0.5c-0.9-0.5,0.5-0.4-0.4-2.8
			c-0.3-0.9,0-1.5,0.1-1.8c0.3-1-0.5-2.5-1.3-2.3c-0.7,0.1-0.9-0.5-0.9-0.6c0.2-1.2-1.6-2.4-1.2-2.7c-1.5-0.4-1.3,0.6-0.8-2.8
			c-1.3-5,1.3-3.7-0.3-5.3c0.3-0.9,1.5-2.6,1.4-2.8c-0.7-1.2-0.8-2.7-0.4-3.3c0.3-0.4,0.9-1.6,0.7-3c-0.4-3,0.4-4.4,1.5-4.9
			c0.4-0.2,0.9-1.8,1-1.1c0,0.4,0.9,1.8,1.6,2c0.7,0.2-0.3,1.3,0.7,0.9c2-0.7,0.9-1,1.3-2.1c0.3-1,1.8-2.9,2.2-3.1
			c0.7-0.4,1.7,0.3,1.8-0.4c0.1-0.5-0.2-0.6-0.6-0.9c-0.8,0.9-0.3-1.5-1-2.5c-1,0-1.2-1.1-0.2-1.8c0.6-0.4,0.2-1.8,0.6-3.1
			c0.3-0.8,0.7-1.5,0.5-2c-0.2-0.4,0-0.8,0.1-0.9c0.2-0.1,0.3-0.4,0.3-0.8c0-0.3,0.7-1.3,0.9-1.5c0.4-0.6,0.2-1.2,0.2-1.8
			c0,0,0-0.2,0-0.6c0.1-1.4,0.1-2.8,1.3-4c0.9-1.2,1.4-3.1,1.4-3.4c-0.1-0.3-0.4-0.7-0.1-1.1c0.1-0.2,0.5-0.4,1-0.7
			c2-0.9,2.4-2,1.7-3.7c-0.6-0.8-1.6-1.7-1-2.1c0.2-0.1,0.6,0,1.6,0.3c0.4,0.3,1.1,1.3,1.4,1.5c0.5,0.4,2,0.8,2.3,0.5
			c0.1-0.2,1-0.8,1.5-0.7c0.7,0.1,0.5,0.8,1.2,0.2c0.5-0.4,1.3-1.5,1.7-1.5c1,0,1.8,0.1,1.3-0.6c-0.5-0.7-0.8-1.1-0.1-2.6
			c0.2-0.5,0.7-0.9,0.6-1.2c-0.1-0.5-0.6-1.7,0-1.7c0.6-0.1,1.4,0.5,1.8-0.3c0.3-0.5,0.7-1.3,0.6-1.5c-0.2-0.4-0.4-1,0.3-1
			c1,0,0.4-2-0.5-1.5c-0.7,0.4-1.5-0.2-1.7-0.7c-0.1-0.4-1.2-0.8-1.9-0.3c-2.2,1.7-1.4-0.3-1.6-0.5c-1.1-1.2-0.5-0.5,0.3-1.4
			c0.5-0.6,1.1-1.3,0.9-2.2c-0.2-0.6,0-1.5,0.6-2c1.3-1.2-0.4-1.5-0.1-1.9c0.8-1,1-3,1-3.1c0.2-0.1-0.6-0.6-0.6-0.9s0.3-1.6,0-1.5
			c-0.8,0.2-1-0.1,0.3-1.8c1.1-1.5,0.3-2.6-0.4-3.2c-2-1.6-1.9-1.7-1.7-3.5c0.1-1.2,0.4-2,0.1-2.6c-0.2-0.5-0.6-0.5-0.8-1
			c-0.1-0.5,0.5-1.6-0.4-1.5c-2.1,0-4.1,1.9-6.4,1c-0.9,0.9-1.6-0.6-2.7-0.3c-1.1-1.6-2.1-3.2-3.3-4.6c-1.2-1.6-3.2-2.4-5.3-1.5
			c0.3,2.6-4.4-0.1-3.6-1c0.7-1.1,1.6-1.4,0.2-2.2c-1.3-1.2,0.9-3.1-1.4-4.3c1.3-2.1-2.1-3.2-2-5.2c0.6-0.8,0.6-1.8,0-2.1
			c-0.4-0.2-1,0.1-1.8,0.3C54.4,524.5,54.6,523.7,54.2,523.7z M14.8,533.5c-0.1,0.3,0.1,0.5,0.4,0.6
			C15.3,533.9,15.1,533.6,14.8,533.5z M14.4,534.6c-0.2,0-0.5,0.5-0.7,0.9c0,0.3,0.4,0.5,0.5,0.5c0.3,0,0.5-0.8,0.4-1.2
			C14.5,534.7,14.5,534.6,14.4,534.6z"/>
	</g>
	<g id="Provincia_Limari">
	</g>
	<g id="Provincia_Choapa">
	</g>
</g>
<g id="Region_Valparaiso">
	<g id="Provincia_San_Antonio">
		<path id="Santo_Domingo" fill="#FFFFFF" stroke="#6E6D6E" stroke-width="2" d="M51.4,656.7c-0.3,0-0.7,0.1-1,0.4
			c-0.3,0.2-0.9,0.4-1.3,0.4c-0.4,0-1.5,0.3-2.5,0.8c-0.5,0.7-1.6,0.5-2.9,1c-0.2,1.3-0.8,0.3-1.5-0.7c-0.2-0.2-0.5-0.3-0.9-0.4
			c-0.6,0-3.3-0.7-2.8,0.2c-0.6,0.7,0.8,0.9,0.5,1.4c-1,0.5-1.2,1-1.6,1.5c-0.5,0-1.1,0.5-1.8,1.4c-1.2,0.9-2.2,1.9-2.9,1.9
			c-0.3,0-0.7-0.3-1-0.8c-0.6-1-0.9-1-1.3-0.1c-0.7,1.4-1.8,1.2-1.6,1.8c0.1,0.4-2,1.1-3.2,1.2c-0.8,0-2.2-0.4-4-1.1l-1.3-0.5
			l-0.6,0.5c-1.7,1.5-1.8,0.8-2.2,0.3l0.2,1.8c0,0.6,0.1,0.8,0.7,0.6c1.2-0.2,1.6,0.7,1.6,1.8c0,0.7-0.2,2,0,2.7
			c0.1,0.2,0.3,0.5,0.5,0.3c0.5-0.7,0.9,0.8,1.3,0.9c0.4,0.1,1,0.9,1.2,1.5c0.1,0.3,0.1,0.4-0.6,0.3c-0.3,0.2,0,1.6-0.6,1.9
			c0,0.8,0.6,3.3-0.9,2.4c-0.5-0.5-0.5,0-0.6,0.2c-0.1,0,0.1,0.2,0,0.8c0.4,0.4,0.7,1.1,0.4,2l0.7,1c0.8,0.3,0.6,1.2,0.7,1.9
			c0.1,0.3,0.5,0.6-0.2,0.6l-0.2,1.4c-0.3,1.2-0.7,2.1-2.5,1.5c0,0-0.3,0.2,0.1,0.8c0.1,0.3,0,0.8,0.2,1c0.7-0.3,0.6,0.6,0.5,0.9
			c-0.3,0.8-0.7,1.3-1.1,0.5l-1-0.5c-0.1,0.7-0.2,2.6,0.3,3c0.1,0,0,0.2,0.4,0.1c0.5,1,1.1,2.9,0.7,3.9c-0.1,0.2-0.3,0-0.4,0.1
			c-0.2,0.4-0.5,0.8-0.8,0.3l-0.7,0.4c0.1,0.2,0.3,0.5,0.3,0.7c0.3,1,0.2,1.8-0.1,2.3c-0.3,0.3-0.4,1-0.8,1.2
			c-0.4,0.2-0.2-0.3-1,0.3c-1,1-1.4,0.5-1.5,0c-0.1-0.4-0.3-0.6-0.5-0.6s-0.3,0.2-0.3,0.5c-0.1,0.2-0.5,0.6-0.6,1
			c0.3,1.1,0.1,2.4-0.6,2.2c0,0.4-1.1,0.2-1.8-0.2c-0.3-0.2-0.7-0.3-0.6,0c0,0.3,0,0.9,0.2,1.5c0.1,0.2,0.4,0.3,0.9,0.6
			c-0.2,0,0.1,0.5,0.4,0.8l0.5,0.7c0.4,0.3,0.1,0.7-0.5,0.8l-0.3,0.6c0.5,0.1,0.5,0.4,0.5,0.6c0.3,0.1,0.7,0.1,0.6,0.6l-0.3,0.5
			c-0.3,0.5-0.3,0.5,0,0.8c0.8,0.3,0.7,0.8,1,1.1c0,0,0,0,0,0.1c0.2,0.2,0.4,0.3,0.5,0.3c0.5,0.8,0.2,1.7,0.4,2.6
			c-0.2,1-2,1-1.9,1.3c0.1,0.6-0.1,1.4-0.7,2.3c0.1,0.1,0.3,0.3,0.7,0.6c0.3,0.2,0.5,0.4,0.6,0.5c0,0,0,0,0.1,0.1
			c0.4,0.2,0.9,0.4,1.2,1.4c0.2,0.3,0.2,0.6,0.2,0.8c0.7,0.2,1.3,0.6,1.6,1.2c0.6,0.9,0.3,1.2-0.1,1.6c-0.3-0.2-0.5-0.5-0.1,0.1
			c0.7,0.9-0.1,2-0.9,2.9c0.2,4.3-1.4,5.4-5.8,6.8c-0.4,0.1-0.5,0.3-0.7,0.8c-0.1,0.4-0.3,0.8-0.5,1c-0.2,0.2-0.3,0.6-0.3,0.8
			s-0.1,0.7-0.3,1c-0.1,0.3-0.2,0.9-0.2,1.3s0.1,1,0,1.1c0.4,0.6-0.2,0.8-0.4,1.1c0.2,0.1,0.4,0.5,0.6,0.2c0.7-0.8,0.7-0.5,0.9-0.3
			c0.3,0.4,0.9,0.3,1.1,0.7c0.4,0.9,0.8-0.5,1.2-0.4c0.1,0-0.3,0.9-0.1,0.9c0.7,0.1,0.7-0.4,1-0.1c0.3,0.3-0.1,0.9,0.2,0.8
			c0.3-0.1,0.2-0.4,1-0.3c-0.4-0.5,0.4-0.8,0.8-0.9c0.3-0.3,0.8-0.6,1.2-0.8c1-0.7,2-1.4,3-2.1c0.3,0.2,0.3,0.5,0.4,0.4l0.6-0.1
			l0.1-4.6c0.2-0.3,0.4-0.4,0.6-0.5c0.3,0,0.6,0.2,1,0.6l0.3-0.3h0.9l0.8,0.6h1c0,0,0.8,0,1.2,0.3c0.4-0.6,1.1-0.3,1.8-0.4
			c0.3-0.3,0.5-0.6,0.5-0.9l0-0.7c-0.8-0.7-1.1-0.2-1.4-1.1l-0.7-0.5c-0.8-0.7-0.3-0.8-0.3-1.1c-0.5-0.1-1.3,0-0.4-1.1l0-0.2
			l0.6-0.5l0.6,0.5c0.2-0.4-0.2-1,0.6-1.3c-0.4-0.9,0.4-0.7,1-0.7l0.6-0.5c0.3,0.1,0.4-0.4,0.5-0.9l0.2-0.3
			c-0.2-0.3-0.2-0.6-0.1-0.8c0,0,0,0,0-0.1c-0.1-0.8-0.3-1.3-0.4-1.5c-1,0-0.3-0.7-0.4-1c-0.5-0.6-0.4-1.1,0.3-1.6
			c-0.3-0.2,0.1-0.9,0.1-1.5c0-0.4-0.6-1.1,0-1.3c0.1-0.3,0.2-0.5,0.6-0.2c0.8,0.1,1.4,0.1,1.6-0.1c0,0,0,0,0.1,0l0.7-0.9
			c0.3-0.3,0.5,0,0.7,0c0.1-0.2,0.7-0.7,0.9-0.5c0.6-0.5-0.1-0.8,0.5-1.2l0.2-0.5c-0.2-0.5-0.1-0.7,0.2-0.7c0.1-0.5,0.3-0.6,0.2-0.6
			c-0.2,0-0.7-0.5-0.6-1.1c-0.3-0.4-0.4-0.7-0.4-0.7c-0.1,0,0-0.7-0.1-1c-0.1-0.2-0.3-0.5-0.1-0.6c0,0,0.1,0,0.1,0c0,0,0,0,0,0
			c0.2-0.1,0.4-0.2,0.4-0.5c0.4,0.1,0.7-0.1,0.9-0.3l0.5,0.1c0.2,0.1,0.3,0.3,0.9-0.1l0.5,0.2c0.6,0.2,1,0.1,1.2-0.2
			c0-0.5,0.7-0.2,1.2-0.2c0.3,0.4,0.7,0.6,1.2,0c0-0.3,0-0.7,0.1-0.8c0.2,0.1,0.4,0.2,0.6,0.1c0.4,0.4,0.7,0.7,0.6-0.2
			c0.4,0.1,0.3-0.3,1-0.2c0.4-0.2,0.4-0.3,0.4-0.5c-0.1-0.4,0.5-0.2,0.1-0.5c-0.2-0.3-0.3-0.5-0.5-0.8c-0.1-0.2-0.2-0.4-0.4-0.5
			c-0.1-0.3,0.2-0.5-0.2-0.8c-0.1-0.9-0.4-0.8,0-1.7c0.1-0.3-0.3-0.4-0.5-0.5c0-0.4,0-0.4,0.5-0.7c0.1-0.6,0.3-0.6,0.4-1
			c0.2-0.3-0.3-0.2-0.4-0.9c-0.3-0.6-0.4-1-0.7-1.2c0.2-0.2,0.2-0.4,0-0.6c0.1-0.2,0.3-0.4,0.3-0.7c0.3-0.1,0.7-0.1,1-0.1
			c0.3,0,0.6,0.1,1,0.1c0.3,0,0.6-0.2,0.9-0.4c0.3-0.2,0.5,0.1,0.8,0.1c0.5,0.1,0.5-0.3,0.6-0.6c0.1-0.3,0.3-0.4,0.4-0.7
			c0.3-0.6,0.4-0.5,0.8-0.4c0.3,0,0.6,0.1,0.7-0.1c0.3,0-0.3-0.3,1-0.2c0.1,0,0.3-0.1,0.4-0.2c0.3,0,0.7,0.1,1,0.1
			c0.3,0,0.3-0.1,0.5-0.1c0.6-0.2,1,0.1,1.4,0.1c0.2,0.5,0.1,0,1.1-0.3l0.2,0c0.5,0,0.7,0.3,0.8,0.5c0,0.2,0,0.8,0,0.8l0.3,0.1
			c0.2,0.7,0.7,0.1,1.1,0.1c0.6,0.3,0.6,0.1,1-0.1c0.1,0,0.3-0.1,0.6-0.1c0.4-0.3,0.9-0.5,1.4-0.4c0.2,0.3,0.3,0,0.5-0.1
			c0.4,0.1,0.6,0.4,0.8,0.6c0.1,0.2-0.1,0.7,0.1,0.7c0.2,0,0.6,0,0.7,0.5c0.4,0.4,0.8,0.9,1.2,1.3c-0.1,0.5-0.6,1.1,0.1,1.4
			c0.6,0.2,0.9,0.7,0.9,1.3c0.3,0.2,0.4,0.6,0.6,0.8c0.1,0.2,0.5,0,0.8-0.1c0.7-0.2,0.2-0.7,0.4-0.7c0.8,0,0.4-0.2,0.5-0.5
			c0.3-0.4,0.4-0.9,0.9-1.2c0-0.4,0.5-0.8,0.9-0.5c0.6,0.1,1.3,0.3,1.1,1c0.4,0.5-0.6,0.8-0.1,1.2c0.5,0.3,0.4,1,1,1.2l0.4,0.6
			c0.6,0,1.2,0,1.4-0.5l0.5,0.2c0.1,0,0.3,0.1,0.4,0.3l0.4,0l0.4,0.2l0,0.2l0.6,0.6h0.7l0,1.1l0.1,0.4c0.6,0.5-0.4,1.2,1,1l0-0.7
			c0.2-0.2,0.5-0.4,0.7-0.8c-0.4-0.3-0.4-0.5-0.3-0.6c0.3-0.4,0.7-0.7,1.1-0.8l0.2-0.5l0.8-0.5c0.9,0,0.8-0.3,1.5-0.7
			c0-0.8,0.2-0.7,0.5-0.8c0.5-0.4,0.7-0.8,1.4-1l0.3,0c0.3-0.4,0.5-1.2,1.1-1.3c1.1-0.2,1.6-0.8,1.4-1.6c-0.2-0.8-0.1-1.1,0.2-1.5
			c0.4-0.4,0.8-1.4,1-2.3c0.1-0.7-0.4-1.2-1.4-1.6c-0.8-0.3-0.9-0.4-1.1-1.5c-0.1-0.2-0.6-0.7-1.2-1.3c-0.6-0.5-1.2-1-1.2-1.3
			c-0.1-0.2-0.2-0.6-0.4-0.8c-0.4-0.5-0.7-1.1-0.9-1.6c-0.1-0.4-0.2-0.8-0.2-1.2c0-1.4-0.3-2.8-0.8-3.2c-0.6-0.6-0.3-1.4,0.7-1.9
			c0.3-0.2,0.5-0.4,0.5-0.8c0-0.3,0.1-0.6,0.2-0.9c0.1-0.3,0.1-0.6-0.2-1.2c-0.2-0.4-0.3-1-0.3-1.2c0-0.6-0.8-1.7-1.4-2
			c-0.3-0.1-0.9-0.4-1.2-0.5c-0.9-0.4-1.6-0.9-1.9-1.4c0,0,0,0,0,0c0,0,0-0.1-0.1-0.1c-0.3-0.5-0.3-0.6,0-1c0.2-0.4,0.2-0.9,0.2-2
			c0-0.8,0-1.6-0.1-1.6c0-0.1-0.4-0.4-0.9-0.8c-0.5-0.3-1-0.7-1.1-0.8c-0.2-0.3-1.1-0.4-1.5-0.3c-0.2,0.1-0.9-0.6-1-0.9
			c-0.2,0.2-0.5,0.4-1.1,0.5c-0.4,0.1-1.8,0.7-2.1,0.8c-0.9-0.3-0.5-1.6-0.6-2.4c0-0.4-1-0.2-1.3-0.4c0.1-1,0.9-2.5,0.1-3.1
			l-1.4-0.5c-0.8-0.2-1.7-1-1.7-0.7c0.5,2.1,0.1,1-2.6,0.6c-1.2-0.5-2.4-1.3-2.2-1.3c0.7,0.1-1.2-1.3-0.6-1.8c1.7-1.3-1.2-2.1-1-1.4
			c0.2,0.5-0.9-0.2-1-0.8C52.4,656.9,52,656.7,51.4,656.7z M13.2,716.1c0.1,0,0.1,0,0.2,0C13.2,716.1,13.1,716.1,13.2,716.1
			C13.1,716.1,13.1,716.1,13.2,716.1z M15,723.2c0.1,0,0.2,0.1,0.3,0.2c0,0,0,0,0,0C15.3,723.4,15.2,723.3,15,723.2z"/>
	</g>
	<g id="Provincia_San_Felipe_de_Aconcagua">
	</g>
	<g id="Provincia_Los_Andes">
	</g>
	<g id="Provincia_Petorca">
	</g>
	<g id="Provincia_Quillota">
	</g>
</g>
<text transform="matrix(1 0 0 1 172 45.0487)" font-family="'sans-serif'" font-size="12">Arica y Parinacota</text>
<text transform="matrix(1 0 0 1 195 118.0483)" font-family="'MicrosoftSansSerif'" font-size="12">Tarapac&#xE1;</text>
<text transform="matrix(1 0 0 1 231 252.0483)" font-family="'MicrosoftSansSerif'" font-size="12">Antofagasta</text>
<text transform="matrix(1 0 0 1 104 596.6049)" font-family="'MicrosoftSansSerif'" font-size="12">Coquimbo</text>
<text transform="matrix(1 0 0 1 180 449.5508)" font-family="'MicrosoftSansSerif'" font-size="12">Atacama</text>
<text transform="matrix(1 0 0 1 104 692.0483)" font-family="'MicrosoftSansSerif'" font-size="12">Valpara&#xED;so</text>
</svg>
